<svg xmlns="http://www.w3.org/2000/svg" xmlns:xlink="http://www.w3.org/1999/xlink" xmlns:lucid="lucid" width="2132.17" height="253.13"><g transform="translate(-639.6995192307693 -596.428758169935)" lucid:page-tab-id="0_0"><path d="M500 500h2500v500H500z" fill="#fff"/><path d="M976.05 693.55a6 6 0 0 1 6-6H1274a6 6 0 0 1 6 6v51.06a6 6 0 0 1-6 6H982.05a6 6 0 0 1-6-6zM2080 695.4a6 6 0 0 1 6-6h331.95a6 6 0 0 1 6 6v41.1a6 6 0 0 1-6 6H2086a6 6 0 0 1-6-6zM1542.43 693.25a6 6 0 0 1 6-6h291.94a6 6 0 0 1 6 6v51.06a6 6 0 0 1-6 6h-291.94a6 6 0 0 1-6-6z" stroke="#000098" stroke-width="3" fill-opacity="0"/><path d="M780 708.5a6 6 0 0 1 6-6h112a6 6 0 0 0 6-6v-8a2.3 2.3 0 0 1 4-1.55l28 31.08a6.67 6.67 0 0 1 0 8.92l-28 31.08a2.3 2.3 0 0 1-4-1.54v-8a6 6 0 0 0-6-6H786a6 6 0 0 1-6-6z" fill="#fff"/><path d="M802.8 702.5H814m11.2 0h11.2m11.2 0h11.2m11.2 0h11.2m11.2 0h5.6l.94-.08.9-.22.88-.36.8-.5.72-.6.6-.72.5-.8.37-.87.23-.92.07-.94v-8l.07-.56.2-.5.3-.47.42-.37.48-.26.53-.13h.57l.53.13.5.26.4.35 3.5 3.9m7 7.76l7 7.78m7 7.77l3.5 3.88.58.77.48.86.35.9.23.96.07.97-.07.97-.22.95-.34.9-.48.86-.6.77-3.5 3.9m-6.98 7.76l-7 7.78m-7 7.77l-3.5 3.88-.4.37-.5.25-.53.13H906l-.52-.14-.5-.26-.4-.36-.32-.46-.2-.52-.06-.55v-8l-.07-.95-.22-.9-.35-.88-.5-.8-.6-.72-.72-.6-.8-.5-.88-.36-.9-.23-.95-.08h-5.6m-11.2 0H870m-11.2 0h-11.2m-11.2 0h-11.2m-11.2 0h-11.2m-11.2 0H786l-.94-.08-.9-.22-.88-.36-.8-.5-.72-.6-.6-.72-.5-.8-.37-.87-.23-.92-.07-.94v-7m0-14v-7l.07-.95.22-.9.35-.88.5-.8.6-.72.72-.6.8-.5.88-.36.9-.23.95-.08h5.6" stroke="#000098" stroke-width="3" fill="none"/><path d="M1099.28 690.38v58.07" stroke="#000098" stroke-width="3" stroke-linecap="round" fill="none"/><path d="M998.64 698.57a6 6 0 0 1 6-6h67.7a6 6 0 0 1 6 6V739a6 6 0 0 1-6 6h-67.7a6 6 0 0 1-6-6z" stroke="#000" stroke-opacity="0" fill="#fff" fill-opacity="0"/><use xlink:href="#a" transform="matrix(1,0,0,1,1003.6369539551355,697.5655555555558) translate(-4.682222222222215 31.735555555555553)"/><path d="M1078.35 698.86a6 6 0 0 1 6-6h207.22a6 6 0 0 1 6 6v40.44a6 6 0 0 1-6 6h-207.22a6 6 0 0 1-6-6z" stroke="#000" stroke-opacity="0" fill="#fff" fill-opacity="0"/><use xlink:href="#b" transform="matrix(1,0,0,1,1083.3536009445097,697.8621241830068) translate(78.66444444444446 34.14083333333332)"/><path d="M998.64 734.13a6 6 0 0 1 6-6h228a6 6 0 0 1 6 6v88.93a6 6 0 0 1-6 6h-228a6 6 0 0 1-6-6z" stroke="#000" stroke-opacity="0" fill="#fff" fill-opacity="0"/><use xlink:href="#c" transform="matrix(1,0,0,1,1003.6369539551355,733.1289215686273) translate(56.35555555555557 53.74791666666667)"/><path d="M1340 707.83a6 6 0 0 1 6-6h112a6 6 0 0 0 6-6v-8a2.3 2.3 0 0 1 4-1.54l28 31.07a6.67 6.67 0 0 1 0 8.92l-28 31.07a2.3 2.3 0 0 1-4-1.54v-8a6 6 0 0 0-6-6h-112a6 6 0 0 1-6-6z" stroke="#000098" stroke-width="3" fill="#fff"/><path d="M1565 732.13a6 6 0 0 1 6-6h228a6 6 0 0 1 6 6v88.93a6 6 0 0 1-6 6h-228a6 6 0 0 1-6-6z" stroke="#000" stroke-opacity="0" fill="#fff" fill-opacity="0"/><use xlink:href="#d" transform="matrix(1,0,0,1,1570.0120031483668,731.1289215686274) translate(45.78888888888889 53.74791666666667)"/><path d="M2142.32 693.25a6 6 0 0 1 6-6h207.3a6 6 0 0 1 6 6v43.05a6 6 0 0 1-6 6h-207.3a6 6 0 0 1-6-6z" stroke="#000" stroke-opacity="0" fill="#fff" fill-opacity="0"/><use xlink:href="#e" transform="matrix(1,0,0,1,2147.324183392366,692.2544117647062) translate(40.69333333333334 34.32833333333332)"/><path d="M2121.63 726a6 6 0 0 1 6-6h228a6 6 0 0 1 6 6v88.93a6 6 0 0 1-6 6h-228a6 6 0 0 1-6-6z" stroke="#000" stroke-opacity="0" fill="#fff" fill-opacity="0"/><use xlink:href="#f" transform="matrix(1,0,0,1,2126.6252459661555,725) translate(53.244444444444454 53.74791666666667)"/><path d="M1340 763.67a6 6 0 0 1 6-6h108a6 6 0 0 1 6 6v29.86a6 6 0 0 1-6 6h-108a6 6 0 0 1-6-6z" stroke="#000" stroke-opacity="0" fill="#fff" fill-opacity="0"/><use xlink:href="#g" transform="matrix(1,0,0,1,1345,762.6666666666665) translate(30.133333333333333 24.466666666666665)"/><path d="M1900 761.67a6 6 0 0 1 6-6h108a6 6 0 0 1 6 6v29.86a6 6 0 0 1-6 6h-108a6 6 0 0 1-6-6z" stroke="#000" stroke-opacity="0" fill="#fff" fill-opacity="0"/><use xlink:href="#h" transform="matrix(1,0,0,1,1905,760.6666666666665) translate(-4.055555555555564 23.31111111111111)"/><path d="M2460 694.44a6 6 0 0 1 6-6h112a6 6 0 0 0 6-6v-8a2.3 2.3 0 0 1 4-1.54l28 31.08a6.67 6.67 0 0 1 0 8.92l-28 31.08a2.3 2.3 0 0 1-4-1.54v-8a6 6 0 0 0-6-6h-112a6 6 0 0 1-6-6z" stroke="#000098" stroke-width="3" fill="#fff"/><path d="M2732.15 716.47c-5.76 0-11 2.53-14.46 6.54l-9.17-6.38c1-2.68 1.56-5.5 1.56-8.48 0-2.97-.56-5.8-1.48-8.47l9.07-6.4c3.56 4.02 8.7 6.7 14.45 6.7 10.72 0 19.4-8.77 19.4-19.48 0-10.7-8.68-19.33-19.4-19.33-10.62 0-19.32 8.62-19.32 19.32 0 1.92.28 3.86.83 5.5l-9.16 6.4c-3.75-4.62-9.25-8.04-15.47-8.93v-11c8.8-1.8 15.38-9.67 15.38-19.04 0-10.7-8.7-19.32-19.4-19.32-10.62 0-19.32 8.63-19.32 19.33 0 9.22 6.4 16.95 15 18.9v11.14c-11.7 2.08-20.68 12.33-20.68 24.67 0 12.34 9.07 22.6 20.88 24.68v11.6c-8.7 1.93-15.2 9.66-15.2 19.03 0 10.7 8.7 19.32 19.32 19.32 10.7 0 19.4-8.62 19.4-19.32 0-9.37-6.5-17.1-15.2-19.03v-11.6c6.24-1.2 11.27-4 15.2-8.92l9.17 6.55c-.46 1.63-.74 3.4-.74 5.35 0 10.7 8.7 19.47 19.32 19.47 10.72 0 19.4-8.77 19.4-19.47s-8.68-19.33-19.4-19.33zm0-45.34c5.22 0 9.43 4.16 9.43 9.36 0 5.2-4.2 9.36-9.43 9.36-5.12 0-9.34-4.16-9.34-9.37 0-5.2 4.23-9.37 9.35-9.37zm-56.5-17.7c0-5.05 4.22-9.36 9.35-9.36 5.22 0 9.43 4.3 9.43 9.36 0 5.2-4.2 9.52-9.43 9.52-5.13 0-9.34-4.3-9.34-9.52zm18.78 110.02c0 5.05-4.2 9.37-9.43 9.37-5.13 0-9.34-4.32-9.34-9.37 0-5.2 4.2-9.52 9.34-9.52 5.22 0 9.43 4.32 9.43 9.52zm-9.43-42.22c-7.24 0-13.1-5.95-13.1-13.1 0-7.27 5.86-13.07 13.1-13.07 7.23 0 13.18 5.8 13.18 13.1 0 7.12-5.95 13.07-13.18 13.07zm47.15 23.93c-5.12 0-9.34-4.16-9.34-9.36 0-5.2 4.23-9.37 9.35-9.37 5.22 0 9.43 4.16 9.43 9.37 0 5.2-4.2 9.36-9.43 9.36zM732.15 727.1c-5.76 0-11 2.53-14.46 6.55l-9.17-6.4c1-2.67 1.56-5.5 1.56-8.47 0-2.97-.56-5.8-1.48-8.47l9.07-6.38c3.56 4 8.68 6.7 14.45 6.7 10.72 0 19.42-8.78 19.42-19.5 0-10.7-8.7-19.32-19.42-19.32-10.62 0-19.32 8.63-19.32 19.33 0 1.93.28 3.87.83 5.5l-9.16 6.4c-3.75-4.62-9.25-8.03-15.47-8.93v-11c8.8-1.78 15.38-9.66 15.38-19.03 0-10.7-8.7-19.32-19.4-19.32-10.62 0-19.32 8.62-19.32 19.32 0 9.22 6.4 16.95 15 18.88v11.15C669 696.18 660 706.44 660 718.78s9.07 22.6 20.88 24.68v11.6c-8.7 1.93-15.2 9.66-15.2 19.03 0 10.7 8.7 19.3 19.32 19.3 10.7 0 19.4-8.6 19.4-19.3 0-9.38-6.5-17.1-15.2-19.04v-11.6c6.24-1.2 11.27-4 15.2-8.92l9.17 6.54c-.46 1.64-.74 3.42-.74 5.35 0 10.7 8.7 19.48 19.32 19.48 10.72 0 19.42-8.76 19.42-19.47 0-10.7-8.7-19.32-19.42-19.32zm0-45.34c5.22 0 9.44 4.17 9.44 9.37 0 5.2-4.23 9.37-9.45 9.37-5.12 0-9.34-4.17-9.34-9.37 0-5.2 4.23-9.37 9.35-9.37zm-56.5-17.7c0-5.04 4.22-9.35 9.35-9.35 5.22 0 9.43 4.32 9.43 9.37 0 5.2-4.2 9.52-9.43 9.52-5.13 0-9.34-4.32-9.34-9.53zm18.78 110.03c0 5.04-4.2 9.35-9.43 9.35-5.13 0-9.34-4.3-9.34-9.36 0-5.22 4.2-9.53 9.34-9.53 5.22 0 9.43 4.3 9.43 9.52zM685 731.85c-7.24 0-13.1-5.94-13.1-13.08 0-7.28 5.86-13.08 13.1-13.08 7.23 0 13.18 5.8 13.18 13.08 0 7.14-5.95 13.1-13.18 13.1zm47.15 23.94c-5.12 0-9.34-4.16-9.34-9.37 0-5.2 4.23-9.36 9.35-9.36 5.22 0 9.44 4.16 9.44 9.36 0 5.2-4.23 9.37-9.45 9.37z" stroke="#000" stroke-opacity="0" stroke-width=".6" fill="#231f20"/><path d="M1900 701.67a6 6 0 0 1 6-6h112a6 6 0 0 0 6-6v-8a2.3 2.3 0 0 1 4-1.54l28 31.08a6.67 6.67 0 0 1 0 8.93l-28 31.08a2.3 2.3 0 0 1-4-1.53v-8a6 6 0 0 0-6-6h-112a6 6 0 0 1-6-6z" stroke="#000098" stroke-width="3" fill="#fff"/><path d="M774.27 622.93a6 6 0 0 1 6-6h148a6 6 0 0 1 6 6v58.62a6 6 0 0 1-6 6h-148a6 6 0 0 1-6-6z" stroke="#000" stroke-opacity="0" fill="#fff" fill-opacity="0"/><use xlink:href="#i" transform="matrix(1,0,0,1,779.2735143644237,621.928758169935) translate(16.999999999999993 26.279166666666665)"/><use xlink:href="#j" transform="matrix(1,0,0,1,779.2735143644237,621.928758169935) translate(19.988888888888887 56.59027777777777)"/><path d="M760 751a6 6 0 0 1 6-6h176.55a6 6 0 0 1 6 6v58.62a6 6 0 0 1-6 6H766a6 6 0 0 1-6-6z" stroke="#000" stroke-opacity="0" fill="#fff" fill-opacity="0"/><use xlink:href="#k" transform="matrix(1,0,0,1,765,750.0011111111113) translate(20.65555555555555 26.279166666666665)"/><use xlink:href="#l" transform="matrix(1,0,0,1,765,750.0011111111113) translate(61.41111111111111 26.279166666666665)"/><use xlink:href="#m" transform="matrix(1,0,0,1,765,750.0011111111113) translate(101.65555555555555 26.279166666666665)"/><use xlink:href="#n" transform="matrix(1,0,0,1,765,750.0011111111113) translate(50.5 56.59027777777777)"/><use xlink:href="#o" transform="matrix(1,0,0,1,765,750.0011111111113) translate(82.32222222222222 56.59027777777777)"/><path d="M1665.65 690.1v58.05" stroke="#000098" stroke-width="3" stroke-linecap="round" fill="none"/><path d="M1565 698.27a6 6 0 0 1 6-6h67.73a6 6 0 0 1 6 6v40.44a6 6 0 0 1-6 6H1571a6 6 0 0 1-6-6z" stroke="#000" stroke-opacity="0" fill="#fff" fill-opacity="0"/><g><use xlink:href="#a" transform="matrix(1,0,0,1,1570.0120031483668,697.2689869281047) translate(-4.682222222222215 31.735555555555553)"/></g><path d="M1644.73 698.57a6 6 0 0 1 6-6h207.22a6 6 0 0 1 6 6V739a6 6 0 0 1-6 6h-207.22a6 6 0 0 1-6-6z" stroke="#000" stroke-opacity="0" fill="#fff" fill-opacity="0"/><g><use xlink:href="#b" transform="matrix(1,0,0,1,1649.7286501377412,697.5655555555558) translate(78.66444444444446 34.14083333333332)"/></g><defs><path fill="#0808f9" d="M310-401c-73-1-120 52-120 126v219c0 43-21 64-63 64-40 0-62-23-62-64v-378c0-40 22-63 61-63 67-4 64 65 61 131l-11-25c25-65 89-107 174-108 125 0 173 75 173 201v242c0 41-22 64-62 64s-63-23-63-64v-236c0-71-22-108-88-109" id="p"/><path fill="#0808f9" d="M376-104C360-34 310 9 226 10 123 7 43-45 43-145c0-156 171-141 338-145v72c-97 6-209-18-216 67 0 47 37 76 87 75 71-3 114-49 114-120v-115c14-127-153-103-229-63-63 33-90-68-29-90 51-19 104-34 166-35 140 0 212 63 211 203v240c0 40-19 64-58 64-58 2-63-52-59-112h8" id="q"/><path fill="#0808f9" d="M297-401c-70 0-105 55-105 130v215c0 43-21 64-63 64-40 0-62-23-62-64v-378c0-40 22-63 61-63 69-4 63 69 61 136l-11-30c24-62 80-108 162-108 85 1 132 42 150 114h-14c23-65 87-114 172-114 121 0 165 77 165 201v242c0 41-23 64-63 64s-62-23-62-64v-237c-1-69-16-107-81-108-70 0-105 55-105 130v215c0 41-22 64-62 64s-63-23-63-64v-237c-1-68-16-107-80-108" id="r"/><path fill="#0808f9" d="M156-255c-6 133 79 185 210 163 40-7 87-54 124-21 24 25 7 69-19 80C432-7 366 9 306 10 140 7 38-80 38-244c0-154 93-255 245-255 149 0 222 95 225 246 0 26-20 37-48 37H139v-72h281l-16 15c-1-85-34-139-116-141-91 2-128 66-132 159" id="s"/><g id="a"><use transform="matrix(0.031111111111111103,0,0,0.031111111111111103,0,0)" xlink:href="#p"/><use transform="matrix(0.031111111111111103,0,0,0.031111111111111103,18.199999999999996,0)" xlink:href="#q"/><use transform="matrix(0.031111111111111103,0,0,0.031111111111111103,35.21777777777777,0)" xlink:href="#r"/><use transform="matrix(0.031111111111111103,0,0,0.031111111111111103,62.50222222222221,0)" xlink:href="#s"/></g><path fill="#0808f9" d="M539-49c1 159-87 239-246 239-75 0-143-19-196-41-56-24-20-121 35-89 45 24 94 33 151 35 88 0 134-42 134-129v-90h9C409-59 337-11 256-12 114-16 38-111 38-256c0-146 74-237 218-243 82-1 152 46 169 111l-10 25c-3-67-7-138 62-134 40 0 62 22 62 63v385zM164-256c-2 85 45 149 126 149 86-2 124-61 126-149 2-86-45-148-126-148-85 3-125 60-126 148" id="t"/><g id="b"><use transform="matrix(0.031111111111111103,0,0,0.031111111111111103,0,0)" xlink:href="#q"/><use transform="matrix(0.031111111111111103,0,0,0.031111111111111103,17.017777777777773,0)" xlink:href="#t"/><use transform="matrix(0.031111111111111103,0,0,0.031111111111111103,35.80888888888888,0)" xlink:href="#s"/></g><path fill="#ff4f00" d="M190-61c0 42-21 68-63 68-41 0-62-27-62-68v-367c0-42 21-68 62-68s63 26 63 68v367zm11-594c0 43-29 67-74 66-44 1-74-23-74-66 0-44 29-66 74-66 46 0 74 22 74 66" id="u"/><path fill="#ff4f00" d="M310-401c-73-1-120 52-120 126v219c0 43-21 64-63 64-40 0-62-23-62-64v-378c0-40 22-63 61-63 67-4 64 65 61 131l-11-25c25-65 89-107 174-108 125 0 173 75 173 201v242c0 41-22 64-62 64s-63-23-63-64v-236c0-71-22-108-88-109" id="v"/><path fill="#ff4f00" d="M190 125c0 41-23 63-63 63s-62-22-62-63v-559c0-40 22-63 61-63 72-5 63 73 62 141l-11-30c18-65 87-114 170-113 143 6 215 105 215 254S492 5 347 10c-82 1-150-47-169-110h12v225zm-2-370c-2 94 40 160 124 160 88 0 123-67 124-160 2-95-40-159-124-159-88 0-124 66-124 159" id="w"/><path fill="#ff4f00" d="M406-102C381-36 327 9 242 10 115 10 62-64 62-192v-242c0-42 21-63 62-63s63 21 63 63v244c0 67 23 101 88 102 68 1 114-55 114-126v-220c0-42 21-63 62-63s63 21 63 63v378c0 43-20 64-61 64-70 4-62-72-61-140" id="x"/><path fill="#ff4f00" d="M390-58c0 61-48 65-101 68C161 10 95-54 95-182v-213c-51 2-102 4-102-47 0-52 51-49 102-47 0-72-15-154 63-154 77 0 61 83 62 154 62 6 156-23 156 47 0 69-94 41-156 47v206c1 64 25 96 89 96 40-3 81-24 81 35" id="y"/><path fill="#ff4f00" d="M488 38c0 21-17 38-39 37H52c-22 1-41-16-40-37C11 17 30-1 52 0h397c22-1 39 17 39 38" id="z"/><path fill="#ff4f00" d="M376-104C360-34 310 9 226 10 123 7 43-45 43-145c0-156 171-141 338-145v72c-97 6-209-18-216 67 0 47 37 76 87 75 71-3 114-49 114-120v-115c14-127-153-103-229-63-63 33-90-68-29-90 51-19 104-34 166-35 140 0 212 63 211 203v240c0 40-19 64-58 64-58 2-63-52-59-112h8" id="A"/><path fill="#ff4f00" d="M562-245C562-96 491 5 347 10c-83 1-153-48-170-114l11-25c2 67 8 141-61 137-40 0-62-23-62-64v-594c0-41 22-63 62-63s63 22 63 63v260h-12c19-63 87-110 169-109 144 5 215 105 215 254zm-374 0c-2 94 40 160 124 160 88 0 123-67 124-160 2-95-40-159-124-159-88 0-124 66-124 159" id="B"/><path fill="#ff4f00" d="M318-49c3 52-36 60-86 59C117 10 65-59 65-177v-473c0-41 22-63 62-63s63 22 63 63v467c-2 68 36 99 104 88 25-1 22 15 24 46" id="C"/><path fill="#ff4f00" d="M156-255c-6 133 79 185 210 163 40-7 87-54 124-21 24 25 7 69-19 80C432-7 366 9 306 10 140 7 38-80 38-244c0-154 93-255 245-255 149 0 222 95 225 246 0 26-20 37-48 37H139v-72h281l-16 15c-1-85-34-139-116-141-91 2-128 66-132 159" id="D"/><g id="c"><use transform="matrix(0.022222222222222223,0,0,0.022222222222222223,0,0)" xlink:href="#u"/><use transform="matrix(0.022222222222222223,0,0,0.022222222222222223,5.666666666666667,0)" xlink:href="#v"/><use transform="matrix(0.022222222222222223,0,0,0.022222222222222223,18.666666666666668,0)" xlink:href="#w"/><use transform="matrix(0.022222222222222223,0,0,0.022222222222222223,32,0)" xlink:href="#x"/><use transform="matrix(0.022222222222222223,0,0,0.022222222222222223,44.86666666666667,0)" xlink:href="#y"/><use transform="matrix(0.022222222222222223,0,0,0.022222222222222223,53.800000000000004,0)" xlink:href="#z"/><use transform="matrix(0.022222222222222223,0,0,0.022222222222222223,64.24444444444444,0)" xlink:href="#y"/><use transform="matrix(0.022222222222222223,0,0,0.022222222222222223,72.77777777777777,0)" xlink:href="#A"/><use transform="matrix(0.022222222222222223,0,0,0.022222222222222223,84.93333333333332,0)" xlink:href="#B"/><use transform="matrix(0.022222222222222223,0,0,0.022222222222222223,98.26666666666665,0)" xlink:href="#C"/><use transform="matrix(0.022222222222222223,0,0,0.022222222222222223,105.24444444444443,0)" xlink:href="#D"/></g><path fill="#ff4f00" d="M358-442c0 63-77 44-135 47v339c0 43-21 64-62 64-40 0-63-23-63-64v-339c-50 3-96 2-96-47 0-63 75-44 132-47l-36 33c-12-173 75-238 236-252 60-5 68 89 12 92-93 4-132 42-123 143l-16-16c61 5 151-22 151 47" id="E"/><path fill="#ff4f00" d="M192-56c0 41-22 64-63 64S65-15 65-56v-378c0-40 22-63 61-63 65-4 64 61 61 126h-10c19-80 74-117 164-128 47-6 61 59 37 89-12 15-37 19-63 21-77 6-122 45-123 126v207" id="F"/><path fill="#ff4f00" d="M422-104C404-38 336 11 253 10 109 5 38-96 38-245s72-248 215-254c82-1 149 46 168 109h-11v-260c0-41 22-63 62-63s63 22 63 63v594c0 41-22 64-62 64-72 5-63-73-62-142zM164-245c-2 94 40 160 124 160 88 0 123-67 124-160 2-95-40-159-124-159-88 0-124 66-124 159" id="G"/><g id="d"><use transform="matrix(0.022222222222222223,0,0,0.022222222222222223,0,0)" xlink:href="#E"/><use transform="matrix(0.022222222222222223,0,0,0.022222222222222223,8.088888888888889,0)" xlink:href="#u"/><use transform="matrix(0.022222222222222223,0,0,0.022222222222222223,13.755555555555556,0)" xlink:href="#C"/><use transform="matrix(0.022222222222222223,0,0,0.022222222222222223,20.555555555555557,0)" xlink:href="#y"/><use transform="matrix(0.022222222222222223,0,0,0.022222222222222223,28.977777777777778,0)" xlink:href="#D"/><use transform="matrix(0.022222222222222223,0,0,0.022222222222222223,41.022222222222226,0)" xlink:href="#F"/><use transform="matrix(0.022222222222222223,0,0,0.022222222222222223,49.55555555555556,0)" xlink:href="#D"/><use transform="matrix(0.022222222222222223,0,0,0.022222222222222223,61.6,0)" xlink:href="#G"/><use transform="matrix(0.022222222222222223,0,0,0.022222222222222223,74.93333333333334,0)" xlink:href="#z"/><use transform="matrix(0.022222222222222223,0,0,0.022222222222222223,85.37777777777778,0)" xlink:href="#y"/><use transform="matrix(0.022222222222222223,0,0,0.022222222222222223,93.91111111111111,0)" xlink:href="#A"/><use transform="matrix(0.022222222222222223,0,0,0.022222222222222223,106.06666666666668,0)" xlink:href="#B"/><use transform="matrix(0.022222222222222223,0,0,0.022222222222222223,119.39999999999998,0)" xlink:href="#C"/><use transform="matrix(0.022222222222222223,0,0,0.022222222222222223,126.37777777777777,0)" xlink:href="#D"/></g><path fill="#0808f9" d="M453-146C459 25 198 37 67-30c-50-26-21-113 34-82 44 25 86 29 144 34 69 5 121-47 79-96-66-38-195-24-240-82-22-22-33-52-33-87-3-166 239-184 365-117 49 26 9 113-42 79-54-36-210-56-210 32 0 69 100 59 157 73 75 19 130 48 132 130" id="H"/><path fill="#0808f9" d="M406-102C381-36 327 9 242 10 115 10 62-64 62-192v-242c0-42 21-63 62-63s63 21 63 63v244c0 67 23 101 88 102 68 1 114-55 114-126v-220c0-42 21-63 62-63s63 21 63 63v378c0 43-20 64-61 64-70 4-62-72-61-140" id="I"/><path fill="#0808f9" d="M488 38c0 21-17 38-39 37H52c-22 1-41-16-40-37C11 17 30-1 52 0h397c22-1 39 17 39 38" id="J"/><g id="e"><use transform="matrix(0.031111111111111103,0,0,0.031111111111111103,0,0)" xlink:href="#H"/><use transform="matrix(0.031111111111111103,0,0,0.031111111111111103,15.182222222222219,0)" xlink:href="#I"/><use transform="matrix(0.031111111111111103,0,0,0.031111111111111103,33.19555555555554,0)" xlink:href="#r"/><use transform="matrix(0.031111111111111103,0,0,0.031111111111111103,60.47999999999998,0)" xlink:href="#J"/><use transform="matrix(0.031111111111111103,0,0,0.031111111111111103,75.9422222222222,0)" xlink:href="#q"/><use transform="matrix(0.031111111111111103,0,0,0.031111111111111103,92.95999999999998,0)" xlink:href="#t"/><use transform="matrix(0.031111111111111103,0,0,0.031111111111111103,111.75111111111109,0)" xlink:href="#s"/></g><path fill="#ff4f00" d="M453-146C459 25 198 37 67-30c-50-26-21-113 34-82 44 25 86 29 144 34 69 5 121-47 79-96-66-38-195-24-240-82-22-22-33-52-33-87-3-166 239-184 365-117 49 26 9 113-42 79-54-36-210-56-210 32 0 69 100 59 157 73 75 19 130 48 132 130" id="K"/><g id="f"><use transform="matrix(0.022222222222222223,0,0,0.022222222222222223,0,0)" xlink:href="#F"/><use transform="matrix(0.022222222222222223,0,0,0.022222222222222223,8.533333333333335,0)" xlink:href="#D"/><use transform="matrix(0.022222222222222223,0,0,0.022222222222222223,20.57777777777778,0)" xlink:href="#K"/><use transform="matrix(0.022222222222222223,0,0,0.022222222222222223,31.422222222222224,0)" xlink:href="#x"/><use transform="matrix(0.022222222222222223,0,0,0.022222222222222223,44.28888888888889,0)" xlink:href="#C"/><use transform="matrix(0.022222222222222223,0,0,0.022222222222222223,51.08888888888889,0)" xlink:href="#y"/><use transform="matrix(0.022222222222222223,0,0,0.022222222222222223,60.02222222222221,0)" xlink:href="#z"/><use transform="matrix(0.022222222222222223,0,0,0.022222222222222223,70.46666666666667,0)" xlink:href="#y"/><use transform="matrix(0.022222222222222223,0,0,0.022222222222222223,79,0)" xlink:href="#A"/><use transform="matrix(0.022222222222222223,0,0,0.022222222222222223,91.15555555555557,0)" xlink:href="#B"/><use transform="matrix(0.022222222222222223,0,0,0.022222222222222223,104.48888888888887,0)" xlink:href="#C"/><use transform="matrix(0.022222222222222223,0,0,0.022222222222222223,111.46666666666665,0)" xlink:href="#D"/></g><g id="g"><use transform="matrix(0.022222222222222223,0,0,0.022222222222222223,0,0)" xlink:href="#E"/><use transform="matrix(0.022222222222222223,0,0,0.022222222222222223,8.088888888888889,0)" xlink:href="#u"/><use transform="matrix(0.022222222222222223,0,0,0.022222222222222223,13.755555555555556,0)" xlink:href="#C"/><use transform="matrix(0.022222222222222223,0,0,0.022222222222222223,20.555555555555557,0)" xlink:href="#y"/><use transform="matrix(0.022222222222222223,0,0,0.022222222222222223,28.977777777777778,0)" xlink:href="#D"/><use transform="matrix(0.022222222222222223,0,0,0.022222222222222223,41.022222222222226,0)" xlink:href="#F"/></g><path fill="#ff4f00" d="M166-246c-8 131 115 199 225 134 54-34 91 55 40 84-37 23-87 37-140 38C131 7 40-87 38-247c-2-185 134-279 324-243 48 8 129 47 84 108-44 38-86-24-144-20-94 7-130 60-136 156" id="L"/><path fill="#ff4f00" d="M88 29C82 74 6 76-6 34c-4-10-4-21 0-34l231-717c7-45 82-47 95-6 4 9 3 21-1 34" id="M"/><path fill="#ff4f00" d="M297-401c-70 0-105 55-105 130v215c0 43-21 64-63 64-40 0-62-23-62-64v-378c0-40 22-63 61-63 69-4 63 69 61 136l-11-30c24-62 80-108 162-108 85 1 132 42 150 114h-14c23-65 87-114 172-114 121 0 165 77 165 201v242c0 41-23 64-63 64s-62-23-62-64v-237c-1-69-16-107-81-108-70 0-105 55-105 130v215c0 41-22 64-62 64s-63-23-63-64v-237c-1-68-16-107-80-108" id="N"/><g id="h"><use transform="matrix(0.022222222222222223,0,0,0.022222222222222223,0,0)" xlink:href="#F"/><use transform="matrix(0.022222222222222223,0,0,0.022222222222222223,8.533333333333335,0)" xlink:href="#D"/><use transform="matrix(0.022222222222222223,0,0,0.022222222222222223,20.57777777777778,0)" xlink:href="#G"/><use transform="matrix(0.022222222222222223,0,0,0.022222222222222223,33.91111111111111,0)" xlink:href="#x"/><use transform="matrix(0.022222222222222223,0,0,0.022222222222222223,46.77777777777778,0)" xlink:href="#L"/><use transform="matrix(0.022222222222222223,0,0,0.022222222222222223,57.044444444444444,0)" xlink:href="#D"/><use transform="matrix(0.022222222222222223,0,0,0.022222222222222223,69.28888888888889,0)" xlink:href="#M"/><use transform="matrix(0.022222222222222223,0,0,0.022222222222222223,74.91111111111113,0)" xlink:href="#K"/><use transform="matrix(0.022222222222222223,0,0,0.022222222222222223,85.75555555555557,0)" xlink:href="#x"/><use transform="matrix(0.022222222222222223,0,0,0.022222222222222223,98.62222222222222,0)" xlink:href="#N"/></g><path fill="#ff4f00" d="M190-353c-4 180 111 280 294 239 49-11 129-80 155 0 7 74-66 86-121 108-37 10-75 16-113 16C179 6 57-127 54-353c-4-263 190-411 459-348 57 13 132 32 124 107-4 38-53 58-88 31-36-24-84-37-140-38-151 2-216 94-219 248" id="O"/><path fill="#ff4f00" d="M538-245c0 161-90 255-250 255C130 10 38-86 38-245c0-160 90-254 250-254 158 0 250 95 250 254zm-374 0c-2 94 40 160 124 160 88 0 123-67 124-160 2-95-40-159-124-159-88 0-124 66-124 159" id="P"/><g id="i"><use transform="matrix(0.022222222222222223,0,0,0.022222222222222223,0,0)" xlink:href="#O"/><use transform="matrix(0.022222222222222223,0,0,0.022222222222222223,14.333333333333334,0)" xlink:href="#P"/><use transform="matrix(0.022222222222222223,0,0,0.022222222222222223,27.133333333333333,0)" xlink:href="#v"/><use transform="matrix(0.022222222222222223,0,0,0.022222222222222223,40.13333333333333,0)" xlink:href="#v"/><use transform="matrix(0.022222222222222223,0,0,0.022222222222222223,53.13333333333333,0)" xlink:href="#D"/><use transform="matrix(0.022222222222222223,0,0,0.022222222222222223,65.17777777777778,0)" xlink:href="#L"/><use transform="matrix(0.022222222222222223,0,0,0.022222222222222223,75.71111111111112,0)" xlink:href="#y"/><use transform="matrix(0.022222222222222223,0,0,0.022222222222222223,84.53333333333335,0)" xlink:href="#u"/><use transform="matrix(0.022222222222222223,0,0,0.022222222222222223,90.20000000000002,0)" xlink:href="#P"/><use transform="matrix(0.022222222222222223,0,0,0.022222222222222223,103.00000000000003,0)" xlink:href="#v"/></g><path fill="#ff4f00" d="M539-49c1 159-87 239-246 239-75 0-143-19-196-41-56-24-20-121 35-89 45 24 94 33 151 35 88 0 134-42 134-129v-90h9C409-59 337-11 256-12 114-16 38-111 38-256c0-146 74-237 218-243 82-1 152 46 169 111l-10 25c-3-67-7-138 62-134 40 0 62 22 62 63v385zM164-256c-2 85 45 149 126 149 86-2 124-61 126-149 2-86-45-148-126-148-85 3-125 60-126 148" id="Q"/><g id="j"><use transform="matrix(0.022222222222222223,0,0,0.022222222222222223,0,0)" xlink:href="#L"/><use transform="matrix(0.022222222222222223,0,0,0.022222222222222223,10.266666666666667,0)" xlink:href="#P"/><use transform="matrix(0.022222222222222223,0,0,0.022222222222222223,23.066666666666666,0)" xlink:href="#v"/><use transform="matrix(0.022222222222222223,0,0,0.022222222222222223,36.06666666666667,0)" xlink:href="#E"/><use transform="matrix(0.022222222222222223,0,0,0.022222222222222223,44.15555555555556,0)" xlink:href="#u"/><use transform="matrix(0.022222222222222223,0,0,0.022222222222222223,49.82222222222222,0)" xlink:href="#Q"/><use transform="matrix(0.022222222222222223,0,0,0.022222222222222223,63.24444444444445,0)" xlink:href="#x"/><use transform="matrix(0.022222222222222223,0,0,0.022222222222222223,76.11111111111111,0)" xlink:href="#F"/><use transform="matrix(0.022222222222222223,0,0,0.022222222222222223,84.64444444444445,0)" xlink:href="#D"/><use transform="matrix(0.022222222222222223,0,0,0.022222222222222223,96.6888888888889,0)" xlink:href="#G"/></g><g id="k"><use transform="matrix(0.022222222222222223,0,0,0.022222222222222223,0,0)" xlink:href="#B"/><use transform="matrix(0.022222222222222223,0,0,0.022222222222222223,13.333333333333334,0)" xlink:href="#x"/><use transform="matrix(0.022222222222222223,0,0,0.022222222222222223,26.2,0)" xlink:href="#y"/></g><g id="l"><use transform="matrix(0.022222222222222223,0,0,0.022222222222222223,0,0)" xlink:href="#v"/><use transform="matrix(0.022222222222222223,0,0,0.022222222222222223,13,0)" xlink:href="#P"/><use transform="matrix(0.022222222222222223,0,0,0.022222222222222223,25.68888888888889,0)" xlink:href="#y"/></g><path fill="#ff4f00" d="M199-70c0 44-29 76-74 75-44 1-76-31-75-75-1-43 31-74 75-73 45-1 74 30 74 73zm0-350c0 43-29 75-74 74-44 1-76-31-75-74-1-44 31-75 75-74 45-1 74 30 74 74" id="R"/><g id="m"><use transform="matrix(0.022222222222222223,0,0,0.022222222222222223,0,0)" xlink:href="#P"/><use transform="matrix(0.022222222222222223,0,0,0.022222222222222223,12.8,0)" xlink:href="#w"/><use transform="matrix(0.022222222222222223,0,0,0.022222222222222223,26.133333333333333,0)" xlink:href="#D"/><use transform="matrix(0.022222222222222223,0,0,0.022222222222222223,38.17777777777778,0)" xlink:href="#v"/><use transform="matrix(0.022222222222222223,0,0,0.022222222222222223,51.17777777777778,0)" xlink:href="#R"/></g><g id="n"><use transform="matrix(0.022222222222222223,0,0,0.022222222222222223,0,0)" xlink:href="#v"/><use transform="matrix(0.022222222222222223,0,0,0.022222222222222223,13,0)" xlink:href="#P"/></g><g id="o"><use transform="matrix(0.022222222222222223,0,0,0.022222222222222223,0,0)" xlink:href="#G"/><use transform="matrix(0.022222222222222223,0,0,0.022222222222222223,13.333333333333334,0)" xlink:href="#A"/><use transform="matrix(0.022222222222222223,0,0,0.022222222222222223,25.48888888888889,0)" xlink:href="#y"/><use transform="matrix(0.022222222222222223,0,0,0.022222222222222223,34.022222222222226,0)" xlink:href="#A"/></g></defs></g></svg>