<svg xmlns="http://www.w3.org/2000/svg" xmlns:xlink="http://www.w3.org/1999/xlink" xmlns:lucid="lucid" width="2552.17" height="431.83"><g transform="translate(-349.3333333333333 -504.66666666666663)" lucid:page-tab-id="0_0"><path d="M0 500h3000v500H0z" fill="#fff"/><path d="M941.22 606a6 6 0 0 1 6-6h327.45a6 6 0 0 1 6 6v201.88a6 6 0 0 1-6 6H947.22a6 6 0 0 1-6-6zM2040 652.88a6 6 0 0 1 6-6h208a6 6 0 0 1 6 6v107.56a6 6 0 0 1-6 6h-208a6 6 0 0 1-6-6zM1481.22 606.66a6 6 0 0 1 6-6h327.45a6 6 0 0 1 6 6v201.88a6 6 0 0 1-6 6h-327.45a6 6 0 0 1-6-6z" stroke="#000098" stroke-width="3" fill-opacity="0"/><path d="M760 708.5a6 6 0 0 1 6-6h112a6 6 0 0 0 6-6v-8a2.3 2.3 0 0 1 4-1.55l28 31.08a6.67 6.67 0 0 1 0 8.92l-28 31.08a2.3 2.3 0 0 1-4-1.54v-8a6 6 0 0 0-6-6H766a6 6 0 0 1-6-6z" stroke="#000098" stroke-width="3" fill="#fff"/><path d="M942.72 661.56h339.66M1063 602.16v210.22" stroke="#000098" stroke-width="3" stroke-linecap="round" fill="none"/><path d="M963.8 611a6 6 0 0 1 6-6h67.72a6 6 0 0 1 6 6v40.45a6 6 0 0 1-6 6H969.8a6 6 0 0 1-6-6z" stroke="#000" stroke-opacity="0" fill="#fff" fill-opacity="0"/><use xlink:href="#a" transform="matrix(1,0,0,1,968.8036206218015,610.0145751633985) translate(-4.682222222222215 31.735555555555553)"/><path d="M1065.95 606.5a6 6 0 0 1 6-6h207.22a6 6 0 0 1 6 6v40.44a6 6 0 0 1-6 6h-207.22a6 6 0 0 1-6-6z" stroke="#000" stroke-opacity="0" fill="#fff" fill-opacity="0"/><use xlink:href="#b" transform="matrix(1,0,0,1,1070.945887445887,605.5) translate(78.66444444444446 34.14083333333332)"/><path d="M943.5 712.83h339.66" stroke="#000098" stroke-width="3" stroke-linecap="round" fill="none"/><path d="M942 666.06a6 6 0 0 1 6-6h108a6 6 0 0 1 6 6v39.27a6 6 0 0 1-6 6H948a6 6 0 0 1-6-6z" fill="none"/><use xlink:href="#c" transform="matrix(1,0,0,1,941.9964580873673,660.0578431372548) translate(34.2 33.31111111111111)"/><path d="M1063.45 670.33a6 6 0 0 1 6-6h207.22a6 6 0 0 1 6 6v35a6 6 0 0 1-6 6h-207.22a6 6 0 0 1-6-6z" stroke="#000" stroke-opacity="0" stroke-width="3" fill="#fff" fill-opacity="0"/><use xlink:href="#d" transform="matrix(1,0,0,1,1068.445887445887,669.3333333333333) translate(91.66666666666667 24.779166666666665)"/><path d="M941.5 764.1h339.67" stroke="#000098" stroke-width="3" stroke-linecap="round" fill="none"/><path d="M940 717.33a6 6 0 0 1 6-6h108a6 6 0 0 1 6 6v39.28a6 6 0 0 1-6 6H946a6 6 0 0 1-6-6z" fill="none"/><use xlink:href="#e" transform="matrix(1,0,0,1,940,711.3333333333333) translate(39.28888888888889 33.31111111111111)"/><path d="M1061.45 721.6a6 6 0 0 1 6-6h207.22a6 6 0 0 1 6 6v35a6 6 0 0 1-6 6h-207.22a6 6 0 0 1-6-6z" stroke="#000" stroke-opacity="0" fill="#fff" fill-opacity="0"/><use xlink:href="#f" transform="matrix(1,0,0,1,1066.4494293585199,720.6088235294118) translate(91.66666666666667 24.779166666666665)"/><path d="M941.22 768.6a6 6 0 0 1 6-6h108a6 6 0 0 1 6 6v39.28a6 6 0 0 1-6 6h-108a6 6 0 0 1-6-6z" fill="none"/><use xlink:href="#g" transform="matrix(1,0,0,1,941.217237308146,762.6088235294117) translate(26.388888888888886 33.31111111111111)"/><path d="M1062.67 772.88a6 6 0 0 1 6-6h207.22a6 6 0 0 1 6 6v35a6 6 0 0 1-6 6h-207.23a6 6 0 0 1-6-6z" stroke="#000" stroke-opacity="0" fill="#fff" fill-opacity="0"/><use xlink:href="#h" transform="matrix(1,0,0,1,1067.666666666666,771.8843137254903) translate(98.33333333333333 24.779166666666665)"/><path d="M991.33 802.57a6 6 0 0 1 6-6h228a6 6 0 0 1 6 6v88.93a6 6 0 0 1-6 6h-228a6 6 0 0 1-6-6z" stroke="#000" stroke-opacity="0" fill="#fff" fill-opacity="0"/><use xlink:href="#i" transform="matrix(1,0,0,1,996.333333333333,801.5666666666664) translate(56.35555555555557 53.74791666666667)"/><path d="M1300 707.83a6 6 0 0 1 6-6h112a6 6 0 0 0 6-6v-8a2.3 2.3 0 0 1 4-1.54l28 31.07a6.67 6.67 0 0 1 0 8.92l-28 31.07a2.3 2.3 0 0 1-4-1.54v-8a6 6 0 0 0-6-6h-112a6 6 0 0 1-6-6z" stroke="#000098" stroke-width="3" fill="#fff"/><path d="M1540 802.57a6 6 0 0 1 6-6h228a6 6 0 0 1 6 6v88.93a6 6 0 0 1-6 6h-228a6 6 0 0 1-6-6z" stroke="#000" stroke-opacity="0" fill="#fff" fill-opacity="0"/><use xlink:href="#j" transform="matrix(1,0,0,1,1545,801.5666666666664) translate(45.78888888888889 53.74791666666667)"/><path d="M2041.5 708.2h216.18" stroke="#000098" stroke-width="3" stroke-linecap="round" fill="none"/><path d="M2079.86 656.58a6 6 0 0 1 6-6h128.28a6 6 0 0 1 6 6v42.84a6 6 0 0 1-6 6h-128.28a6 6 0 0 1-6-6z" stroke="#000" stroke-opacity="0" fill="#fff" fill-opacity="0"/><use xlink:href="#k" transform="matrix(1,0,0,1,2084.8643497443586,655.5812997658621) translate(1.1933333333333422 34.26583333333332)"/><path d="M2078.2 721.24a6 6 0 0 1 6-6h128.22a6 6 0 0 1 6 6v34.83a6 6 0 0 1-6 6H2084.2a6 6 0 0 1-6-6z" stroke="#000" stroke-opacity="0" stroke-width="3" fill="#fff" fill-opacity="0"/><use xlink:href="#l" transform="matrix(1,0,0,1,2083.2027871490677,720.239224448166) translate(52.166666666666664 24.779166666666665)"/><path d="M2073.24 754.72a6 6 0 0 1 6-6h141.52a6 6 0 0 1 6 6v88.56a6 6 0 0 1-6 6h-141.52a6 6 0 0 1-6-6z" stroke="#000" stroke-opacity="0" fill="#fff" fill-opacity="0"/><use xlink:href="#m" transform="matrix(1,0,0,1,2078.244530310061,753.7176470588238) translate(10.244444444444454 53.74791666666667)"/><path d="M1300 763.67a6 6 0 0 1 6-6h108a6 6 0 0 1 6 6v29.86a6 6 0 0 1-6 6h-108a6 6 0 0 1-6-6z" stroke="#000" stroke-opacity="0" fill="#fff" fill-opacity="0"/><use xlink:href="#n" transform="matrix(1,0,0,1,1305,762.6666666666665) translate(30.133333333333333 24.466666666666665)"/><path d="M1860 761.67a6 6 0 0 1 6-6h108a6 6 0 0 1 6 6v29.86a6 6 0 0 1-6 6h-108a6 6 0 0 1-6-6z" stroke="#000" stroke-opacity="0" fill="#fff" fill-opacity="0"/><use xlink:href="#o" transform="matrix(1,0,0,1,1865,760.6666666666665) translate(-4.055555555555564 23.31111111111111)"/><path d="M2300 698.44a6 6 0 0 1 6-6h112a6 6 0 0 0 6-6v-8a2.3 2.3 0 0 1 4-1.54l28 31.08a6.67 6.67 0 0 1 0 8.92l-28 31.08a2.3 2.3 0 0 1-4-1.54v-8a6 6 0 0 0-6-6h-112a6 6 0 0 1-6-6zM1860 701.67a6 6 0 0 1 6-6h112a6 6 0 0 0 6-6v-8a2.3 2.3 0 0 1 4-1.54l28 31.08a6.67 6.67 0 0 1 0 8.93l-28 31.08a2.3 2.3 0 0 1-4-1.53v-8a6 6 0 0 0-6-6h-112a6 6 0 0 1-6-6z" stroke="#000098" stroke-width="3" fill="#fff"/><path d="M747 646a6 6 0 0 1 6-6h148a6 6 0 0 1 6 6v39.27a6 6 0 0 1-6 6H753a6 6 0 0 1-6-6z" stroke="#000" stroke-opacity="0" fill="#fff" fill-opacity="0"/><use xlink:href="#p" transform="matrix(1,0,0,1,752,645) translate(7.166666666666657 27.716666666666665)"/><use xlink:href="#q" transform="matrix(1,0,0,1,752,645) translate(71.34444444444443 27.716666666666665)"/><path d="M740 746a6 6 0 0 1 6-6h176.55a6 6 0 0 1 6 6v55.18a6 6 0 0 1-6 6H746a6 6 0 0 1-6-6z" stroke="#000" stroke-opacity="0" fill="#fff" fill-opacity="0"/><use xlink:href="#r" transform="matrix(1,0,0,1,745,745) translate(5.933333333333323 36.96666666666667)"/><use xlink:href="#s" transform="matrix(1,0,0,1,745,745) translate(107.66666666666667 36.96666666666667)"/><use xlink:href="#t" transform="matrix(1,0,0,1,745,745) translate(138.48888888888888 36.96666666666667)"/><path d="M761.5 722.5h147" fill="none"/><path d="M761.5 722.5h3.06m12.25 0h6.14m12.25 0h6.1m12.26 0h6.13m12.24 0h6.12m12.25 0h6.14m12.25 0h6.1m12.26 0h6.13m12.24 0h3.06" stroke="#ff4f00" stroke-width="3" stroke-linecap="round" fill="none"/><path d="M1304.9 722.5h147" fill="none"/><path d="M1304.9 722.5h3.08m12.25 0h6.12m12.25 0h6.13m12.25 0h6.12m12.25 0h6.13m12.25 0h6.12m12.25 0h6.13m12.25 0h6.12m12.25 0h3.07" stroke="#ff4f00" stroke-width="3" stroke-linecap="round" fill="none"/><path d="M1861.5 716.83h147" fill="none"/><path d="M1861.5 716.83h3.06m12.25 0h6.14m12.25 0h6.1m12.26 0h6.13m12.24 0h6.12m12.25 0h6.14m12.25 0h6.1m12.26 0h6.13m12.24 0h3.06" stroke="#ff4f00" stroke-width="3" stroke-linecap="round" fill="none"/><path d="M2305.5 712.44h147" fill="none"/><path d="M2305.5 712.44h3.06m12.25 0h6.14m12.25 0h6.1m12.26 0h6.13m12.24 0h6.12m12.25 0h6.14m12.25 0h6.1m12.26 0h6.13m12.24 0h3.06" stroke="#ff4f00" stroke-width="3" stroke-linecap="round" fill="none"/><path d="M491.1 562.83a6 6 0 0 1 6-6h231.6a6 6 0 0 1 6 6v43.67a6 6 0 0 1-6 6H497.1a6 6 0 0 1-6-6z" stroke="#000098" stroke-width="3" fill="#fff"/><use xlink:href="#u" transform="matrix(1,0,0,1,503.093333333333,568.8333333333334) translate(12.433333333333351 24.46666666666666)"/><use xlink:href="#v" transform="matrix(1,0,0,1,503.093333333333,568.8333333333334) translate(137.76666666666665 24.46666666666666)"/><path d="M400 538.5a6 6 0 0 1 6-6h68a6 6 0 0 1 6 6v288a6 6 0 0 1-6 6h-68a6 6 0 0 1-6-6z" fill="none"/><path d="M480 832.5c-5.52 0-10-4.48-10-10v-130c0-5.52-4.48-10-10-10 5.52 0 10-4.48 10-10v-130c0-5.52 4.48-10 10-10" stroke="#000098" stroke-width="3" fill="none"/><use xlink:href="#w" transform="matrix(1,0,0,1,405,537.5) translate(-14 122)"/><use xlink:href="#x" transform="matrix(1,0,0,1,405,537.5) translate(-18.15555555555556 152.3111111111111)"/><use xlink:href="#y" transform="matrix(1,0,0,1,405,537.5) translate(-34.66666666666667 182.62222222222223)"/><path d="M491.1 658.5a6 6 0 0 1 6-6h231.6a6 6 0 0 1 6 6v43.67a6 6 0 0 1-6 6H497.1a6 6 0 0 1-6-6z" stroke="#000098" stroke-width="3" fill="#fff"/><use xlink:href="#z" transform="matrix(1,0,0,1,503.093333333333,664.5) translate(17.72222222222223 24.46666666666666)"/><use xlink:href="#A" transform="matrix(1,0,0,1,503.093333333333,664.5) translate(132.47777777777776 24.46666666666666)"/><path d="M491.1 754.72a6 6 0 0 1 6-6h231.6a6 6 0 0 1 6 6v43.66a6 6 0 0 1-6 6H497.1a6 6 0 0 1-6-6z" stroke="#000098" stroke-width="3" fill="#fff"/><use xlink:href="#B" transform="matrix(1,0,0,1,503.093333333333,760.7176470588238) translate(11.288888888888891 24.46666666666666)"/><use xlink:href="#C" transform="matrix(1,0,0,1,503.093333333333,760.7176470588238) translate(152.24444444444444 24.46666666666666)"/><path d="M614.4 615.5c0 .83-.67 1.5-1.5 1.5s-1.5-.67-1.5-1.5.67-1.5 1.5-1.5 1.5.67 1.5 1.5zm0 5.67c0 .83-.67 1.5-1.5 1.5s-1.5-.67-1.5-1.5.67-1.5 1.5-1.5 1.5.67 1.5 1.5zm0 5.66c0 .83-.67 1.5-1.5 1.5s-1.5-.67-1.5-1.5.67-1.5 1.5-1.5 1.5.67 1.5 1.5zm0 5.67c0 .83-.67 1.5-1.5 1.5s-1.5-.67-1.5-1.5.67-1.5 1.5-1.5 1.5.67 1.5 1.5zm0 5.67c0 .83-.67 1.5-1.5 1.5s-1.5-.67-1.5-1.5.67-1.5 1.5-1.5 1.5.67 1.5 1.5zm0 5.66c0 .83-.67 1.5-1.5 1.5s-1.5-.67-1.5-1.5.67-1.5 1.5-1.5 1.5.67 1.5 1.5z" fill="#000098"/><path d="M614.37 615.54h-2.95V614h2.95zM614.37 651h-2.95v-1.54h2.95z" stroke="#000098" stroke-width=".05" fill="#000098"/><path d="M614.4 711.17c0 .83-.67 1.5-1.5 1.5s-1.5-.67-1.5-1.5.67-1.5 1.5-1.5 1.5.67 1.5 1.5zm0 5.75c0 .83-.67 1.5-1.5 1.5s-1.5-.67-1.5-1.5c0-.82.67-1.5 1.5-1.5s1.5.68 1.5 1.5zm0 5.76c0 .83-.67 1.5-1.5 1.5s-1.5-.67-1.5-1.5c0-.82.67-1.5 1.5-1.5s1.5.68 1.5 1.5zm0 5.76c0 .83-.67 1.5-1.5 1.5s-1.5-.67-1.5-1.5.67-1.5 1.5-1.5 1.5.67 1.5 1.5zm0 5.76c0 .83-.67 1.5-1.5 1.5s-1.5-.67-1.5-1.5.67-1.5 1.5-1.5 1.5.67 1.5 1.5zm0 5.76c0 .83-.67 1.5-1.5 1.5s-1.5-.67-1.5-1.5.67-1.5 1.5-1.5 1.5.67 1.5 1.5zm0 5.76c0 .82-.67 1.5-1.5 1.5s-1.5-.68-1.5-1.5c0-.83.67-1.5 1.5-1.5s1.5.67 1.5 1.5z" fill="#000098"/><path d="M614.37 711.2h-2.95v-1.53h2.95zM614.37 747.22h-2.95v-1.54h2.95z" stroke="#000098" stroke-width=".05" fill="#000098"/><path d="M614.4 807.38c0 .83-.67 1.5-1.5 1.5s-1.5-.67-1.5-1.5c0-.82.67-1.5 1.5-1.5s1.5.68 1.5 1.5zm0 6.04c0 .83-.67 1.5-1.5 1.5s-1.5-.67-1.5-1.5.67-1.5 1.5-1.5 1.5.67 1.5 1.5zm0 6.04c0 .82-.67 1.5-1.5 1.5s-1.5-.68-1.5-1.5c0-.83.67-1.5 1.5-1.5s1.5.67 1.5 1.5zm0 6.03c0 .82-.67 1.5-1.5 1.5s-1.5-.68-1.5-1.5c0-.84.67-1.5 1.5-1.5s1.5.66 1.5 1.5zm0 6.03c0 .82-.67 1.5-1.5 1.5s-1.5-.68-1.5-1.5c0-.83.67-1.5 1.5-1.5s1.5.67 1.5 1.5zm0 6.03c0 .83-.67 1.5-1.5 1.5s-1.5-.67-1.5-1.5.67-1.5 1.5-1.5 1.5.67 1.5 1.5zm0 6.04c0 .82-.67 1.5-1.5 1.5s-1.5-.68-1.5-1.5c0-.83.67-1.5 1.5-1.5s1.5.67 1.5 1.5zm0 6.03c0 .83-.67 1.5-1.5 1.5s-1.5-.67-1.5-1.5.67-1.5 1.5-1.5 1.5.67 1.5 1.5zm0 6.04c0 .83-.67 1.5-1.5 1.5s-1.5-.67-1.5-1.5.67-1.5 1.5-1.5 1.5.67 1.5 1.5zm0 6.03c0 .83-.67 1.5-1.5 1.5s-1.5-.67-1.5-1.5.67-1.5 1.5-1.5 1.5.67 1.5 1.5zm0 6.04c0 .83-.67 1.5-1.5 1.5s-1.5-.67-1.5-1.5.67-1.5 1.5-1.5 1.5.67 1.5 1.5zm0 6.03c0 .83-.67 1.5-1.5 1.5s-1.5-.67-1.5-1.5c0-.82.67-1.5 1.5-1.5s1.5.68 1.5 1.5zm0 6.04c0 .84-.67 1.5-1.5 1.5s-1.5-.66-1.5-1.5c0-.82.67-1.5 1.5-1.5s1.5.68 1.5 1.5zm0 6.05c0 .82-.67 1.5-1.5 1.5s-1.5-.68-1.5-1.5c0-.83.67-1.5 1.5-1.5s1.5.67 1.5 1.5zm0 6.03c0 .83-.67 1.5-1.5 1.5s-1.5-.67-1.5-1.5.67-1.5 1.5-1.5 1.5.67 1.5 1.5z" fill="#000098"/><path d="M614.37 807.42h-2.95v-1.54h2.95z" stroke="#000098" stroke-width=".05" fill="#000098"/><path d="M612.9 907.65l-4.64-14.27h9.27z" stroke="#000098" stroke-width="3" fill="#000098"/><path d="M1482.72 662.22h339.66M1603 602.82v210.23" stroke="#000098" stroke-width="3" stroke-linecap="round" fill="none"/><path d="M1503.8 611.68a6 6 0 0 1 6-6h67.72a6 6 0 0 1 6 6v40.43a6 6 0 0 1-6 6h-67.72a6 6 0 0 1-6-6z" stroke="#000" stroke-opacity="0" fill="#fff" fill-opacity="0"/><use xlink:href="#a" transform="matrix(1,0,0,1,1508.8036206218017,610.675732238284) translate(-4.682222222222215 31.735555555555553)"/><path d="M1605.95 607.16a6 6 0 0 1 6-6h207.22a6 6 0 0 1 6 6v40.44a6 6 0 0 1-6 6h-207.22a6 6 0 0 1-6-6z" stroke="#000" stroke-opacity="0" fill="#fff" fill-opacity="0"/><use xlink:href="#b" transform="matrix(1,0,0,1,1610.9458874458874,606.1611570748855) translate(78.66444444444446 34.14083333333332)"/><path d="M1483.5 713.5h339.66" stroke="#000098" stroke-width="3" stroke-linecap="round" fill="none"/><path d="M1482 666.72a6 6 0 0 1 6-6h108a6 6 0 0 1 6 6V706a6 6 0 0 1-6 6h-108a6 6 0 0 1-6-6z" fill="none"/><use xlink:href="#c" transform="matrix(1,0,0,1,1481.9964580873673,660.7190002121404) translate(34.2 33.31111111111111)"/><path d="M1603.45 671a6 6 0 0 1 6-6h207.22a6 6 0 0 1 6 6v35a6 6 0 0 1-6 6h-207.22a6 6 0 0 1-6-6z" stroke="#000" stroke-opacity="0" stroke-width="3" fill="#fff" fill-opacity="0"/><use xlink:href="#d" transform="matrix(1,0,0,1,1608.4458874458874,669.9944904082188) translate(91.66666666666667 24.779166666666665)"/><path d="M1481.5 764.77h339.67" stroke="#000098" stroke-width="3" stroke-linecap="round" fill="none"/><path d="M1480 718a6 6 0 0 1 6-6h108a6 6 0 0 1 6 6v39.27a6 6 0 0 1-6 6h-108a6 6 0 0 1-6-6z" fill="none"/><use xlink:href="#e" transform="matrix(1,0,0,1,1480,711.9944904082188) translate(39.28888888888889 33.31111111111111)"/><path d="M1601.45 722.27a6 6 0 0 1 6-6h207.22a6 6 0 0 1 6 6v35a6 6 0 0 1-6 6h-207.22a6 6 0 0 1-6-6z" stroke="#000" stroke-opacity="0" fill="#fff" fill-opacity="0"/><use xlink:href="#f" transform="matrix(1,0,0,1,1606.4494293585203,721.2699806042973) translate(91.66666666666667 24.779166666666665)"/><path d="M1481.22 769.27a6 6 0 0 1 6-6h108a6 6 0 0 1 6 6v39.27a6 6 0 0 1-6 6h-108a6 6 0 0 1-6-6z" fill="none"/><use xlink:href="#g" transform="matrix(1,0,0,1,1481.217237308146,763.2699806042972) translate(26.388888888888886 33.31111111111111)"/><path d="M1602.67 773.54a6 6 0 0 1 6-6h207.22a6 6 0 0 1 6 6v35a6 6 0 0 1-6 6h-207.23a6 6 0 0 1-6-6z" stroke="#000" stroke-opacity="0" fill="#fff" fill-opacity="0"/><use xlink:href="#h" transform="matrix(1,0,0,1,1607.6666666666665,772.5454708003758) translate(98.33333333333333 24.779166666666665)"/><path d="M2480 650a6 6 0 0 1 6-6h231.6a6 6 0 0 1 6 6v43.67a6 6 0 0 1-6 6H2486a6 6 0 0 1-6-6z" stroke="#000098" stroke-width="3" fill="#fff"/><use xlink:href="#D" transform="matrix(1,0,0,1,2492,656) translate(15.400000000000034 24.46666666666666)"/><use xlink:href="#E" transform="matrix(1,0,0,1,2492,656) translate(150.97777777777776 24.46666666666666)"/><path d="M2740 532.17a6 6 0 0 1 6-6h128a6 6 0 0 1 6 6V891.5a6 6 0 0 1-6 6h-128a6 6 0 0 1-6-6z" fill="none"/><path d="M2740 897.5c5.52 0 10-4.48 10-10V721.83c0-5.52 4.48-10 10-10-5.52 0-10-4.47-10-10V536.17c0-5.53-4.48-10-10-10" stroke="#000098" stroke-width="3" fill="none"/><use xlink:href="#F" transform="matrix(1,0,0,1,2775,531.1666666666666) translate(0 158)"/><use xlink:href="#x" transform="matrix(1,0,0,1,2775,531.1666666666666) translate(0 188.3111111111111)"/><use xlink:href="#y" transform="matrix(1,0,0,1,2775,531.1666666666666) translate(0 218.62222222222223)"/><path d="M2603.3 641c0 .83-.67 1.5-1.5 1.5-.82 0-1.5-.67-1.5-1.5s.68-1.5 1.5-1.5c.83 0 1.5.67 1.5 1.5zm0-5.77c0 .82-.67 1.5-1.5 1.5-.82 0-1.5-.68-1.5-1.5 0-.83.68-1.5 1.5-1.5.83 0 1.5.67 1.5 1.5zm0-5.78c0 .83-.67 1.5-1.5 1.5-.82 0-1.5-.67-1.5-1.5s.68-1.5 1.5-1.5c.83 0 1.5.67 1.5 1.5zm0-5.78c0 .83-.67 1.5-1.5 1.5-.82 0-1.5-.67-1.5-1.5 0-.82.68-1.5 1.5-1.5.83 0 1.5.68 1.5 1.5zm0-5.77c0 .83-.67 1.5-1.5 1.5-.82 0-1.5-.67-1.5-1.5s.68-1.5 1.5-1.5c.83 0 1.5.67 1.5 1.5zm0-5.77c0 .82-.67 1.5-1.5 1.5-.82 0-1.5-.68-1.5-1.5 0-.83.68-1.5 1.5-1.5.83 0 1.5.67 1.5 1.5zm0-5.78c0 .83-.67 1.5-1.5 1.5-.82 0-1.5-.67-1.5-1.5s.68-1.5 1.5-1.5c.83 0 1.5.67 1.5 1.5zm0-5.77c0 .82-.67 1.5-1.5 1.5-.82 0-1.5-.68-1.5-1.5 0-.83.68-1.5 1.5-1.5.83 0 1.5.67 1.5 1.5zm0-5.78c0 .83-.67 1.5-1.5 1.5-.82 0-1.5-.67-1.5-1.5s.68-1.5 1.5-1.5c.83 0 1.5.67 1.5 1.5zm0-5.77c0 .82-.67 1.5-1.5 1.5-.82 0-1.5-.68-1.5-1.5 0-.83.68-1.5 1.5-1.5.83 0 1.5.67 1.5 1.5zm0-5.78c0 .83-.67 1.5-1.5 1.5-.82 0-1.5-.67-1.5-1.5s.68-1.5 1.5-1.5c.83 0 1.5.67 1.5 1.5zm0-5.77c0 .82-.67 1.5-1.5 1.5-.82 0-1.5-.68-1.5-1.5 0-.83.68-1.5 1.5-1.5.83 0 1.5.67 1.5 1.5zm0-5.78c0 .83-.67 1.5-1.5 1.5-.82 0-1.5-.67-1.5-1.5s.68-1.5 1.5-1.5c.83 0 1.5.67 1.5 1.5zm0-5.78c0 .83-.67 1.5-1.5 1.5-.82 0-1.5-.67-1.5-1.5 0-.82.68-1.5 1.5-1.5.83 0 1.5.68 1.5 1.5zm0-5.77c0 .83-.67 1.5-1.5 1.5-.82 0-1.5-.67-1.5-1.5s.68-1.5 1.5-1.5c.83 0 1.5.67 1.5 1.5zm0-5.77c0 .82-.67 1.5-1.5 1.5-.82 0-1.5-.68-1.5-1.5 0-.83.68-1.5 1.5-1.5.83 0 1.5.67 1.5 1.5zm0-5.78c0 .83-.67 1.5-1.5 1.5-.82 0-1.5-.67-1.5-1.5s.68-1.5 1.5-1.5c.83 0 1.5.67 1.5 1.5zm0-5.77c0 .82-.67 1.5-1.5 1.5-.82 0-1.5-.68-1.5-1.5 0-.83.68-1.5 1.5-1.5.83 0 1.5.67 1.5 1.5zm0-5.78c0 .83-.67 1.5-1.5 1.5-.82 0-1.5-.67-1.5-1.5s.68-1.5 1.5-1.5c.83 0 1.5.67 1.5 1.5zm0-5.77c0 .82-.67 1.5-1.5 1.5-.82 0-1.5-.68-1.5-1.5 0-.83.68-1.5 1.5-1.5.83 0 1.5.67 1.5 1.5z" fill="#000098"/><path d="M2603.28 642.5h-2.95v-1.54h2.95z" stroke="#000098" stroke-width=".05" fill="#000098"/><path d="M2601.8 525.54V524" stroke="#000098" stroke-width="3" fill="none"/><path d="M2603.3 642.5c0 .83-.67 1.5-1.5 1.5-.82 0-1.5-.67-1.5-1.5s.68-1.5 1.5-1.5c.83 0 1.5.67 1.5 1.5z" fill="#000098"/><path d="M2601.8 642.5" stroke="#000098" stroke-width="3" fill="none"/><path stroke="#000098" stroke-width=".05" fill="#000098"/><path d="M2603.3 702.67c0 .83-.67 1.5-1.5 1.5-.82 0-1.5-.67-1.5-1.5s.68-1.5 1.5-1.5c.83 0 1.5.67 1.5 1.5zm0 5.95c0 .83-.67 1.5-1.5 1.5-.82 0-1.5-.67-1.5-1.5s.68-1.5 1.5-1.5c.83 0 1.5.67 1.5 1.5zm0 5.95c0 .83-.67 1.5-1.5 1.5-.82 0-1.5-.67-1.5-1.5s.68-1.5 1.5-1.5c.83 0 1.5.67 1.5 1.5zm0 5.95c0 .83-.67 1.5-1.5 1.5-.82 0-1.5-.67-1.5-1.5 0-.82.68-1.5 1.5-1.5.83 0 1.5.68 1.5 1.5zm0 5.96c0 .82-.67 1.5-1.5 1.5-.82 0-1.5-.68-1.5-1.5 0-.83.68-1.5 1.5-1.5.83 0 1.5.67 1.5 1.5zm0 5.95c0 .83-.67 1.5-1.5 1.5-.82 0-1.5-.67-1.5-1.5s.68-1.5 1.5-1.5c.83 0 1.5.67 1.5 1.5zm0 5.95c0 .83-.67 1.5-1.5 1.5-.82 0-1.5-.67-1.5-1.5s.68-1.5 1.5-1.5c.83 0 1.5.67 1.5 1.5zm0 5.95c0 .83-.67 1.5-1.5 1.5-.82 0-1.5-.67-1.5-1.5s.68-1.5 1.5-1.5c.83 0 1.5.67 1.5 1.5zm0 5.95c0 .83-.67 1.5-1.5 1.5-.82 0-1.5-.67-1.5-1.5 0-.82.68-1.5 1.5-1.5.83 0 1.5.68 1.5 1.5zm0 5.96c0 .83-.67 1.5-1.5 1.5-.82 0-1.5-.67-1.5-1.5s.68-1.5 1.5-1.5c.83 0 1.5.67 1.5 1.5zm0 5.95c0 .82-.67 1.5-1.5 1.5-.82 0-1.5-.68-1.5-1.5 0-.84.68-1.5 1.5-1.5.83 0 1.5.66 1.5 1.5zm0 5.94c0 .83-.67 1.5-1.5 1.5-.82 0-1.5-.67-1.5-1.5s.68-1.5 1.5-1.5c.83 0 1.5.67 1.5 1.5zm0 5.96c0 .82-.67 1.5-1.5 1.5-.82 0-1.5-.68-1.5-1.5 0-.83.68-1.5 1.5-1.5.83 0 1.5.67 1.5 1.5zm0 5.95c0 .83-.67 1.5-1.5 1.5-.82 0-1.5-.67-1.5-1.5s.68-1.5 1.5-1.5c.83 0 1.5.67 1.5 1.5zm0 5.95c0 .83-.67 1.5-1.5 1.5-.82 0-1.5-.67-1.5-1.5s.68-1.5 1.5-1.5c.83 0 1.5.67 1.5 1.5zm0 5.95c0 .83-.67 1.5-1.5 1.5-.82 0-1.5-.67-1.5-1.5s.68-1.5 1.5-1.5c.83 0 1.5.67 1.5 1.5zm0 5.95c0 .83-.67 1.5-1.5 1.5-.82 0-1.5-.67-1.5-1.5 0-.82.68-1.5 1.5-1.5.83 0 1.5.68 1.5 1.5zm0 5.96c0 .82-.67 1.5-1.5 1.5-.82 0-1.5-.68-1.5-1.5 0-.83.68-1.5 1.5-1.5.83 0 1.5.67 1.5 1.5zm0 5.95c0 .84-.67 1.5-1.5 1.5-.82 0-1.5-.66-1.5-1.5 0-.82.68-1.5 1.5-1.5.83 0 1.5.68 1.5 1.5zm0 5.96c0 .83-.67 1.5-1.5 1.5-.82 0-1.5-.67-1.5-1.5s.68-1.5 1.5-1.5c.83 0 1.5.67 1.5 1.5zm0 5.95c0 .84-.67 1.5-1.5 1.5-.82 0-1.5-.66-1.5-1.5 0-.82.68-1.5 1.5-1.5.83 0 1.5.68 1.5 1.5zm0 5.97c0 .82-.67 1.5-1.5 1.5-.82 0-1.5-.68-1.5-1.5 0-.83.68-1.5 1.5-1.5.83 0 1.5.67 1.5 1.5zm0 5.95c0 .83-.67 1.5-1.5 1.5-.82 0-1.5-.67-1.5-1.5s.68-1.5 1.5-1.5c.83 0 1.5.67 1.5 1.5zm0 5.95c0 .83-.67 1.5-1.5 1.5-.82 0-1.5-.67-1.5-1.5s.68-1.5 1.5-1.5c.83 0 1.5.67 1.5 1.5zm0 5.95c0 .83-.67 1.5-1.5 1.5-.82 0-1.5-.67-1.5-1.5 0-.82.68-1.5 1.5-1.5.83 0 1.5.68 1.5 1.5zm0 5.96c0 .82-.67 1.5-1.5 1.5-.82 0-1.5-.68-1.5-1.5 0-.83.68-1.5 1.5-1.5.83 0 1.5.67 1.5 1.5zm0 5.95c0 .83-.67 1.5-1.5 1.5-.82 0-1.5-.67-1.5-1.5s.68-1.5 1.5-1.5c.83 0 1.5.67 1.5 1.5z" fill="#000098"/><path d="M2603.28 702.7h-2.95v-1.53h2.95z" stroke="#000098" stroke-width=".05" fill="#000098"/><path d="M2601.8 879.15l-4.63-14.27h9.27z" stroke="#000098" stroke-width="3" fill="#000098"/><defs><path fill="#0808f9" d="M310-401c-73-1-120 52-120 126v219c0 43-21 64-63 64-40 0-62-23-62-64v-378c0-40 22-63 61-63 67-4 64 65 61 131l-11-25c25-65 89-107 174-108 125 0 173 75 173 201v242c0 41-22 64-62 64s-63-23-63-64v-236c0-71-22-108-88-109" id="G"/><path fill="#0808f9" d="M376-104C360-34 310 9 226 10 123 7 43-45 43-145c0-156 171-141 338-145v72c-97 6-209-18-216 67 0 47 37 76 87 75 71-3 114-49 114-120v-115c14-127-153-103-229-63-63 33-90-68-29-90 51-19 104-34 166-35 140 0 212 63 211 203v240c0 40-19 64-58 64-58 2-63-52-59-112h8" id="H"/><path fill="#0808f9" d="M297-401c-70 0-105 55-105 130v215c0 43-21 64-63 64-40 0-62-23-62-64v-378c0-40 22-63 61-63 69-4 63 69 61 136l-11-30c24-62 80-108 162-108 85 1 132 42 150 114h-14c23-65 87-114 172-114 121 0 165 77 165 201v242c0 41-23 64-63 64s-62-23-62-64v-237c-1-69-16-107-81-108-70 0-105 55-105 130v215c0 41-22 64-62 64s-63-23-63-64v-237c-1-68-16-107-80-108" id="I"/><path fill="#0808f9" d="M156-255c-6 133 79 185 210 163 40-7 87-54 124-21 24 25 7 69-19 80C432-7 366 9 306 10 140 7 38-80 38-244c0-154 93-255 245-255 149 0 222 95 225 246 0 26-20 37-48 37H139v-72h281l-16 15c-1-85-34-139-116-141-91 2-128 66-132 159" id="J"/><g id="a"><use transform="matrix(0.031111111111111103,0,0,0.031111111111111103,0,0)" xlink:href="#G"/><use transform="matrix(0.031111111111111103,0,0,0.031111111111111103,18.199999999999996,0)" xlink:href="#H"/><use transform="matrix(0.031111111111111103,0,0,0.031111111111111103,35.21777777777777,0)" xlink:href="#I"/><use transform="matrix(0.031111111111111103,0,0,0.031111111111111103,62.50222222222221,0)" xlink:href="#J"/></g><path fill="#0808f9" d="M539-49c1 159-87 239-246 239-75 0-143-19-196-41-56-24-20-121 35-89 45 24 94 33 151 35 88 0 134-42 134-129v-90h9C409-59 337-11 256-12 114-16 38-111 38-256c0-146 74-237 218-243 82-1 152 46 169 111l-10 25c-3-67-7-138 62-134 40 0 62 22 62 63v385zM164-256c-2 85 45 149 126 149 86-2 124-61 126-149 2-86-45-148-126-148-85 3-125 60-126 148" id="K"/><g id="b"><use transform="matrix(0.031111111111111103,0,0,0.031111111111111103,0,0)" xlink:href="#H"/><use transform="matrix(0.031111111111111103,0,0,0.031111111111111103,17.017777777777773,0)" xlink:href="#K"/><use transform="matrix(0.031111111111111103,0,0,0.031111111111111103,35.80888888888888,0)" xlink:href="#J"/></g><path fill="#0808f9" d="M124-5C98 24 27 6 28-32c-2-12 0-27 7-42l264-585c14-45 69-70 115-41 12 8 23 22 32 41L711-74c38 62-39 106-89 68-42-51-62-130-93-192l54 35H161l54-35c-30 62-48 145-91 193zm247-561L231-233l-26-32h334l-25 32c-48-111-93-225-143-333" id="L"/><path fill="#0808f9" d="M318-49c3 52-36 60-86 59C117 10 65-59 65-177v-473c0-41 22-63 62-63s63 22 63 63v467c-2 68 36 99 104 88 25-1 22 15 24 46" id="M"/><path fill="#0808f9" d="M190-61c0 42-21 68-63 68-41 0-62-27-62-68v-367c0-42 21-68 62-68s63 26 63 68v367zm11-594c0 43-29 67-74 66-44 1-74-23-74-66 0-44 29-66 74-66 46 0 74 22 74 66" id="N"/><path fill="#0808f9" d="M166-246c-8 131 115 199 225 134 54-34 91 55 40 84-37 23-87 37-140 38C131 7 40-87 38-247c-2-185 134-279 324-243 48 8 129 47 84 108-44 38-86-24-144-20-94 7-130 60-136 156" id="O"/><g id="c"><use transform="matrix(0.022222222222222223,0,0,0.022222222222222223,0,0)" xlink:href="#L"/><use transform="matrix(0.022222222222222223,0,0,0.022222222222222223,16.533333333333335,0)" xlink:href="#M"/><use transform="matrix(0.022222222222222223,0,0,0.022222222222222223,23.622222222222224,0)" xlink:href="#N"/><use transform="matrix(0.022222222222222223,0,0,0.022222222222222223,29.28888888888889,0)" xlink:href="#O"/><use transform="matrix(0.022222222222222223,0,0,0.022222222222222223,39.55555555555556,0)" xlink:href="#J"/></g><path fill="#0808f9" d="M553-54c0 34-21 54-55 54H156c-34 0-55-21-55-54-3-76 100-46 167-52v-491h62l-147 89c-61 41-114-58-51-93 60-33 115-73 178-103 39-18 86-8 86 40v558c65 5 161-21 157 52" id="P"/><path fill="#0808f9" d="M562-223C565-35 388 44 198-4 151-18 92-34 72-76c-22-48 29-94 76-65 45 25 91 42 156 43 81-1 129-41 134-120 9-131-171-162-248-78-24 32-104 34-104-26v-327c0-36 20-56 56-56h329c35 0 56 18 56 53 0 34-21 53-56 53H211v224h-33c31-44 91-73 163-73 138 4 219 87 221 225" id="Q"/><g id="d"><use transform="matrix(0.022222222222222223,0,0,0.022222222222222223,0,0)" xlink:href="#P"/><use transform="matrix(0.022222222222222223,0,0,0.022222222222222223,13.333333333333334,0)" xlink:href="#Q"/></g><path fill="#0808f9" d="M636-197C636-64 536 0 396 0H145c-44 0-68-24-68-68v-569c0-44 24-68 68-68h240c135 1 229 53 233 183 0 91-60 150-138 167v-15c92 13 156 72 156 173zm-124-6c0-144-181-98-312-106v212c131-7 312 37 312-106zm-18-304c0-132-169-96-294-101v202c125-5 294 31 294-101" id="R"/><path fill="#0808f9" d="M538-245c0 161-90 255-250 255C130 10 38-86 38-245c0-160 90-254 250-254 158 0 250 95 250 254zm-374 0c-2 94 40 160 124 160 88 0 123-67 124-160 2-95-40-159-124-159-88 0-124 66-124 159" id="S"/><path fill="#0808f9" d="M562-245C562-96 491 5 347 10c-83 1-153-48-170-114l11-25c2 67 8 141-61 137-40 0-62-23-62-64v-594c0-41 22-63 62-63s63 22 63 63v260h-12c19-63 87-110 169-109 144 5 215 105 215 254zm-374 0c-2 94 40 160 124 160 88 0 123-67 124-160 2-95-40-159-124-159-88 0-124 66-124 159" id="T"/><g id="e"><use transform="matrix(0.022222222222222223,0,0,0.022222222222222223,0,0)" xlink:href="#R"/><use transform="matrix(0.022222222222222223,0,0,0.022222222222222223,15.28888888888889,0)" xlink:href="#S"/><use transform="matrix(0.022222222222222223,0,0,0.022222222222222223,28.08888888888889,0)" xlink:href="#T"/></g><path fill="#0808f9" d="M490-705c72-6 65 79 39 128L245-34c-12 49-119 61-129 2-2-12 1-27 9-42l302-568v44H103c-35 0-56-19-56-53 0-35 21-54 56-54h387" id="U"/><path fill="#0808f9" d="M556-54c0 35-20 54-55 54H133C78 6 59-48 81-90c6-11 15-22 26-34l201-214c48-53 81-89 86-167 7-129-186-119-260-60-58 44-110-54-51-91 52-33 124-58 204-59 142 1 234 59 234 197 0 119-61 182-126 250L207-72v-34h294c35 0 55 17 55 52" id="V"/><g id="f"><use transform="matrix(0.022222222222222223,0,0,0.022222222222222223,0,0)" xlink:href="#U"/><use transform="matrix(0.022222222222222223,0,0,0.022222222222222223,13.333333333333334,0)" xlink:href="#V"/></g><path fill="#0808f9" d="M190-353c-4 180 111 280 294 239 49-11 129-80 155 0 7 74-66 86-121 108-37 10-75 16-113 16C179 6 57-127 54-353c-4-263 190-411 459-348 57 13 132 32 124 107-4 38-53 58-88 31-36-24-84-37-140-38-151 2-216 94-219 248" id="W"/><path fill="#0808f9" d="M192-56c0 41-22 64-63 64S65-15 65-56v-378c0-40 22-63 61-63 65-4 64 61 61 126h-10c19-80 74-117 164-128 47-6 61 59 37 89-12 15-37 19-63 21-77 6-122 45-123 126v207" id="X"/><g id="g"><use transform="matrix(0.022222222222222223,0,0,0.022222222222222223,0,0)" xlink:href="#W"/><use transform="matrix(0.022222222222222223,0,0,0.022222222222222223,14.711111111111112,0)" xlink:href="#H"/><use transform="matrix(0.022222222222222223,0,0,0.022222222222222223,26.866666666666667,0)" xlink:href="#X"/><use transform="matrix(0.022222222222222223,0,0,0.022222222222222223,35.400000000000006,0)" xlink:href="#S"/><use transform="matrix(0.022222222222222223,0,0,0.022222222222222223,48.2,0)" xlink:href="#M"/><use transform="matrix(0.022222222222222223,0,0,0.022222222222222223,55.17777777777778,0)" xlink:href="#J"/></g><path fill="#0808f9" d="M541-193C541-14 352 38 174-4 123-19 66-34 46-76c-23-49 32-91 79-63 81 53 292 76 292-65 0-96-93-103-195-99-36 1-57-19-57-53-3-55 53-53 109-53 73 0 120-33 122-104 4-123-187-107-260-54-60 43-110-55-50-91 53-32 121-56 202-57 135 2 232 56 232 187 0 93-54 149-131 169v-12c90 13 152 79 152 178" id="Y"/><use transform="matrix(0.022222222222222223,0,0,0.022222222222222223,0,0)" xlink:href="#Y" id="h"/><path fill="#ff4f00" d="M190-61c0 42-21 68-63 68-41 0-62-27-62-68v-367c0-42 21-68 62-68s63 26 63 68v367zm11-594c0 43-29 67-74 66-44 1-74-23-74-66 0-44 29-66 74-66 46 0 74 22 74 66" id="Z"/><path fill="#ff4f00" d="M310-401c-73-1-120 52-120 126v219c0 43-21 64-63 64-40 0-62-23-62-64v-378c0-40 22-63 61-63 67-4 64 65 61 131l-11-25c25-65 89-107 174-108 125 0 173 75 173 201v242c0 41-22 64-62 64s-63-23-63-64v-236c0-71-22-108-88-109" id="aa"/><path fill="#ff4f00" d="M190 125c0 41-23 63-63 63s-62-22-62-63v-559c0-40 22-63 61-63 72-5 63 73 62 141l-11-30c18-65 87-114 170-113 143 6 215 105 215 254S492 5 347 10c-82 1-150-47-169-110h12v225zm-2-370c-2 94 40 160 124 160 88 0 123-67 124-160 2-95-40-159-124-159-88 0-124 66-124 159" id="ab"/><path fill="#ff4f00" d="M406-102C381-36 327 9 242 10 115 10 62-64 62-192v-242c0-42 21-63 62-63s63 21 63 63v244c0 67 23 101 88 102 68 1 114-55 114-126v-220c0-42 21-63 62-63s63 21 63 63v378c0 43-20 64-61 64-70 4-62-72-61-140" id="ac"/><path fill="#ff4f00" d="M390-58c0 61-48 65-101 68C161 10 95-54 95-182v-213c-51 2-102 4-102-47 0-52 51-49 102-47 0-72-15-154 63-154 77 0 61 83 62 154 62 6 156-23 156 47 0 69-94 41-156 47v206c1 64 25 96 89 96 40-3 81-24 81 35" id="ad"/><path fill="#ff4f00" d="M488 38c0 21-17 38-39 37H52c-22 1-41-16-40-37C11 17 30-1 52 0h397c22-1 39 17 39 38" id="ae"/><path fill="#ff4f00" d="M376-104C360-34 310 9 226 10 123 7 43-45 43-145c0-156 171-141 338-145v72c-97 6-209-18-216 67 0 47 37 76 87 75 71-3 114-49 114-120v-115c14-127-153-103-229-63-63 33-90-68-29-90 51-19 104-34 166-35 140 0 212 63 211 203v240c0 40-19 64-58 64-58 2-63-52-59-112h8" id="af"/><path fill="#ff4f00" d="M562-245C562-96 491 5 347 10c-83 1-153-48-170-114l11-25c2 67 8 141-61 137-40 0-62-23-62-64v-594c0-41 22-63 62-63s63 22 63 63v260h-12c19-63 87-110 169-109 144 5 215 105 215 254zm-374 0c-2 94 40 160 124 160 88 0 123-67 124-160 2-95-40-159-124-159-88 0-124 66-124 159" id="ag"/><path fill="#ff4f00" d="M318-49c3 52-36 60-86 59C117 10 65-59 65-177v-473c0-41 22-63 62-63s63 22 63 63v467c-2 68 36 99 104 88 25-1 22 15 24 46" id="ah"/><path fill="#ff4f00" d="M156-255c-6 133 79 185 210 163 40-7 87-54 124-21 24 25 7 69-19 80C432-7 366 9 306 10 140 7 38-80 38-244c0-154 93-255 245-255 149 0 222 95 225 246 0 26-20 37-48 37H139v-72h281l-16 15c-1-85-34-139-116-141-91 2-128 66-132 159" id="ai"/><g id="i"><use transform="matrix(0.022222222222222223,0,0,0.022222222222222223,0,0)" xlink:href="#Z"/><use transform="matrix(0.022222222222222223,0,0,0.022222222222222223,5.666666666666667,0)" xlink:href="#aa"/><use transform="matrix(0.022222222222222223,0,0,0.022222222222222223,18.666666666666668,0)" xlink:href="#ab"/><use transform="matrix(0.022222222222222223,0,0,0.022222222222222223,32,0)" xlink:href="#ac"/><use transform="matrix(0.022222222222222223,0,0,0.022222222222222223,44.86666666666667,0)" xlink:href="#ad"/><use transform="matrix(0.022222222222222223,0,0,0.022222222222222223,53.800000000000004,0)" xlink:href="#ae"/><use transform="matrix(0.022222222222222223,0,0,0.022222222222222223,64.24444444444444,0)" xlink:href="#ad"/><use transform="matrix(0.022222222222222223,0,0,0.022222222222222223,72.77777777777777,0)" xlink:href="#af"/><use transform="matrix(0.022222222222222223,0,0,0.022222222222222223,84.93333333333332,0)" xlink:href="#ag"/><use transform="matrix(0.022222222222222223,0,0,0.022222222222222223,98.26666666666665,0)" xlink:href="#ah"/><use transform="matrix(0.022222222222222223,0,0,0.022222222222222223,105.24444444444443,0)" xlink:href="#ai"/></g><path fill="#ff4f00" d="M358-442c0 63-77 44-135 47v339c0 43-21 64-62 64-40 0-63-23-63-64v-339c-50 3-96 2-96-47 0-63 75-44 132-47l-36 33c-12-173 75-238 236-252 60-5 68 89 12 92-93 4-132 42-123 143l-16-16c61 5 151-22 151 47" id="aj"/><path fill="#ff4f00" d="M192-56c0 41-22 64-63 64S65-15 65-56v-378c0-40 22-63 61-63 65-4 64 61 61 126h-10c19-80 74-117 164-128 47-6 61 59 37 89-12 15-37 19-63 21-77 6-122 45-123 126v207" id="ak"/><path fill="#ff4f00" d="M422-104C404-38 336 11 253 10 109 5 38-96 38-245s72-248 215-254c82-1 149 46 168 109h-11v-260c0-41 22-63 62-63s63 22 63 63v594c0 41-22 64-62 64-72 5-63-73-62-142zM164-245c-2 94 40 160 124 160 88 0 123-67 124-160 2-95-40-159-124-159-88 0-124 66-124 159" id="al"/><g id="j"><use transform="matrix(0.022222222222222223,0,0,0.022222222222222223,0,0)" xlink:href="#aj"/><use transform="matrix(0.022222222222222223,0,0,0.022222222222222223,8.088888888888889,0)" xlink:href="#Z"/><use transform="matrix(0.022222222222222223,0,0,0.022222222222222223,13.755555555555556,0)" xlink:href="#ah"/><use transform="matrix(0.022222222222222223,0,0,0.022222222222222223,20.555555555555557,0)" xlink:href="#ad"/><use transform="matrix(0.022222222222222223,0,0,0.022222222222222223,28.977777777777778,0)" xlink:href="#ai"/><use transform="matrix(0.022222222222222223,0,0,0.022222222222222223,41.022222222222226,0)" xlink:href="#ak"/><use transform="matrix(0.022222222222222223,0,0,0.022222222222222223,49.55555555555556,0)" xlink:href="#ai"/><use transform="matrix(0.022222222222222223,0,0,0.022222222222222223,61.6,0)" xlink:href="#al"/><use transform="matrix(0.022222222222222223,0,0,0.022222222222222223,74.93333333333334,0)" xlink:href="#ae"/><use transform="matrix(0.022222222222222223,0,0,0.022222222222222223,85.37777777777778,0)" xlink:href="#ad"/><use transform="matrix(0.022222222222222223,0,0,0.022222222222222223,93.91111111111111,0)" xlink:href="#af"/><use transform="matrix(0.022222222222222223,0,0,0.022222222222222223,106.06666666666668,0)" xlink:href="#ag"/><use transform="matrix(0.022222222222222223,0,0,0.022222222222222223,119.39999999999998,0)" xlink:href="#ah"/><use transform="matrix(0.022222222222222223,0,0,0.022222222222222223,126.37777777777777,0)" xlink:href="#ai"/></g><path fill="#0808f9" d="M453-146C459 25 198 37 67-30c-50-26-21-113 34-82 44 25 86 29 144 34 69 5 121-47 79-96-66-38-195-24-240-82-22-22-33-52-33-87-3-166 239-184 365-117 49 26 9 113-42 79-54-36-210-56-210 32 0 69 100 59 157 73 75 19 130 48 132 130" id="am"/><path fill="#0808f9" d="M406-102C381-36 327 9 242 10 115 10 62-64 62-192v-242c0-42 21-63 62-63s63 21 63 63v244c0 67 23 101 88 102 68 1 114-55 114-126v-220c0-42 21-63 62-63s63 21 63 63v378c0 43-20 64-61 64-70 4-62-72-61-140" id="an"/><path fill="#0808f9" d="M488 38c0 21-17 38-39 37H52c-22 1-41-16-40-37C11 17 30-1 52 0h397c22-1 39 17 39 38" id="ao"/><g id="k"><use transform="matrix(0.031111111111111103,0,0,0.031111111111111103,0,0)" xlink:href="#am"/><use transform="matrix(0.031111111111111103,0,0,0.031111111111111103,15.182222222222219,0)" xlink:href="#an"/><use transform="matrix(0.031111111111111103,0,0,0.031111111111111103,33.19555555555554,0)" xlink:href="#I"/><use transform="matrix(0.031111111111111103,0,0,0.031111111111111103,60.47999999999998,0)" xlink:href="#ao"/><use transform="matrix(0.031111111111111103,0,0,0.031111111111111103,75.9422222222222,0)" xlink:href="#H"/><use transform="matrix(0.031111111111111103,0,0,0.031111111111111103,92.95999999999998,0)" xlink:href="#K"/><use transform="matrix(0.031111111111111103,0,0,0.031111111111111103,111.75111111111109,0)" xlink:href="#J"/></g><path fill="#0808f9" d="M548-365c0 221-88 368-303 375-68-1-128-26-175-54-38-22-24-98 18-98 57 0 92 46 159 44 160-5 187-145 179-318h12c-15 97-79 163-188 163-131 0-209-93-209-226 0-144 90-236 233-236 197 0 274 146 274 350zM161-485c0 77 44 130 121 130s119-52 121-130c-1-78-44-129-121-129s-121 51-121 129" id="ap"/><path fill="#0808f9" d="M557-355c-3 205-62 365-257 365C113 10 42-148 43-354c2-205 62-361 257-361 189 0 258 152 257 360zM200-158c43 81 158 81 200 0 37-71 38-322 0-392-42-77-158-78-200 0-38 70-37 321 0 392" id="aq"/><g id="l"><use transform="matrix(0.022222222222222223,0,0,0.022222222222222223,0,0)" xlink:href="#ap"/><use transform="matrix(0.022222222222222223,0,0,0.022222222222222223,13.333333333333334,0)" xlink:href="#aq"/></g><path fill="#ff4f00" d="M453-146C459 25 198 37 67-30c-50-26-21-113 34-82 44 25 86 29 144 34 69 5 121-47 79-96-66-38-195-24-240-82-22-22-33-52-33-87-3-166 239-184 365-117 49 26 9 113-42 79-54-36-210-56-210 32 0 69 100 59 157 73 75 19 130 48 132 130" id="ar"/><g id="m"><use transform="matrix(0.022222222222222223,0,0,0.022222222222222223,0,0)" xlink:href="#ak"/><use transform="matrix(0.022222222222222223,0,0,0.022222222222222223,8.533333333333335,0)" xlink:href="#ai"/><use transform="matrix(0.022222222222222223,0,0,0.022222222222222223,20.57777777777778,0)" xlink:href="#ar"/><use transform="matrix(0.022222222222222223,0,0,0.022222222222222223,31.422222222222224,0)" xlink:href="#ac"/><use transform="matrix(0.022222222222222223,0,0,0.022222222222222223,44.28888888888889,0)" xlink:href="#ah"/><use transform="matrix(0.022222222222222223,0,0,0.022222222222222223,51.08888888888889,0)" xlink:href="#ad"/><use transform="matrix(0.022222222222222223,0,0,0.022222222222222223,60.02222222222221,0)" xlink:href="#ae"/><use transform="matrix(0.022222222222222223,0,0,0.022222222222222223,70.46666666666667,0)" xlink:href="#ad"/><use transform="matrix(0.022222222222222223,0,0,0.022222222222222223,79,0)" xlink:href="#af"/><use transform="matrix(0.022222222222222223,0,0,0.022222222222222223,91.15555555555557,0)" xlink:href="#ag"/><use transform="matrix(0.022222222222222223,0,0,0.022222222222222223,104.48888888888887,0)" xlink:href="#ah"/><use transform="matrix(0.022222222222222223,0,0,0.022222222222222223,111.46666666666665,0)" xlink:href="#ai"/></g><g id="n"><use transform="matrix(0.022222222222222223,0,0,0.022222222222222223,0,0)" xlink:href="#aj"/><use transform="matrix(0.022222222222222223,0,0,0.022222222222222223,8.088888888888889,0)" xlink:href="#Z"/><use transform="matrix(0.022222222222222223,0,0,0.022222222222222223,13.755555555555556,0)" xlink:href="#ah"/><use transform="matrix(0.022222222222222223,0,0,0.022222222222222223,20.555555555555557,0)" xlink:href="#ad"/><use transform="matrix(0.022222222222222223,0,0,0.022222222222222223,28.977777777777778,0)" xlink:href="#ai"/><use transform="matrix(0.022222222222222223,0,0,0.022222222222222223,41.022222222222226,0)" xlink:href="#ak"/></g><path fill="#ff4f00" d="M166-246c-8 131 115 199 225 134 54-34 91 55 40 84-37 23-87 37-140 38C131 7 40-87 38-247c-2-185 134-279 324-243 48 8 129 47 84 108-44 38-86-24-144-20-94 7-130 60-136 156" id="as"/><path fill="#ff4f00" d="M88 29C82 74 6 76-6 34c-4-10-4-21 0-34l231-717c7-45 82-47 95-6 4 9 3 21-1 34" id="at"/><path fill="#ff4f00" d="M297-401c-70 0-105 55-105 130v215c0 43-21 64-63 64-40 0-62-23-62-64v-378c0-40 22-63 61-63 69-4 63 69 61 136l-11-30c24-62 80-108 162-108 85 1 132 42 150 114h-14c23-65 87-114 172-114 121 0 165 77 165 201v242c0 41-23 64-63 64s-62-23-62-64v-237c-1-69-16-107-81-108-70 0-105 55-105 130v215c0 41-22 64-62 64s-63-23-63-64v-237c-1-68-16-107-80-108" id="au"/><g id="o"><use transform="matrix(0.022222222222222223,0,0,0.022222222222222223,0,0)" xlink:href="#ak"/><use transform="matrix(0.022222222222222223,0,0,0.022222222222222223,8.533333333333335,0)" xlink:href="#ai"/><use transform="matrix(0.022222222222222223,0,0,0.022222222222222223,20.57777777777778,0)" xlink:href="#al"/><use transform="matrix(0.022222222222222223,0,0,0.022222222222222223,33.91111111111111,0)" xlink:href="#ac"/><use transform="matrix(0.022222222222222223,0,0,0.022222222222222223,46.77777777777778,0)" xlink:href="#as"/><use transform="matrix(0.022222222222222223,0,0,0.022222222222222223,57.044444444444444,0)" xlink:href="#ai"/><use transform="matrix(0.022222222222222223,0,0,0.022222222222222223,69.28888888888889,0)" xlink:href="#at"/><use transform="matrix(0.022222222222222223,0,0,0.022222222222222223,74.91111111111113,0)" xlink:href="#ar"/><use transform="matrix(0.022222222222222223,0,0,0.022222222222222223,85.75555555555557,0)" xlink:href="#ac"/><use transform="matrix(0.022222222222222223,0,0,0.022222222222222223,98.62222222222222,0)" xlink:href="#au"/></g><path fill="#ff4f00" d="M554-51c0 33-19 51-52 51H145c-44 0-68-24-68-68v-569c0-44 24-68 68-68h357c33 0 52 18 52 50 0 33-19 52-52 52H200v194h280c34 0 52 17 52 51s-18 51-52 51H200v205h302c33 0 52 18 52 51" id="av"/><path fill="#ff4f00" d="M337-45c-9 42-70 71-117 40-12-9-23-22-31-40L30-414c-33-61 38-104 91-72 9 7 18 20 25 39l135 337h-30l139-338c5-57 106-69 116-8 2 12 0 26-7 41" id="aw"/><g id="p"><use transform="matrix(0.022222222222222223,0,0,0.022222222222222223,0,0)" xlink:href="#av"/><use transform="matrix(0.022222222222222223,0,0,0.022222222222222223,13.088888888888889,0)" xlink:href="#aw"/><use transform="matrix(0.022222222222222223,0,0,0.022222222222222223,24.577777777777783,0)" xlink:href="#ai"/><use transform="matrix(0.022222222222222223,0,0,0.022222222222222223,36.62222222222223,0)" xlink:href="#aa"/><use transform="matrix(0.022222222222222223,0,0,0.022222222222222223,49.62222222222223,0)" xlink:href="#ad"/></g><g id="q"><use transform="matrix(0.022222222222222223,0,0,0.022222222222222223,0,0)" xlink:href="#ar"/><use transform="matrix(0.022222222222222223,0,0,0.022222222222222223,10.733333333333334,0)" xlink:href="#ad"/><use transform="matrix(0.022222222222222223,0,0,0.022222222222222223,19.266666666666666,0)" xlink:href="#ak"/><use transform="matrix(0.022222222222222223,0,0,0.022222222222222223,27.8,0)" xlink:href="#ai"/><use transform="matrix(0.022222222222222223,0,0,0.022222222222222223,39.84444444444445,0)" xlink:href="#af"/><use transform="matrix(0.022222222222222223,0,0,0.022222222222222223,52.000000000000014,0)" xlink:href="#au"/></g><path fill="#ff4f00" d="M539-49c1 159-87 239-246 239-75 0-143-19-196-41-56-24-20-121 35-89 45 24 94 33 151 35 88 0 134-42 134-129v-90h9C409-59 337-11 256-12 114-16 38-111 38-256c0-146 74-237 218-243 82-1 152 46 169 111l-10 25c-3-67-7-138 62-134 40 0 62 22 62 63v385zM164-256c-2 85 45 149 126 149 86-2 124-61 126-149 2-86-45-148-126-148-85 3-125 60-126 148" id="ax"/><g id="r"><use transform="matrix(0.022222222222222223,0,0,0.022222222222222223,0,0)" xlink:href="#ad"/><use transform="matrix(0.022222222222222223,0,0,0.022222222222222223,8.533333333333333,0)" xlink:href="#ak"/><use transform="matrix(0.022222222222222223,0,0,0.022222222222222223,17.244444444444447,0)" xlink:href="#Z"/><use transform="matrix(0.022222222222222223,0,0,0.022222222222222223,22.91111111111112,0)" xlink:href="#ax"/><use transform="matrix(0.022222222222222223,0,0,0.022222222222222223,36.333333333333336,0)" xlink:href="#ax"/><use transform="matrix(0.022222222222222223,0,0,0.022222222222222223,49.75555555555556,0)" xlink:href="#ai"/><use transform="matrix(0.022222222222222223,0,0,0.022222222222222223,61.800000000000004,0)" xlink:href="#ak"/><use transform="matrix(0.022222222222222223,0,0,0.022222222222222223,70.33333333333334,0)" xlink:href="#ai"/><use transform="matrix(0.022222222222222223,0,0,0.022222222222222223,82.3777777777778,0)" xlink:href="#al"/></g><path fill="#ff4f00" d="M228 178c-51 31-113-10-85-72l68-151V7L29-414c-32-61 39-104 92-72 9 7 18 20 25 39l135 337h-30l138-338c6-57 107-69 117-8 2 12 0 26-7 41L256 140c-9 19-18 31-28 38" id="ay"/><g id="s"><use transform="matrix(0.022222222222222223,0,0,0.022222222222222223,0,0)" xlink:href="#ag"/><use transform="matrix(0.022222222222222223,0,0,0.022222222222222223,13.111111111111112,0)" xlink:href="#ay"/></g><g id="t"><use transform="matrix(0.022222222222222223,0,0,0.022222222222222223,0,0)" xlink:href="#ak"/><use transform="matrix(0.022222222222222223,0,0,0.022222222222222223,8.711111111111112,0)" xlink:href="#ac"/><use transform="matrix(0.022222222222222223,0,0,0.022222222222222223,21.57777777777778,0)" xlink:href="#aa"/></g><path fill="#0808f9" d="M199-70c0 44-29 76-74 75-44 1-76-31-75-75-1-43 31-74 75-73 45-1 74 30 74 73zm0-350c0 43-29 75-74 74-44 1-76-31-75-74-1-44 31-75 75-74 45-1 74 30 74 74" id="az"/><path fill="#0808f9" d="M124-143c91-4 87 128 54 193-16 26-43 94-90 70-37-35 29-75 28-104 5-17 7-32 7-45l5 34C83 6 49-25 50-70c0-43 30-74 74-73" id="aA"/><g id="u"><use transform="matrix(0.02222222222222222,0,0,0.02222222222222222,0,0)" xlink:href="#G"/><use transform="matrix(0.02222222222222222,0,0,0.02222222222222222,12.999999999999998,0)" xlink:href="#H"/><use transform="matrix(0.02222222222222222,0,0,0.02222222222222222,25.15555555555555,0)" xlink:href="#I"/><use transform="matrix(0.02222222222222222,0,0,0.02222222222222222,44.64444444444444,0)" xlink:href="#J"/><use transform="matrix(0.02222222222222222,0,0,0.02222222222222222,56.68888888888888,0)" xlink:href="#az"/><use transform="matrix(0.02222222222222222,0,0,0.02222222222222222,62.199999999999996,0)" xlink:href="#L"/><use transform="matrix(0.02222222222222222,0,0,0.02222222222222222,78.73333333333332,0)" xlink:href="#M"/><use transform="matrix(0.02222222222222222,0,0,0.02222222222222222,85.82222222222221,0)" xlink:href="#N"/><use transform="matrix(0.02222222222222222,0,0,0.02222222222222222,91.48888888888888,0)" xlink:href="#O"/><use transform="matrix(0.02222222222222222,0,0,0.02222222222222222,101.75555555555552,0)" xlink:href="#J"/><use transform="matrix(0.02222222222222222,0,0,0.02222222222222222,113.79999999999997,0)" xlink:href="#aA"/></g><g id="v"><use transform="matrix(0.02222222222222222,0,0,0.02222222222222222,0,0)" xlink:href="#H"/><use transform="matrix(0.02222222222222222,0,0,0.02222222222222222,12.155555555555555,0)" xlink:href="#K"/><use transform="matrix(0.02222222222222222,0,0,0.02222222222222222,25.577777777777776,0)" xlink:href="#J"/><use transform="matrix(0.02222222222222222,0,0,0.02222222222222222,37.62222222222222,0)" xlink:href="#az"/><use transform="matrix(0.02222222222222222,0,0,0.02222222222222222,43.13333333333333,0)" xlink:href="#P"/><use transform="matrix(0.02222222222222222,0,0,0.02222222222222222,56.46666666666667,0)" xlink:href="#Q"/></g><path fill="#ff4f00" d="M205-58c0 41-22 66-64 66-41 0-64-25-64-66v-589c0-42 22-66 64-66s64 24 64 66v589" id="aB"/><g id="w"><use transform="matrix(0.022222222222222223,0,0,0.022222222222222223,0,0)" xlink:href="#aB"/><use transform="matrix(0.022222222222222223,0,0,0.022222222222222223,6.266666666666667,0)" xlink:href="#aa"/><use transform="matrix(0.022222222222222223,0,0,0.022222222222222223,19.266666666666666,0)" xlink:href="#ab"/><use transform="matrix(0.022222222222222223,0,0,0.022222222222222223,32.6,0)" xlink:href="#ac"/><use transform="matrix(0.022222222222222223,0,0,0.022222222222222223,45.46666666666667,0)" xlink:href="#ad"/></g><g id="x"><use transform="matrix(0.022222222222222223,0,0,0.022222222222222223,0,0)" xlink:href="#av"/><use transform="matrix(0.022222222222222223,0,0,0.022222222222222223,13.088888888888889,0)" xlink:href="#aw"/><use transform="matrix(0.022222222222222223,0,0,0.022222222222222223,24.577777777777783,0)" xlink:href="#ai"/><use transform="matrix(0.022222222222222223,0,0,0.022222222222222223,36.62222222222223,0)" xlink:href="#aa"/><use transform="matrix(0.022222222222222223,0,0,0.022222222222222223,49.62222222222223,0)" xlink:href="#ad"/></g><path fill="#ff4f00" d="M598-202C604 37 248 47 79-50 39-73 40-151 89-157c11-2 22 1 35 9 80 56 347 94 347-45 0-96-139-89-223-111-110-29-188-72-188-193 0-187 202-251 389-203 46 12 101 29 119 71 21 49-32 91-77 61-83-54-304-68-304 66 0 99 132 92 215 114 112 29 191 66 196 186" id="aC"/><g id="y"><use transform="matrix(0.022222222222222223,0,0,0.022222222222222223,0,0)" xlink:href="#aC"/><use transform="matrix(0.022222222222222223,0,0,0.022222222222222223,13.911111111111111,0)" xlink:href="#ad"/><use transform="matrix(0.022222222222222223,0,0,0.022222222222222223,22.444444444444443,0)" xlink:href="#ak"/><use transform="matrix(0.022222222222222223,0,0,0.022222222222222223,30.977777777777778,0)" xlink:href="#ai"/><use transform="matrix(0.022222222222222223,0,0,0.022222222222222223,43.022222222222226,0)" xlink:href="#af"/><use transform="matrix(0.022222222222222223,0,0,0.022222222222222223,55.17777777777778,0)" xlink:href="#au"/></g><g id="z"><use transform="matrix(0.02222222222222222,0,0,0.02222222222222222,0,0)" xlink:href="#G"/><use transform="matrix(0.02222222222222222,0,0,0.02222222222222222,12.999999999999998,0)" xlink:href="#H"/><use transform="matrix(0.02222222222222222,0,0,0.02222222222222222,25.15555555555555,0)" xlink:href="#I"/><use transform="matrix(0.02222222222222222,0,0,0.02222222222222222,44.64444444444444,0)" xlink:href="#J"/><use transform="matrix(0.02222222222222222,0,0,0.02222222222222222,56.68888888888888,0)" xlink:href="#az"/><use transform="matrix(0.02222222222222222,0,0,0.02222222222222222,62.199999999999996,0)" xlink:href="#R"/><use transform="matrix(0.02222222222222222,0,0,0.02222222222222222,77.48888888888888,0)" xlink:href="#S"/><use transform="matrix(0.02222222222222222,0,0,0.02222222222222222,90.28888888888888,0)" xlink:href="#T"/><use transform="matrix(0.02222222222222222,0,0,0.02222222222222222,103.22222222222221,0)" xlink:href="#aA"/></g><g id="A"><use transform="matrix(0.02222222222222222,0,0,0.02222222222222222,0,0)" xlink:href="#H"/><use transform="matrix(0.02222222222222222,0,0,0.02222222222222222,12.155555555555555,0)" xlink:href="#K"/><use transform="matrix(0.02222222222222222,0,0,0.02222222222222222,25.577777777777776,0)" xlink:href="#J"/><use transform="matrix(0.02222222222222222,0,0,0.02222222222222222,37.62222222222222,0)" xlink:href="#az"/><use transform="matrix(0.02222222222222222,0,0,0.02222222222222222,43.13333333333333,0)" xlink:href="#U"/><use transform="matrix(0.02222222222222222,0,0,0.02222222222222222,56.46666666666667,0)" xlink:href="#V"/></g><g id="B"><use transform="matrix(0.02222222222222222,0,0,0.02222222222222222,0,0)" xlink:href="#G"/><use transform="matrix(0.02222222222222222,0,0,0.02222222222222222,12.999999999999998,0)" xlink:href="#H"/><use transform="matrix(0.02222222222222222,0,0,0.02222222222222222,25.15555555555555,0)" xlink:href="#I"/><use transform="matrix(0.02222222222222222,0,0,0.02222222222222222,44.64444444444444,0)" xlink:href="#J"/><use transform="matrix(0.02222222222222222,0,0,0.02222222222222222,56.68888888888888,0)" xlink:href="#az"/><use transform="matrix(0.02222222222222222,0,0,0.02222222222222222,62.199999999999996,0)" xlink:href="#W"/><use transform="matrix(0.02222222222222222,0,0,0.02222222222222222,76.91111111111111,0)" xlink:href="#H"/><use transform="matrix(0.02222222222222222,0,0,0.02222222222222222,89.06666666666666,0)" xlink:href="#X"/><use transform="matrix(0.02222222222222222,0,0,0.02222222222222222,97.6,0)" xlink:href="#S"/><use transform="matrix(0.02222222222222222,0,0,0.02222222222222222,110.39999999999999,0)" xlink:href="#M"/><use transform="matrix(0.02222222222222222,0,0,0.02222222222222222,117.37777777777777,0)" xlink:href="#J"/><use transform="matrix(0.02222222222222222,0,0,0.02222222222222222,129.42222222222222,0)" xlink:href="#aA"/></g><g id="C"><use transform="matrix(0.02222222222222222,0,0,0.02222222222222222,0,0)" xlink:href="#H"/><use transform="matrix(0.02222222222222222,0,0,0.02222222222222222,12.155555555555555,0)" xlink:href="#K"/><use transform="matrix(0.02222222222222222,0,0,0.02222222222222222,25.577777777777776,0)" xlink:href="#J"/><use transform="matrix(0.02222222222222222,0,0,0.02222222222222222,37.62222222222222,0)" xlink:href="#az"/><use transform="matrix(0.02222222222222222,0,0,0.02222222222222222,43.13333333333333,0)" xlink:href="#Y"/></g><g id="D"><use transform="matrix(0.02222222222222222,0,0,0.02222222222222222,0,0)" xlink:href="#am"/><use transform="matrix(0.02222222222222222,0,0,0.02222222222222222,10.844444444444443,0)" xlink:href="#an"/><use transform="matrix(0.02222222222222222,0,0,0.02222222222222222,23.71111111111111,0)" xlink:href="#I"/><use transform="matrix(0.02222222222222222,0,0,0.02222222222222222,43.199999999999996,0)" xlink:href="#ao"/><use transform="matrix(0.02222222222222222,0,0,0.02222222222222222,54.244444444444426,0)" xlink:href="#H"/><use transform="matrix(0.02222222222222222,0,0,0.02222222222222222,66.39999999999999,0)" xlink:href="#K"/><use transform="matrix(0.02222222222222222,0,0,0.02222222222222222,79.82222222222221,0)" xlink:href="#J"/><use transform="matrix(0.02222222222222222,0,0,0.02222222222222222,91.86666666666666,0)" xlink:href="#az"/><use transform="matrix(0.02222222222222222,0,0,0.02222222222222222,97.37777777777775,0)" xlink:href="#ap"/><use transform="matrix(0.02222222222222222,0,0,0.02222222222222222,110.71111111111108,0)" xlink:href="#aq"/><use transform="matrix(0.02222222222222222,0,0,0.02222222222222222,124.04444444444441,0)" xlink:href="#aA"/></g><path fill="#0808f9" d="M422-104C404-38 336 11 253 10 109 5 38-96 38-245s72-248 215-254c82-1 149 46 168 109h-11v-260c0-41 22-63 62-63s63 22 63 63v594c0 41-22 64-62 64-72 5-63-73-62-142zM164-245c-2 94 40 160 124 160 88 0 123-67 124-160 2-95-40-159-124-159-88 0-124 66-124 159" id="aD"/><path fill="#0808f9" d="M358-442c0 63-77 44-135 47v339c0 43-21 64-62 64-40 0-63-23-63-64v-339c-50 3-96 2-96-47 0-63 75-44 132-47l-36 33c-12-173 75-238 236-252 60-5 68 89 12 92-93 4-132 42-123 143l-16-16c61 5 151-22 151 47" id="aE"/><g id="E"><use transform="matrix(0.02222222222222222,0,0,0.02222222222222222,0,0)" xlink:href="#aD"/><use transform="matrix(0.02222222222222222,0,0,0.02222222222222222,13.333333333333332,0)" xlink:href="#N"/><use transform="matrix(0.02222222222222222,0,0,0.02222222222222222,19,0)" xlink:href="#aE"/><use transform="matrix(0.02222222222222222,0,0,0.02222222222222222,26.577777777777776,0)" xlink:href="#aE"/><use transform="matrix(0.02222222222222222,0,0,0.02222222222222222,34.77777777777777,0)" xlink:href="#az"/><use transform="matrix(0.02222222222222222,0,0,0.02222222222222222,40.288888888888884,0)" xlink:href="#P"/></g><path fill="#ff4f00" d="M732-354c0 223-117 364-339 364C176 10 54-133 54-353c0-223 118-362 339-362 218 0 339 141 339 361zm-544 1c-2 146 67 252 205 253 144-3 203-105 205-253s-65-252-205-252c-144 0-204 103-205 252" id="aF"/><g id="F"><use transform="matrix(0.022222222222222223,0,0,0.022222222222222223,0,0)" xlink:href="#aF"/><use transform="matrix(0.022222222222222223,0,0,0.022222222222222223,17.444444444444446,0)" xlink:href="#ac"/><use transform="matrix(0.022222222222222223,0,0,0.022222222222222223,30.311111111111114,0)" xlink:href="#ad"/><use transform="matrix(0.022222222222222223,0,0,0.022222222222222223,38.84444444444445,0)" xlink:href="#ab"/><use transform="matrix(0.022222222222222223,0,0,0.022222222222222223,52.17777777777778,0)" xlink:href="#ac"/><use transform="matrix(0.022222222222222223,0,0,0.022222222222222223,65.04444444444445,0)" xlink:href="#ad"/></g></defs></g></svg>