<svg xmlns="http://www.w3.org/2000/svg" xmlns:xlink="http://www.w3.org/1999/xlink" xmlns:lucid="lucid" width="1263" height="414.33"><g transform="translate(-298.5 -480.66666666666663)" lucid:page-tab-id="0_0"><path d="M0 500h2000v500H0z" fill="#fff"/><path d="M320 606a6 6 0 0 1 6-6h331.45a6 6 0 0 1 6 6v150.6a6 6 0 0 1-6 6H326a6 6 0 0 1-6-6z" stroke="#000098" stroke-width="3" fill-opacity="0"/><path d="M1020 626a6 6 0 0 1 6-6h231.6a6 6 0 0 1 6 6v43.67a6 6 0 0 1-6 6H1026a6 6 0 0 1-6-6z" stroke="#000098" stroke-width="3" fill="#fff"/><use xlink:href="#a" transform="matrix(1,0,0,1,1032,632) translate(10.7777777777778 24.46666666666666)"/><use xlink:href="#b" transform="matrix(1,0,0,1,1032,632) translate(146.35555555555553 24.46666666666666)"/><path d="M829.4 678.94a6 6 0 0 1 6-6h112a6 6 0 0 0 6-6v-8a2.3 2.3 0 0 1 4-1.55l27.98 31.08a6.67 6.67 0 0 1 0 8.9l-27.98 31.1a2.3 2.3 0 0 1-4-1.54v-8a6 6 0 0 0-6-6h-112a6 6 0 0 1-6-6z" stroke="#000098" stroke-width="3" fill="#fff"/><path d="M321.5 661.56h339.67" stroke="#000098" stroke-width="3" stroke-linecap="round" fill="none"/><path d="M378.78 606.5a6 6 0 0 1 6-6H592a6 6 0 0 1 6 6v40.44a6 6 0 0 1-6 6H384.78a6 6 0 0 1-6-6z" stroke="#000" stroke-opacity="0" fill="#fff" fill-opacity="0"/><use xlink:href="#c" transform="matrix(1,0,0,1,383.7827626918542,605.5) translate(40.69333333333334 34.14083333333332)"/><path d="M1265.9 626a6 6 0 0 1 6-6h108a6 6 0 0 1 6 6v48a6 6 0 0 1-6 6h-108a6 6 0 0 1-6-6z" stroke="#000" stroke-opacity="0" fill="#fff" fill-opacity="0"/><use xlink:href="#d" transform="matrix(1,0,0,1,1270.906666666667,625) translate(16.94444444444445 31.841666666666665)"/><use xlink:href="#e" transform="matrix(1,0,0,1,1270.906666666667,625) translate(75.1888888888889 31.841666666666665)"/><path d="M1265.9 732.83a6 6 0 0 1 6-6h108a6 6 0 0 1 6 6v48a6 6 0 0 1-6 6h-108a6 6 0 0 1-6-6z" stroke="#000" stroke-opacity="0" fill="#fff" fill-opacity="0"/><use xlink:href="#d" transform="matrix(1,0,0,1,1270.9066666666672,731.8333333333335) translate(16.94444444444445 31.841666666666665)"/><use xlink:href="#e" transform="matrix(1,0,0,1,1270.9066666666672,731.8333333333335) translate(75.1888888888889 31.841666666666665)"/><path d="M322.28 712.83h339.67" stroke="#000098" stroke-width="3" stroke-linecap="round" fill="none"/><path d="M378.78 670.33a6 6 0 0 1 6-6H592a6 6 0 0 1 6 6v35a6 6 0 0 1-6 6H384.78a6 6 0 0 1-6-6z" stroke="#000" stroke-opacity="0" stroke-width="3" fill="#fff" fill-opacity="0"/><use xlink:href="#f" transform="matrix(1,0,0,1,383.7827626918542,669.3333333333333) translate(91.66666666666667 24.779166666666665)"/><path d="M378.78 721.6a6 6 0 0 1 6-6H592a6 6 0 0 1 6 6v35a6 6 0 0 1-6 6H384.78a6 6 0 0 1-6-6z" stroke="#000" stroke-opacity="0" fill="#fff" fill-opacity="0"/><use xlink:href="#g" transform="matrix(1,0,0,1,383.7827626918542,720.6088235294118) translate(91.66666666666667 24.779166666666665)"/><path d="M370.12 766a6 6 0 0 1 6-6h228a6 6 0 0 1 6 6v88.93a6 6 0 0 1-6 6h-228a6 6 0 0 1-6-6z" stroke="#000" stroke-opacity="0" fill="#fff" fill-opacity="0"/><use xlink:href="#h" transform="matrix(1,0,0,1,375.1160960251871,765) translate(35.388888888888886 53.74791666666667)"/><use xlink:href="#i" transform="matrix(1,0,0,1,375.1160960251871,765) translate(97.98888888888888 53.74791666666667)"/><use xlink:href="#j" transform="matrix(1,0,0,1,375.1160960251871,765) translate(124.69999999999999 53.74791666666667)"/><use xlink:href="#k" transform="matrix(1,0,0,1,375.1160960251871,765) translate(176.74444444444444 53.74791666666667)"/><path d="M1020 726a6 6 0 0 1 6-6h231.6a6 6 0 0 1 6 6v43.67a6 6 0 0 1-6 6H1026a6 6 0 0 1-6-6z" stroke="#000098" stroke-width="3" fill="#fff"/><use xlink:href="#l" transform="matrix(1,0,0,1,1032,732) translate(15.400000000000034 24.46666666666666)"/><use xlink:href="#m" transform="matrix(1,0,0,1,1032,732) translate(150.97777777777776 24.46666666666666)"/><path d="M323.67 687.83h334.78" stroke="#ff4f00" stroke-width="2" stroke-linecap="round" fill="none"/><path d="M1400 508.17a6 6 0 0 1 6-6h128a6 6 0 0 1 6 6V867.5a6 6 0 0 1-6 6h-128a6 6 0 0 1-6-6z" fill="none"/><path d="M1400 873.5c5.52 0 10-4.48 10-10V697.83c0-5.52 4.48-10 10-10-5.52 0-10-4.47-10-10V512.17c0-5.53-4.48-10-10-10" stroke="#000098" stroke-width="3" fill="none"/><use xlink:href="#n" transform="matrix(1,0,0,1,1435,507.16666666666663) translate(0 158)"/><use xlink:href="#o" transform="matrix(1,0,0,1,1435,507.16666666666663) translate(0 188.3111111111111)"/><use xlink:href="#p" transform="matrix(1,0,0,1,1435,507.16666666666663) translate(0 218.62222222222223)"/><path d="M1143.3 617c0 .83-.67 1.5-1.5 1.5-.82 0-1.5-.67-1.5-1.5s.68-1.5 1.5-1.5c.83 0 1.5.67 1.5 1.5zm0-6.08c0 .83-.67 1.5-1.5 1.5-.82 0-1.5-.67-1.5-1.5s.68-1.5 1.5-1.5c.83 0 1.5.67 1.5 1.5zm0-6.08c0 .83-.67 1.5-1.5 1.5-.82 0-1.5-.67-1.5-1.5s.68-1.5 1.5-1.5c.83 0 1.5.67 1.5 1.5zm0-6.08c0 .83-.67 1.5-1.5 1.5-.82 0-1.5-.67-1.5-1.5s.68-1.5 1.5-1.5c.83 0 1.5.67 1.5 1.5zm0-6.08c0 .83-.67 1.5-1.5 1.5-.82 0-1.5-.67-1.5-1.5 0-.82.68-1.5 1.5-1.5.83 0 1.5.68 1.5 1.5zm0-6.07c0 .83-.67 1.5-1.5 1.5-.82 0-1.5-.67-1.5-1.5 0-.82.68-1.5 1.5-1.5.83 0 1.5.68 1.5 1.5zm0-6.07c0 .83-.67 1.5-1.5 1.5-.82 0-1.5-.67-1.5-1.5s.68-1.5 1.5-1.5c.83 0 1.5.67 1.5 1.5zm0-6.08c0 .83-.67 1.5-1.5 1.5-.82 0-1.5-.67-1.5-1.5s.68-1.5 1.5-1.5c.83 0 1.5.67 1.5 1.5zm0-6.08c0 .83-.67 1.5-1.5 1.5-.82 0-1.5-.67-1.5-1.5s.68-1.5 1.5-1.5c.83 0 1.5.67 1.5 1.5zm0-6.08c0 .82-.67 1.5-1.5 1.5-.82 0-1.5-.68-1.5-1.5 0-.84.68-1.5 1.5-1.5.83 0 1.5.66 1.5 1.5zm0-6.1c0 .84-.67 1.5-1.5 1.5-.82 0-1.5-.66-1.5-1.5 0-.82.68-1.5 1.5-1.5.83 0 1.5.68 1.5 1.5zm0-6.07c0 .83-.67 1.5-1.5 1.5-.82 0-1.5-.67-1.5-1.5s.68-1.5 1.5-1.5c.83 0 1.5.67 1.5 1.5zm0-6.08c0 .83-.67 1.5-1.5 1.5-.82 0-1.5-.67-1.5-1.5s.68-1.5 1.5-1.5c.83 0 1.5.67 1.5 1.5zm0-6.08c0 .83-.67 1.5-1.5 1.5-.82 0-1.5-.67-1.5-1.5s.68-1.5 1.5-1.5c.83 0 1.5.67 1.5 1.5zm0-6.08c0 .82-.67 1.5-1.5 1.5-.82 0-1.5-.68-1.5-1.5 0-.83.68-1.5 1.5-1.5.83 0 1.5.67 1.5 1.5zm0-6.08c0 .82-.67 1.5-1.5 1.5-.82 0-1.5-.68-1.5-1.5 0-.83.68-1.5 1.5-1.5.83 0 1.5.67 1.5 1.5zm0-6.08c0 .83-.67 1.5-1.5 1.5-.82 0-1.5-.67-1.5-1.5s.68-1.5 1.5-1.5c.83 0 1.5.67 1.5 1.5zm0-6.08c0 .83-.67 1.5-1.5 1.5-.82 0-1.5-.67-1.5-1.5s.68-1.5 1.5-1.5c.83 0 1.5.67 1.5 1.5zm0-6.08c0 .83-.67 1.5-1.5 1.5-.82 0-1.5-.67-1.5-1.5s.68-1.5 1.5-1.5c.83 0 1.5.67 1.5 1.5zm0-6.08c0 .83-.67 1.5-1.5 1.5-.82 0-1.5-.67-1.5-1.5s.68-1.5 1.5-1.5c.83 0 1.5.67 1.5 1.5z" fill="#000098"/><path d="M1143.28 618.5h-2.95v-1.54h2.95z" stroke="#000098" stroke-width=".05" fill="#000098"/><path d="M1141.8 501.54V500" stroke="#000098" stroke-width="3" fill="none"/><path d="M1143.3 678.67c0 .83-.67 1.5-1.5 1.5-.82 0-1.5-.67-1.5-1.5s.68-1.5 1.5-1.5c.83 0 1.5.67 1.5 1.5zm0 6.4c0 .8-.67 1.5-1.5 1.5-.82 0-1.5-.7-1.5-1.5 0-.84.68-1.5 1.5-1.5.83 0 1.5.66 1.5 1.5zm0 6.37c0 .83-.67 1.5-1.5 1.5-.82 0-1.5-.67-1.5-1.5 0-.82.68-1.5 1.5-1.5.83 0 1.5.68 1.5 1.5zm0 6.4c0 .82-.67 1.5-1.5 1.5-.82 0-1.5-.68-1.5-1.5 0-.84.68-1.5 1.5-1.5.83 0 1.5.66 1.5 1.5zm0 6.38c0 .83-.67 1.5-1.5 1.5-.82 0-1.5-.67-1.5-1.5s.68-1.5 1.5-1.5c.83 0 1.5.67 1.5 1.5zm0 6.4c0 .82-.67 1.5-1.5 1.5-.82 0-1.5-.68-1.5-1.5 0-.84.68-1.5 1.5-1.5.83 0 1.5.66 1.5 1.5zm0 6.38c0 .83-.67 1.5-1.5 1.5-.82 0-1.5-.67-1.5-1.5s.68-1.5 1.5-1.5c.83 0 1.5.67 1.5 1.5z" fill="#000098"/><path d="M1143.28 678.7h-2.95v-1.53h2.95zM1143.28 718.5h-2.95v-1.54h2.95z" stroke="#000098" stroke-width=".05" fill="#000098"/><path d="M1143.3 778.67c0 .83-.67 1.5-1.5 1.5-.82 0-1.5-.67-1.5-1.5s.68-1.5 1.5-1.5c.83 0 1.5.67 1.5 1.5zm0 6.07c0 .83-.67 1.5-1.5 1.5-.82 0-1.5-.67-1.5-1.5s.68-1.5 1.5-1.5c.83 0 1.5.67 1.5 1.5zm0 6.07c0 .84-.67 1.5-1.5 1.5-.82 0-1.5-.66-1.5-1.5 0-.82.68-1.5 1.5-1.5.83 0 1.5.68 1.5 1.5zm0 6.08c0 .83-.67 1.5-1.5 1.5-.82 0-1.5-.67-1.5-1.5s.68-1.5 1.5-1.5c.83 0 1.5.67 1.5 1.5zm0 6.07c0 .83-.67 1.5-1.5 1.5-.82 0-1.5-.67-1.5-1.5s.68-1.5 1.5-1.5c.83 0 1.5.67 1.5 1.5zm0 6.07c0 .83-.67 1.5-1.5 1.5-.82 0-1.5-.67-1.5-1.5 0-.82.68-1.5 1.5-1.5.83 0 1.5.68 1.5 1.5zm0 6.08c0 .82-.67 1.5-1.5 1.5-.82 0-1.5-.68-1.5-1.5 0-.83.68-1.5 1.5-1.5.83 0 1.5.67 1.5 1.5zm0 6.07c0 .82-.67 1.5-1.5 1.5-.82 0-1.5-.68-1.5-1.5 0-.83.68-1.5 1.5-1.5.83 0 1.5.67 1.5 1.5zm0 6.07c0 .83-.67 1.5-1.5 1.5-.82 0-1.5-.67-1.5-1.5s.68-1.5 1.5-1.5c.83 0 1.5.67 1.5 1.5zm0 6.07c0 .84-.67 1.5-1.5 1.5-.82 0-1.5-.66-1.5-1.5 0-.82.68-1.5 1.5-1.5.83 0 1.5.68 1.5 1.5z" fill="#000098"/><path d="M1143.28 778.7h-2.95v-1.53h2.95z" stroke="#000098" stroke-width=".05" fill="#000098"/><path d="M1141.8 855.15l-4.63-14.27h9.27z" stroke="#000098" stroke-width="3" fill="#000098"/><path d="M758.78 660c22.1 0 40 17.9 40 40s-17.9 40-40 40h-80c-22.1 0-40-17.9-40-40s17.9-40 40-40z" stroke="#000098" stroke-width="4" fill="#fff"/><g><use xlink:href="#q" transform="matrix(1,0,0,1,643.782762691854,665) translate(39.76055555555555 26.841666666666665)"/><use xlink:href="#r" transform="matrix(1,0,0,1,643.782762691854,665) translate(24.071666666666673 57.15277777777777)"/></g><path d="M835.9 693.5h147" fill="none"/><path d="M835.9 693.5h3.05m12.25 0h6.13m12.25 0h6.12m12.25 0h6.13m12.25 0h6.12m12.25 0h6.13m12.25 0h6.12m12.25 0h6.13m12.25 0h3.06" stroke="#ff4f00" stroke-width="3" stroke-linecap="round" fill="none"/><defs><path fill="#0808f9" d="M453-146C459 25 198 37 67-30c-50-26-21-113 34-82 44 25 86 29 144 34 69 5 121-47 79-96-66-38-195-24-240-82-22-22-33-52-33-87-3-166 239-184 365-117 49 26 9 113-42 79-54-36-210-56-210 32 0 69 100 59 157 73 75 19 130 48 132 130" id="s"/><path fill="#0808f9" d="M406-102C381-36 327 9 242 10 115 10 62-64 62-192v-242c0-42 21-63 62-63s63 21 63 63v244c0 67 23 101 88 102 68 1 114-55 114-126v-220c0-42 21-63 62-63s63 21 63 63v378c0 43-20 64-61 64-70 4-62-72-61-140" id="t"/><path fill="#0808f9" d="M297-401c-70 0-105 55-105 130v215c0 43-21 64-63 64-40 0-62-23-62-64v-378c0-40 22-63 61-63 69-4 63 69 61 136l-11-30c24-62 80-108 162-108 85 1 132 42 150 114h-14c23-65 87-114 172-114 121 0 165 77 165 201v242c0 41-23 64-63 64s-62-23-62-64v-237c-1-69-16-107-81-108-70 0-105 55-105 130v215c0 41-22 64-62 64s-63-23-63-64v-237c-1-68-16-107-80-108" id="u"/><path fill="#0808f9" d="M488 38c0 21-17 38-39 37H52c-22 1-41-16-40-37C11 17 30-1 52 0h397c22-1 39 17 39 38" id="v"/><path fill="#0808f9" d="M376-104C360-34 310 9 226 10 123 7 43-45 43-145c0-156 171-141 338-145v72c-97 6-209-18-216 67 0 47 37 76 87 75 71-3 114-49 114-120v-115c14-127-153-103-229-63-63 33-90-68-29-90 51-19 104-34 166-35 140 0 212 63 211 203v240c0 40-19 64-58 64-58 2-63-52-59-112h8" id="w"/><path fill="#0808f9" d="M539-49c1 159-87 239-246 239-75 0-143-19-196-41-56-24-20-121 35-89 45 24 94 33 151 35 88 0 134-42 134-129v-90h9C409-59 337-11 256-12 114-16 38-111 38-256c0-146 74-237 218-243 82-1 152 46 169 111l-10 25c-3-67-7-138 62-134 40 0 62 22 62 63v385zM164-256c-2 85 45 149 126 149 86-2 124-61 126-149 2-86-45-148-126-148-85 3-125 60-126 148" id="x"/><path fill="#0808f9" d="M156-255c-6 133 79 185 210 163 40-7 87-54 124-21 24 25 7 69-19 80C432-7 366 9 306 10 140 7 38-80 38-244c0-154 93-255 245-255 149 0 222 95 225 246 0 26-20 37-48 37H139v-72h281l-16 15c-1-85-34-139-116-141-91 2-128 66-132 159" id="y"/><path fill="#0808f9" d="M199-70c0 44-29 76-74 75-44 1-76-31-75-75-1-43 31-74 75-73 45-1 74 30 74 73zm0-350c0 43-29 75-74 74-44 1-76-31-75-74-1-44 31-75 75-74 45-1 74 30 74 74" id="z"/><path fill="#0808f9" d="M548-365c0 221-88 368-303 375-68-1-128-26-175-54-38-22-24-98 18-98 57 0 92 46 159 44 160-5 187-145 179-318h12c-15 97-79 163-188 163-131 0-209-93-209-226 0-144 90-236 233-236 197 0 274 146 274 350zM161-485c0 77 44 130 121 130s119-52 121-130c-1-78-44-129-121-129s-121 51-121 129" id="A"/><path fill="#0808f9" d="M557-355c-3 205-62 365-257 365C113 10 42-148 43-354c2-205 62-361 257-361 189 0 258 152 257 360zM200-158c43 81 158 81 200 0 37-71 38-322 0-392-42-77-158-78-200 0-38 70-37 321 0 392" id="B"/><path fill="#0808f9" d="M124-143c91-4 87 128 54 193-16 26-43 94-90 70-37-35 29-75 28-104 5-17 7-32 7-45l5 34C83 6 49-25 50-70c0-43 30-74 74-73" id="C"/><g id="a"><use transform="matrix(0.02222222222222222,0,0,0.02222222222222222,0,0)" xlink:href="#s"/><use transform="matrix(0.02222222222222222,0,0,0.02222222222222222,10.844444444444443,0)" xlink:href="#t"/><use transform="matrix(0.02222222222222222,0,0,0.02222222222222222,23.71111111111111,0)" xlink:href="#u"/><use transform="matrix(0.02222222222222222,0,0,0.02222222222222222,43.199999999999996,0)" xlink:href="#v"/><use transform="matrix(0.02222222222222222,0,0,0.02222222222222222,54.244444444444426,0)" xlink:href="#w"/><use transform="matrix(0.02222222222222222,0,0,0.02222222222222222,66.39999999999999,0)" xlink:href="#x"/><use transform="matrix(0.02222222222222222,0,0,0.02222222222222222,79.82222222222221,0)" xlink:href="#y"/><use transform="matrix(0.02222222222222222,0,0,0.02222222222222222,91.86666666666666,0)" xlink:href="#z"/><use transform="matrix(0.02222222222222222,0,0,0.02222222222222222,97.37777777777775,0)" xlink:href="#A"/><use transform="matrix(0.02222222222222222,0,0,0.02222222222222222,110.71111111111108,0)" xlink:href="#B"/><use transform="matrix(0.02222222222222222,0,0,0.02222222222222222,124.04444444444441,0)" xlink:href="#C"/></g><path fill="#0808f9" d="M422-104C404-38 336 11 253 10 109 5 38-96 38-245s72-248 215-254c82-1 149 46 168 109h-11v-260c0-41 22-63 62-63s63 22 63 63v594c0 41-22 64-62 64-72 5-63-73-62-142zM164-245c-2 94 40 160 124 160 88 0 123-67 124-160 2-95-40-159-124-159-88 0-124 66-124 159" id="D"/><path fill="#0808f9" d="M190-61c0 42-21 68-63 68-41 0-62-27-62-68v-367c0-42 21-68 62-68s63 26 63 68v367zm11-594c0 43-29 67-74 66-44 1-74-23-74-66 0-44 29-66 74-66 46 0 74 22 74 66" id="E"/><path fill="#0808f9" d="M358-442c0 63-77 44-135 47v339c0 43-21 64-62 64-40 0-63-23-63-64v-339c-50 3-96 2-96-47 0-63 75-44 132-47l-36 33c-12-173 75-238 236-252 60-5 68 89 12 92-93 4-132 42-123 143l-16-16c61 5 151-22 151 47" id="F"/><path fill="#0808f9" d="M374-268c1 27-23 51-50 50H111c-28 1-52-22-51-50-1-29 22-51 51-50h213c28-1 51 22 50 50" id="G"/><path fill="#0808f9" d="M553-54c0 34-21 54-55 54H156c-34 0-55-21-55-54-3-76 100-46 167-52v-491h62l-147 89c-61 41-114-58-51-93 60-33 115-73 178-103 39-18 86-8 86 40v558c65 5 161-21 157 52" id="H"/><g id="b"><use transform="matrix(0.02222222222222222,0,0,0.02222222222222222,0,0)" xlink:href="#D"/><use transform="matrix(0.02222222222222222,0,0,0.02222222222222222,13.333333333333332,0)" xlink:href="#E"/><use transform="matrix(0.02222222222222222,0,0,0.02222222222222222,19,0)" xlink:href="#F"/><use transform="matrix(0.02222222222222222,0,0,0.02222222222222222,26.577777777777776,0)" xlink:href="#F"/><use transform="matrix(0.02222222222222222,0,0,0.02222222222222222,34.77777777777777,0)" xlink:href="#z"/><use transform="matrix(0.02222222222222222,0,0,0.02222222222222222,39.888888888888886,0)" xlink:href="#G"/><use transform="matrix(0.02222222222222222,0,0,0.02222222222222222,49.533333333333324,0)" xlink:href="#H"/></g><g id="c"><use transform="matrix(0.031111111111111103,0,0,0.031111111111111103,0,0)" xlink:href="#s"/><use transform="matrix(0.031111111111111103,0,0,0.031111111111111103,15.182222222222219,0)" xlink:href="#t"/><use transform="matrix(0.031111111111111103,0,0,0.031111111111111103,33.19555555555554,0)" xlink:href="#u"/><use transform="matrix(0.031111111111111103,0,0,0.031111111111111103,60.47999999999998,0)" xlink:href="#v"/><use transform="matrix(0.031111111111111103,0,0,0.031111111111111103,75.9422222222222,0)" xlink:href="#w"/><use transform="matrix(0.031111111111111103,0,0,0.031111111111111103,92.95999999999998,0)" xlink:href="#x"/><use transform="matrix(0.031111111111111103,0,0,0.031111111111111103,111.75111111111109,0)" xlink:href="#y"/></g><path fill="#ff4f00" d="M375-58c0 41-22 66-64 66-41 0-64-25-64-66v-540H52c-34 0-55-21-55-54 0-35 21-53 55-53h518c34 0 55 18 55 53 0 33-21 54-55 54H375v540" id="I"/><path fill="#ff4f00" d="M190-61c0 42-21 68-63 68-41 0-62-27-62-68v-367c0-42 21-68 62-68s63 26 63 68v367zm11-594c0 43-29 67-74 66-44 1-74-23-74-66 0-44 29-66 74-66 46 0 74 22 74 66" id="J"/><path fill="#ff4f00" d="M297-401c-70 0-105 55-105 130v215c0 43-21 64-63 64-40 0-62-23-62-64v-378c0-40 22-63 61-63 69-4 63 69 61 136l-11-30c24-62 80-108 162-108 85 1 132 42 150 114h-14c23-65 87-114 172-114 121 0 165 77 165 201v242c0 41-23 64-63 64s-62-23-62-64v-237c-1-69-16-107-81-108-70 0-105 55-105 130v215c0 41-22 64-62 64s-63-23-63-64v-237c-1-68-16-107-80-108" id="K"/><path fill="#ff4f00" d="M156-255c-6 133 79 185 210 163 40-7 87-54 124-21 24 25 7 69-19 80C432-7 366 9 306 10 140 7 38-80 38-244c0-154 93-255 245-255 149 0 222 95 225 246 0 26-20 37-48 37H139v-72h281l-16 15c-1-85-34-139-116-141-91 2-128 66-132 159" id="L"/><g id="d"><use transform="matrix(0.022222222222222223,0,0,0.022222222222222223,0,0)" xlink:href="#I"/><use transform="matrix(0.022222222222222223,0,0,0.022222222222222223,15.022222222222222,0)" xlink:href="#J"/><use transform="matrix(0.022222222222222223,0,0,0.022222222222222223,20.68888888888889,0)" xlink:href="#K"/><use transform="matrix(0.022222222222222223,0,0,0.022222222222222223,40.17777777777778,0)" xlink:href="#L"/></g><path fill="#ff4f00" d="M390-58c0 61-48 65-101 68C161 10 95-54 95-182v-213c-51 2-102 4-102-47 0-52 51-49 102-47 0-72-15-154 63-154 77 0 61 83 62 154 62 6 156-23 156 47 0 69-94 41-156 47v206c1 64 25 96 89 96 40-3 81-24 81 35" id="M"/><path fill="#ff4f00" d="M541-193C541-14 352 38 174-4 123-19 66-34 46-76c-23-49 32-91 79-63 81 53 292 76 292-65 0-96-93-103-195-99-36 1-57-19-57-53-3-55 53-53 109-53 73 0 120-33 122-104 4-123-187-107-260-54-60 43-110-55-50-91 53-32 121-56 202-57 135 2 232 56 232 187 0 93-54 149-131 169v-12c90 13 152 79 152 178" id="N"/><g id="e"><use transform="matrix(0.022222222222222223,0,0,0.022222222222222223,0,0)" xlink:href="#M"/><use transform="matrix(0.015555555555555552,0,0,0.015555555555555552,8.533333333333333,0)" xlink:href="#N"/></g><g id="f"><use transform="matrix(0.022222222222222223,0,0,0.022222222222222223,0,0)" xlink:href="#A"/><use transform="matrix(0.022222222222222223,0,0,0.022222222222222223,13.333333333333334,0)" xlink:href="#B"/></g><path fill="#ff4f00" d="M477-134c2 70 9 142-64 142s-66-72-64-142H102c-55 5-85-41-60-89 6-13 16-29 31-50l274-397c16-24 35-42 70-43 37 1 60 23 60 64v409c56-3 107-3 107 53s-51 56-107 53zM349-240v-312h29L142-206v-34h207" id="O"/><path fill="#ff4f00" d="M557-355c-3 205-62 365-257 365C113 10 42-148 43-354c2-205 62-361 257-361 189 0 258 152 257 360zM200-158c43 81 158 81 200 0 37-71 38-322 0-392-42-77-158-78-200 0-38 70-37 321 0 392" id="P"/><g id="g"><use transform="matrix(0.022222222222222223,0,0,0.022222222222222223,0,0)" xlink:href="#O"/><use transform="matrix(0.022222222222222223,0,0,0.022222222222222223,13.333333333333334,0)" xlink:href="#P"/></g><path fill="#ff4f00" d="M376-104C360-34 310 9 226 10 123 7 43-45 43-145c0-156 171-141 338-145v72c-97 6-209-18-216 67 0 47 37 76 87 75 71-3 114-49 114-120v-115c14-127-153-103-229-63-63 33-90-68-29-90 51-19 104-34 166-35 140 0 212 63 211 203v240c0 40-19 64-58 64-58 2-63-52-59-112h8" id="Q"/><path fill="#ff4f00" d="M562-245C562-96 491 5 347 10c-83 1-153-48-170-114l11-25c2 67 8 141-61 137-40 0-62-23-62-64v-594c0-41 22-63 62-63s63 22 63 63v260h-12c19-63 87-110 169-109 144 5 215 105 215 254zm-374 0c-2 94 40 160 124 160 88 0 123-67 124-160 2-95-40-159-124-159-88 0-124 66-124 159" id="R"/><path fill="#ff4f00" d="M318-49c3 52-36 60-86 59C117 10 65-59 65-177v-473c0-41 22-63 62-63s63 22 63 63v467c-2 68 36 99 104 88 25-1 22 15 24 46" id="S"/><g id="h"><use transform="matrix(0.022222222222222223,0,0,0.022222222222222223,0,0)" xlink:href="#I"/><use transform="matrix(0.022222222222222223,0,0,0.022222222222222223,12.066666666666666,0)" xlink:href="#Q"/><use transform="matrix(0.022222222222222223,0,0,0.022222222222222223,24.22222222222222,0)" xlink:href="#R"/><use transform="matrix(0.022222222222222223,0,0,0.022222222222222223,37.55555555555556,0)" xlink:href="#S"/><use transform="matrix(0.022222222222222223,0,0,0.022222222222222223,44.53333333333333,0)" xlink:href="#L"/></g><g id="i"><use transform="matrix(0.022222222222222223,0,0,0.022222222222222223,0,0)" xlink:href="#Q"/><use transform="matrix(0.022222222222222223,0,0,0.022222222222222223,12.155555555555557,0)" xlink:href="#M"/></g><g id="j"><use transform="matrix(0.022222222222222223,0,0,0.022222222222222223,0,0)" xlink:href="#M"/><use transform="matrix(0.022222222222222223,0,0,0.022222222222222223,8.822222222222223,0)" xlink:href="#J"/><use transform="matrix(0.022222222222222223,0,0,0.022222222222222223,14.488888888888889,0)" xlink:href="#K"/><use transform="matrix(0.022222222222222223,0,0,0.022222222222222223,33.97777777777778,0)" xlink:href="#L"/></g><g id="k"><use transform="matrix(0.022222222222222223,0,0,0.022222222222222223,0,0)" xlink:href="#M"/><use transform="matrix(0.015555555555555552,0,0,0.015555555555555552,8.533333333333333,0)" xlink:href="#N"/></g><path fill="#0808f9" d="M477-134c2 70 9 142-64 142s-66-72-64-142H102c-55 5-85-41-60-89 6-13 16-29 31-50l274-397c16-24 35-42 70-43 37 1 60 23 60 64v409c56-3 107-3 107 53s-51 56-107 53zM349-240v-312h29L142-206v-34h207" id="T"/><g id="l"><use transform="matrix(0.02222222222222222,0,0,0.02222222222222222,0,0)" xlink:href="#s"/><use transform="matrix(0.02222222222222222,0,0,0.02222222222222222,10.844444444444443,0)" xlink:href="#t"/><use transform="matrix(0.02222222222222222,0,0,0.02222222222222222,23.71111111111111,0)" xlink:href="#u"/><use transform="matrix(0.02222222222222222,0,0,0.02222222222222222,43.199999999999996,0)" xlink:href="#v"/><use transform="matrix(0.02222222222222222,0,0,0.02222222222222222,54.244444444444426,0)" xlink:href="#w"/><use transform="matrix(0.02222222222222222,0,0,0.02222222222222222,66.39999999999999,0)" xlink:href="#x"/><use transform="matrix(0.02222222222222222,0,0,0.02222222222222222,79.82222222222221,0)" xlink:href="#y"/><use transform="matrix(0.02222222222222222,0,0,0.02222222222222222,91.86666666666666,0)" xlink:href="#z"/><use transform="matrix(0.02222222222222222,0,0,0.02222222222222222,97.37777777777775,0)" xlink:href="#T"/><use transform="matrix(0.02222222222222222,0,0,0.02222222222222222,110.71111111111108,0)" xlink:href="#B"/><use transform="matrix(0.02222222222222222,0,0,0.02222222222222222,124.04444444444441,0)" xlink:href="#C"/></g><g id="m"><use transform="matrix(0.02222222222222222,0,0,0.02222222222222222,0,0)" xlink:href="#D"/><use transform="matrix(0.02222222222222222,0,0,0.02222222222222222,13.333333333333332,0)" xlink:href="#E"/><use transform="matrix(0.02222222222222222,0,0,0.02222222222222222,19,0)" xlink:href="#F"/><use transform="matrix(0.02222222222222222,0,0,0.02222222222222222,26.577777777777776,0)" xlink:href="#F"/><use transform="matrix(0.02222222222222222,0,0,0.02222222222222222,34.77777777777777,0)" xlink:href="#z"/><use transform="matrix(0.02222222222222222,0,0,0.02222222222222222,40.288888888888884,0)" xlink:href="#H"/></g><path fill="#ff4f00" d="M732-354c0 223-117 364-339 364C176 10 54-133 54-353c0-223 118-362 339-362 218 0 339 141 339 361zm-544 1c-2 146 67 252 205 253 144-3 203-105 205-253s-65-252-205-252c-144 0-204 103-205 252" id="U"/><path fill="#ff4f00" d="M406-102C381-36 327 9 242 10 115 10 62-64 62-192v-242c0-42 21-63 62-63s63 21 63 63v244c0 67 23 101 88 102 68 1 114-55 114-126v-220c0-42 21-63 62-63s63 21 63 63v378c0 43-20 64-61 64-70 4-62-72-61-140" id="V"/><path fill="#ff4f00" d="M190 125c0 41-23 63-63 63s-62-22-62-63v-559c0-40 22-63 61-63 72-5 63 73 62 141l-11-30c18-65 87-114 170-113 143 6 215 105 215 254S492 5 347 10c-82 1-150-47-169-110h12v225zm-2-370c-2 94 40 160 124 160 88 0 123-67 124-160 2-95-40-159-124-159-88 0-124 66-124 159" id="W"/><g id="n"><use transform="matrix(0.022222222222222223,0,0,0.022222222222222223,0,0)" xlink:href="#U"/><use transform="matrix(0.022222222222222223,0,0,0.022222222222222223,17.444444444444446,0)" xlink:href="#V"/><use transform="matrix(0.022222222222222223,0,0,0.022222222222222223,30.311111111111114,0)" xlink:href="#M"/><use transform="matrix(0.022222222222222223,0,0,0.022222222222222223,38.84444444444445,0)" xlink:href="#W"/><use transform="matrix(0.022222222222222223,0,0,0.022222222222222223,52.17777777777778,0)" xlink:href="#V"/><use transform="matrix(0.022222222222222223,0,0,0.022222222222222223,65.04444444444445,0)" xlink:href="#M"/></g><path fill="#ff4f00" d="M554-51c0 33-19 51-52 51H145c-44 0-68-24-68-68v-569c0-44 24-68 68-68h357c33 0 52 18 52 50 0 33-19 52-52 52H200v194h280c34 0 52 17 52 51s-18 51-52 51H200v205h302c33 0 52 18 52 51" id="X"/><path fill="#ff4f00" d="M337-45c-9 42-70 71-117 40-12-9-23-22-31-40L30-414c-33-61 38-104 91-72 9 7 18 20 25 39l135 337h-30l139-338c5-57 106-69 116-8 2 12 0 26-7 41" id="Y"/><path fill="#ff4f00" d="M310-401c-73-1-120 52-120 126v219c0 43-21 64-63 64-40 0-62-23-62-64v-378c0-40 22-63 61-63 67-4 64 65 61 131l-11-25c25-65 89-107 174-108 125 0 173 75 173 201v242c0 41-22 64-62 64s-63-23-63-64v-236c0-71-22-108-88-109" id="Z"/><g id="o"><use transform="matrix(0.022222222222222223,0,0,0.022222222222222223,0,0)" xlink:href="#X"/><use transform="matrix(0.022222222222222223,0,0,0.022222222222222223,13.088888888888889,0)" xlink:href="#Y"/><use transform="matrix(0.022222222222222223,0,0,0.022222222222222223,24.577777777777783,0)" xlink:href="#L"/><use transform="matrix(0.022222222222222223,0,0,0.022222222222222223,36.62222222222223,0)" xlink:href="#Z"/><use transform="matrix(0.022222222222222223,0,0,0.022222222222222223,49.62222222222223,0)" xlink:href="#M"/></g><path fill="#ff4f00" d="M598-202C604 37 248 47 79-50 39-73 40-151 89-157c11-2 22 1 35 9 80 56 347 94 347-45 0-96-139-89-223-111-110-29-188-72-188-193 0-187 202-251 389-203 46 12 101 29 119 71 21 49-32 91-77 61-83-54-304-68-304 66 0 99 132 92 215 114 112 29 191 66 196 186" id="aa"/><path fill="#ff4f00" d="M192-56c0 41-22 64-63 64S65-15 65-56v-378c0-40 22-63 61-63 65-4 64 61 61 126h-10c19-80 74-117 164-128 47-6 61 59 37 89-12 15-37 19-63 21-77 6-122 45-123 126v207" id="ab"/><g id="p"><use transform="matrix(0.022222222222222223,0,0,0.022222222222222223,0,0)" xlink:href="#aa"/><use transform="matrix(0.022222222222222223,0,0,0.022222222222222223,13.911111111111111,0)" xlink:href="#M"/><use transform="matrix(0.022222222222222223,0,0,0.022222222222222223,22.444444444444443,0)" xlink:href="#ab"/><use transform="matrix(0.022222222222222223,0,0,0.022222222222222223,30.977777777777778,0)" xlink:href="#L"/><use transform="matrix(0.022222222222222223,0,0,0.022222222222222223,43.022222222222226,0)" xlink:href="#Q"/><use transform="matrix(0.022222222222222223,0,0,0.022222222222222223,55.17777777777778,0)" xlink:href="#K"/></g><path fill="#ff4f00" d="M707-354C707-134 600 9 383 9 171 9 61-136 61-353c0-220 107-361 322-361 214 0 324 142 324 360zm-559 1c-2 167 77 288 235 289 167-3 235-119 237-289s-76-288-237-288c-165 0-233 118-235 288" id="ac"/><path fill="#ff4f00" d="M419-112C396-41 336 8 248 9 126 9 73-61 73-184v-268c0-27 14-41 40-41 27 0 41 13 41 41v267c0 82 30 126 110 127 84 1 140-66 140-152v-242c0-28 14-41 41-41 26 0 40 14 40 41v417c0 28-13 42-39 42-59 2-35-80-40-133" id="ad"/><path fill="#ff4f00" d="M282-60c33 1 76-28 76 22 0 45-48 47-87 47C156 9 99-53 99-168v-255C58-426-5-409-3-455c-1-45 61-27 102-31 8-58-25-157 41-156 65 0 32 99 40 156h126c22 0 35 10 35 31s-13 32-35 32H180v247c1 74 28 116 102 116" id="ae"/><path fill="#ff4f00" d="M157 146c0 26-16 41-41 41-27 0-40-14-40-41v-598c0-26 13-41 39-41 62-3 35 83 41 136l-11-14c19-72 87-125 177-124 144 5 215 103 215 252C537-95 466 5 322 9c-90 1-157-52-177-123h12v260zm-2-389c-2 109 51 187 150 187 105 0 149-78 150-187 2-110-49-187-150-187-104 0-149 77-150 187" id="af"/><g id="q"><use transform="matrix(0.022222222222222223,0,0,0.022222222222222223,0,0)" xlink:href="#ac"/><use transform="matrix(0.022222222222222223,0,0,0.022222222222222223,17.044444444444444,0)" xlink:href="#ad"/><use transform="matrix(0.022222222222222223,0,0,0.022222222222222223,29.511111111111113,0)" xlink:href="#ae"/><use transform="matrix(0.022222222222222223,0,0,0.022222222222222223,37.28888888888889,0)" xlink:href="#af"/><use transform="matrix(0.022222222222222223,0,0,0.022222222222222223,50.24444444444445,0)" xlink:href="#ad"/><use transform="matrix(0.022222222222222223,0,0,0.022222222222222223,62.711111111111116,0)" xlink:href="#ae"/></g><path fill="#ff4f00" d="M149-353c1 174 74 285 245 287 74-1 130-23 174-58 41-36 83 28 43 60C558-22 484 9 392 9 173 5 61-131 61-353c0-223 111-354 331-361 88 0 165 27 215 69 30 14 24 75-14 73-40-10-67-46-106-53-29-9-60-14-93-14-170 2-244 112-245 286" id="ag"/><path fill="#ff4f00" d="M510-243C510-88 430 9 278 9 127 9 46-90 46-243c0-155 80-252 232-252 151 0 232 99 232 252zm-382 0c-2 109 51 187 150 187 104 0 149-78 150-187 2-110-49-187-150-187-105 0-149 77-150 187" id="ah"/><path fill="#ff4f00" d="M303-429c-89-1-146 62-146 152v242c0 28-14 42-41 42S76-9 76-35v-417c0-26 13-41 39-41 58-3 36 76 40 127l-11-12c24-71 88-116 178-117 121 0 173 69 173 192v268c0 26-14 42-40 42-27 0-41-16-41-42v-263c0-86-29-130-111-131" id="ai"/><path fill="#ff4f00" d="M124-250c-6 147 95 221 238 185 36-1 72-52 110-31 18 14 10 47-10 55C423-12 359 9 295 9 137 6 46-84 46-242c0-151 86-253 234-253 142 0 208 94 211 238 0 22-13 31-35 31H108v-53h329l-16 13c-1-101-40-167-139-169-108 2-153 76-158 185" id="aj"/><path fill="#ff4f00" d="M129-245c-5 127 79 212 209 180 29-7 81-66 102-11 3 47-53 59-84 74C174 44 46-68 46-246c0-181 128-280 311-238 31 10 67 26 84 55 9 31-23 55-49 36-28-23-61-35-105-36-110 3-157 71-158 184" id="ak"/><path fill="#ff4f00" d="M158-35c0 26-14 42-41 42S76-9 76-35v-417c0-26 13-41 39-41 57-3 36 72 40 122h-10c19-76 82-118 172-125 34-3 43 39 26 59-8 10-27 12-44 14-86 7-141 56-141 146v242" id="al"/><g id="r"><use transform="matrix(0.022222222222222223,0,0,0.022222222222222223,0,0)" xlink:href="#ag"/><use transform="matrix(0.022222222222222223,0,0,0.022222222222222223,14.177777777777779,0)" xlink:href="#ah"/><use transform="matrix(0.022222222222222223,0,0,0.022222222222222223,26.533333333333328,0)" xlink:href="#ai"/><use transform="matrix(0.022222222222222223,0,0,0.022222222222222223,39.15555555555555,0)" xlink:href="#ai"/><use transform="matrix(0.022222222222222223,0,0,0.022222222222222223,51.77777777777777,0)" xlink:href="#aj"/><use transform="matrix(0.022222222222222223,0,0,0.022222222222222223,63.599999999999994,0)" xlink:href="#ak"/><use transform="matrix(0.022222222222222223,0,0,0.022222222222222223,73.88888888888889,0)" xlink:href="#ae"/><use transform="matrix(0.022222222222222223,0,0,0.022222222222222223,81.55555555555554,0)" xlink:href="#ah"/><use transform="matrix(0.022222222222222223,0,0,0.022222222222222223,93.9111111111111,0)" xlink:href="#al"/></g></defs></g></svg>