<svg xmlns="http://www.w3.org/2000/svg" xmlns:xlink="http://www.w3.org/1999/xlink" xmlns:lucid="lucid" width="1237.33" height="444.93"><g transform="translate(-849.3333333333334 -416)" lucid:page-tab-id="0_0"><path d="M500 0h2000v1000H500z" fill="#fff"/><path d="M1721.22 506a6 6 0 0 1 6-6h331.95a6 6 0 0 1 6 6v248a6 6 0 0 1-6 6h-331.95a6 6 0 0 1-6-6z" stroke="#000098" stroke-width="3" fill-opacity="0"/><path d="M1034.1 470.33a6 6 0 0 1 6-6h231.6a6 6 0 0 1 6 6V514a6 6 0 0 1-6 6h-231.6a6 6 0 0 1-6-6z" stroke="#000098" stroke-width="3" fill="#fff"/><use xlink:href="#a" transform="matrix(1,0,0,1,1046.093333333333,476.33333333333337) translate(17.72222222222223 24.46666666666666)"/><use xlink:href="#b" transform="matrix(1,0,0,1,1046.093333333333,476.33333333333337) translate(132.47777777777776 24.46666666666666)"/><path d="M900 446a6 6 0 0 1 6-6h68a6 6 0 0 1 6 6v288a6 6 0 0 1-6 6h-68a6 6 0 0 1-6-6z" fill="none"/><path d="M980 740c-5.52 0-10-4.48-10-10V600c0-5.52-4.48-10-10-10 5.52 0 10-4.48 10-10V450c0-5.52 4.48-10 10-10" stroke="#000098" stroke-width="3" fill="none"/><use xlink:href="#c" transform="matrix(1,0,0,1,905,445) translate(-14 122)"/><use xlink:href="#d" transform="matrix(1,0,0,1,905,445) translate(-18.15555555555556 152.3111111111111)"/><use xlink:href="#e" transform="matrix(1,0,0,1,905,445) translate(-34.66666666666667 182.62222222222223)"/><path d="M1001 735.3h308" stroke="#000098" stroke-width="2" stroke-linecap="round" fill="none"/><path d="M1410 606a6 6 0 0 1 6-6h112a6 6 0 0 0 6-6v-8a2.3 2.3 0 0 1 4-1.54l28 31.08a6.67 6.67 0 0 1 0 8.92l-28 31.08a2.3 2.3 0 0 1-4-1.54v-8a6 6 0 0 0-6-6h-112a6 6 0 0 1-6-6z" stroke="#000098" stroke-width="3" fill="#fff"/><path d="M1722.72 561.56h339.66M1844.45 502v256.5" stroke="#000098" stroke-width="3" stroke-linecap="round" fill="none"/><path d="M1743.8 511a6 6 0 0 1 6-6h67.72a6 6 0 0 1 6 6v40.45a6 6 0 0 1-6 6h-67.72a6 6 0 0 1-6-6z" stroke="#000" stroke-opacity="0" fill="#fff" fill-opacity="0"/><use xlink:href="#f" transform="matrix(1,0,0,1,1748.8036206218017,510.0145751633984) translate(-4.682222222222215 31.735555555555553)"/><path d="M1845.95 506.5a6 6 0 0 1 6-6h207.22a6 6 0 0 1 6 6v40.44a6 6 0 0 1-6 6h-207.22a6 6 0 0 1-6-6z" stroke="#000" stroke-opacity="0" fill="#fff" fill-opacity="0"/><use xlink:href="#g" transform="matrix(1,0,0,1,1850.945887445887,505.4999999999999) translate(78.66444444444446 34.14083333333332)"/><path d="M1280 465.02a6 6 0 0 1 6-6h108a6 6 0 0 1 6 6v58.62a6 6 0 0 1-6 6h-108a6 6 0 0 1-6-6z" stroke="#000" stroke-opacity="0" fill="#fff" fill-opacity="0"/><use xlink:href="#h" transform="matrix(1,0,0,1,1285,464.02222222222224) translate(1.2888888888888914 37.71666666666667)"/><use xlink:href="#i" transform="matrix(1,0,0,1,1285,464.02222222222224) translate(65.46666666666667 37.71666666666667)"/><use xlink:href="#j" transform="matrix(1,0,0,1,1285,464.02222222222224) translate(92.17777777777778 37.71666666666667)"/><path d="M1280 556.36a6 6 0 0 1 6-6h108a6 6 0 0 1 6 6v58.62a6 6 0 0 1-6 6h-108a6 6 0 0 1-6-6z" stroke="#000" stroke-opacity="0" fill="#fff" fill-opacity="0"/><use xlink:href="#h" transform="matrix(1,0,0,1,1285,555.3555555555555) translate(1.2888888888888914 37.71666666666667)"/><use xlink:href="#i" transform="matrix(1,0,0,1,1285,555.3555555555555) translate(65.46666666666667 37.71666666666667)"/><use xlink:href="#k" transform="matrix(1,0,0,1,1285,555.3555555555555) translate(92.17777777777778 37.71666666666667)"/><path d="M1280 656.9a6 6 0 0 1 6-6h108a6 6 0 0 1 6 6v58.63a6 6 0 0 1-6 6h-108a6 6 0 0 1-6-6z" stroke="#000" stroke-opacity="0" fill="#fff" fill-opacity="0"/><use xlink:href="#h" transform="matrix(1,0,0,1,1285,655.9065359477127) translate(1.2888888888888914 37.71666666666667)"/><use xlink:href="#i" transform="matrix(1,0,0,1,1285,655.9065359477127) translate(65.46666666666667 37.71666666666667)"/><use xlink:href="#l" transform="matrix(1,0,0,1,1285,655.9065359477127) translate(92.17777777777778 37.71666666666667)"/><path d="M1723.5 612.83h339.66" stroke="#000098" stroke-width="3" stroke-linecap="round" fill="none"/><path d="M1722 566.06a6 6 0 0 1 6-6h108a6 6 0 0 1 6 6v39.27a6 6 0 0 1-6 6h-108a6 6 0 0 1-6-6z" fill="none"/><use xlink:href="#m" transform="matrix(1,0,0,1,1721.9964580873673,560.0578431372548) translate(34.2 33.31111111111111)"/><path d="M1842.95 570.33a6 6 0 0 1 6-6h207.22a6 6 0 0 1 6 6v35a6 6 0 0 1-6 6h-207.22a6 6 0 0 1-6-6z" stroke="#000" stroke-opacity="0" stroke-width="3" fill="#fff" fill-opacity="0"/><use xlink:href="#n" transform="matrix(1,0,0,1,1847.945887445887,569.3333333333334) translate(91.66666666666667 24.779166666666665)"/><path d="M1721.5 664.1h339.67" stroke="#000098" stroke-width="3" stroke-linecap="round" fill="none"/><path d="M1720 617.33a6 6 0 0 1 6-6h108a6 6 0 0 1 6 6v39.28a6 6 0 0 1-6 6h-108a6 6 0 0 1-6-6z" fill="none"/><use xlink:href="#o" transform="matrix(1,0,0,1,1720,611.3333333333333) translate(39.28888888888889 33.31111111111111)"/><path d="M1843.66 621.6a6 6 0 0 1 6-6h207.22a6 6 0 0 1 6 6v35a6 6 0 0 1-6 6h-207.22a6 6 0 0 1-6-6z" stroke="#000" stroke-opacity="0" fill="#fff" fill-opacity="0"/><use xlink:href="#p" transform="matrix(1,0,0,1,1848.6631247540336,620.6088235294117) translate(91.66666666666667 24.779166666666665)"/><path d="M1723.66 719.6a6 6 0 0 1 6-6h108a6 6 0 0 1 6 6v39.28a6 6 0 0 1-6 6h-108a6 6 0 0 1-6-6z" fill="none"/><use xlink:href="#q" transform="matrix(1,0,0,1,1723.6631247540336,713.6088235294117) translate(26.388888888888886 33.31111111111111)"/><path d="M1763.88 746a6 6 0 0 1 6-6h228a6 6 0 0 1 6 6v88.93a6 6 0 0 1-6 6h-228a6 6 0 0 1-6-6z" fill="#fff" fill-opacity="0"/><use xlink:href="#r" transform="matrix(1,0,0,1,1768.8839039748123,745) translate(35.388888888888886 53.74791666666667)"/><use xlink:href="#i" transform="matrix(1,0,0,1,1768.8839039748123,745) translate(97.98888888888888 53.74791666666667)"/><use xlink:href="#s" transform="matrix(1,0,0,1,1768.8839039748123,745) translate(124.69999999999999 53.74791666666667)"/><use xlink:href="#t" transform="matrix(1,0,0,1,1768.8839039748123,745) translate(176.74444444444444 53.74791666666667)"/><path d="M1310 706a6 6 0 0 1 6-6h78a6 6 0 0 1 6 6v58.62a6 6 0 0 1-6 6h-78a6 6 0 0 1-6-6z" stroke="#000" stroke-opacity="0" fill="#fff" fill-opacity="0"/><use xlink:href="#u" transform="matrix(1,0,0,1,1315,705) translate(1.94444444444445 37.71666666666667)"/><use xlink:href="#v" transform="matrix(1,0,0,1,1315,705) translate(60.18888888888889 37.71666666666667)"/><path d="M1034.1 566a6 6 0 0 1 6-6h231.6a6 6 0 0 1 6 6v43.67a6 6 0 0 1-6 6h-231.6a6 6 0 0 1-6-6z" stroke="#000098" stroke-width="3" fill="#fff"/><use xlink:href="#w" transform="matrix(1,0,0,1,1046.093333333333,572) translate(11.288888888888891 24.46666666666666)"/><use xlink:href="#x" transform="matrix(1,0,0,1,1046.093333333333,572) translate(152.24444444444444 24.46666666666666)"/><path d="M1034.1 662.22a6 6 0 0 1 6-6h231.6a6 6 0 0 1 6 6v43.66a6 6 0 0 1-6 6h-231.6a6 6 0 0 1-6-6z" stroke="#000098" stroke-width="3" fill="#fff"/><use xlink:href="#a" transform="matrix(1,0,0,1,1046.093333333333,668.2176470588238) translate(17.72222222222223 24.46666666666666)"/><use xlink:href="#y" transform="matrix(1,0,0,1,1046.093333333333,668.2176470588238) translate(132.47777777777776 24.46666666666666)"/><path d="M1157.4 523c0 .83-.67 1.5-1.5 1.5s-1.5-.67-1.5-1.5.67-1.5 1.5-1.5 1.5.67 1.5 1.5zm0 5.67c0 .83-.67 1.5-1.5 1.5s-1.5-.67-1.5-1.5.67-1.5 1.5-1.5 1.5.67 1.5 1.5zm0 5.66c0 .83-.67 1.5-1.5 1.5s-1.5-.67-1.5-1.5.67-1.5 1.5-1.5 1.5.67 1.5 1.5zm0 5.67c0 .83-.67 1.5-1.5 1.5s-1.5-.67-1.5-1.5.67-1.5 1.5-1.5 1.5.67 1.5 1.5zm0 5.67c0 .83-.67 1.5-1.5 1.5s-1.5-.67-1.5-1.5.67-1.5 1.5-1.5 1.5.67 1.5 1.5zm0 5.66c0 .83-.67 1.5-1.5 1.5s-1.5-.67-1.5-1.5.67-1.5 1.5-1.5 1.5.67 1.5 1.5z" fill="#000098"/><path d="M1157.37 523.04h-2.95v-1.54h2.95zM1157.37 558.5h-2.95v-1.54h2.95z" stroke="#000098" stroke-width=".05" fill="#000098"/><path d="M1157.4 618.67c0 .83-.67 1.5-1.5 1.5s-1.5-.67-1.5-1.5.67-1.5 1.5-1.5 1.5.67 1.5 1.5zm0 5.75c0 .83-.67 1.5-1.5 1.5s-1.5-.67-1.5-1.5c0-.82.67-1.5 1.5-1.5s1.5.68 1.5 1.5zm0 5.76c0 .83-.67 1.5-1.5 1.5s-1.5-.67-1.5-1.5c0-.82.67-1.5 1.5-1.5s1.5.68 1.5 1.5zm0 5.76c0 .83-.67 1.5-1.5 1.5s-1.5-.67-1.5-1.5.67-1.5 1.5-1.5 1.5.67 1.5 1.5zm0 5.76c0 .83-.67 1.5-1.5 1.5s-1.5-.67-1.5-1.5.67-1.5 1.5-1.5 1.5.67 1.5 1.5zm0 5.76c0 .83-.67 1.5-1.5 1.5s-1.5-.67-1.5-1.5.67-1.5 1.5-1.5 1.5.67 1.5 1.5zm0 5.76c0 .82-.67 1.5-1.5 1.5s-1.5-.68-1.5-1.5c0-.83.67-1.5 1.5-1.5s1.5.67 1.5 1.5z" fill="#000098"/><path d="M1157.37 618.7h-2.95v-1.53h2.95zM1157.37 654.72h-2.95v-1.54h2.95z" stroke="#000098" stroke-width=".05" fill="#000098"/><path d="M1157.4 714.88c0 .83-.67 1.5-1.5 1.5s-1.5-.67-1.5-1.5c0-.82.67-1.5 1.5-1.5s1.5.68 1.5 1.5zm0 6.04c0 .83-.67 1.5-1.5 1.5s-1.5-.67-1.5-1.5.67-1.5 1.5-1.5 1.5.67 1.5 1.5zm0 6.04c0 .82-.67 1.5-1.5 1.5s-1.5-.68-1.5-1.5c0-.83.67-1.5 1.5-1.5s1.5.67 1.5 1.5zm0 6.03c0 .82-.67 1.5-1.5 1.5s-1.5-.68-1.5-1.5c0-.84.67-1.5 1.5-1.5s1.5.66 1.5 1.5zm0 6.03c0 .82-.67 1.5-1.5 1.5s-1.5-.68-1.5-1.5c0-.83.67-1.5 1.5-1.5s1.5.67 1.5 1.5zm0 6.03c0 .83-.67 1.5-1.5 1.5s-1.5-.67-1.5-1.5.67-1.5 1.5-1.5 1.5.67 1.5 1.5zm0 6.04c0 .82-.67 1.5-1.5 1.5s-1.5-.68-1.5-1.5c0-.83.67-1.5 1.5-1.5s1.5.67 1.5 1.5zm0 6.03c0 .83-.67 1.5-1.5 1.5s-1.5-.67-1.5-1.5.67-1.5 1.5-1.5 1.5.67 1.5 1.5zm0 6.04c0 .83-.67 1.5-1.5 1.5s-1.5-.67-1.5-1.5.67-1.5 1.5-1.5 1.5.67 1.5 1.5zm0 6.03c0 .83-.67 1.5-1.5 1.5s-1.5-.67-1.5-1.5.67-1.5 1.5-1.5 1.5.67 1.5 1.5zm0 6.04c0 .83-.67 1.5-1.5 1.5s-1.5-.67-1.5-1.5.67-1.5 1.5-1.5 1.5.67 1.5 1.5zm0 6.03c0 .83-.67 1.5-1.5 1.5s-1.5-.67-1.5-1.5c0-.82.67-1.5 1.5-1.5s1.5.68 1.5 1.5zm0 6.04c0 .84-.67 1.5-1.5 1.5s-1.5-.66-1.5-1.5c0-.82.67-1.5 1.5-1.5s1.5.68 1.5 1.5zm0 6.05c0 .82-.67 1.5-1.5 1.5s-1.5-.68-1.5-1.5c0-.83.67-1.5 1.5-1.5s1.5.67 1.5 1.5zm0 6.03c0 .83-.67 1.5-1.5 1.5s-1.5-.67-1.5-1.5.67-1.5 1.5-1.5 1.5.67 1.5 1.5z" fill="#000098"/><path d="M1157.37 714.92h-2.95v-1.54h2.95z" stroke="#000098" stroke-width=".05" fill="#000098"/><path d="M1155.9 815.15l-4.64-14.27h9.27z" stroke="#000098" stroke-width="3" fill="#000098"/><path d="M1416.5 620h147" fill="none"/><path d="M1416.5 620h3.06m12.25 0h6.14m12.25 0h6.1m12.26 0h6.13m12.24 0h6.12m12.25 0h6.14m12.25 0h6.1m12.26 0h6.13m12.24 0h3.06" stroke="#ff4f00" stroke-width="3" stroke-linecap="round" fill="none"/><path d="M1844.66 719.6a6 6 0 0 1 6-6h207.22a6 6 0 0 1 6 6v35a6 6 0 0 1-6 6h-207.22a6 6 0 0 1-6-6z" stroke="#000" stroke-opacity="0" fill="#fff" fill-opacity="0"/><g><use xlink:href="#z" transform="matrix(1,0,0,1,1849.6631247540333,718.6088235294117) translate(98.33333333333333 24.779166666666665)"/></g><path d="M1157.4 461.33c0 .83-.67 1.5-1.5 1.5s-1.5-.67-1.5-1.5c0-.82.67-1.5 1.5-1.5s1.5.68 1.5 1.5zm0-5.7c0 .84-.67 1.5-1.5 1.5s-1.5-.66-1.5-1.5c0-.82.67-1.5 1.5-1.5s1.5.68 1.5 1.5zm0-5.68c0 .83-.67 1.5-1.5 1.5s-1.5-.67-1.5-1.5.67-1.5 1.5-1.5 1.5.67 1.5 1.5zm0-5.7c0 .84-.67 1.5-1.5 1.5s-1.5-.66-1.5-1.5c0-.82.67-1.5 1.5-1.5s1.5.68 1.5 1.5zm0-5.68c0 .83-.67 1.5-1.5 1.5s-1.5-.67-1.5-1.5.67-1.5 1.5-1.5 1.5.67 1.5 1.5zm0-5.7c0 .84-.67 1.5-1.5 1.5s-1.5-.66-1.5-1.5c0-.82.67-1.5 1.5-1.5s1.5.68 1.5 1.5zm0-5.68c0 .82-.67 1.5-1.5 1.5s-1.5-.68-1.5-1.5c0-.84.67-1.5 1.5-1.5s1.5.66 1.5 1.5zm0-5.7c0 .83-.67 1.5-1.5 1.5s-1.5-.67-1.5-1.5.67-1.5 1.5-1.5 1.5.67 1.5 1.5z" fill="#3a414a"/><path d="M1157.37 462.83h-2.95v-1.53h2.95z" stroke="#3a414a" stroke-width=".05" fill="#3a414a"/><path d="M1155.9 421.54V420" stroke="#3a414a" stroke-width="3" fill="none"/><path d="M1721.5 714.5h339.67" stroke="#000098" stroke-width="3" stroke-linecap="round" fill="none"/><path d="M1731 638.47h333.17" stroke="#ff4f00" stroke-width="2" stroke-linecap="round" fill="none"/><path d="M1700 575.67c22.1 0 40 17.9 40 40s-17.9 40-40 40h-80c-22.1 0-40-17.9-40-40s17.9-40 40-40z" stroke="#000098" stroke-width="4" fill="#fff"/><g><use xlink:href="#A" transform="matrix(1,0,0,1,1585,580.6666666666664) translate(49.23833333333333 26.841666666666665)"/><use xlink:href="#B" transform="matrix(1,0,0,1,1585,580.6666666666664) translate(24.071666666666673 57.15277777777777)"/></g><path d="M1720 671.6a6 6 0 0 1 6-6h108a6 6 0 0 1 6 6v39.28a6 6 0 0 1-6 6h-108a6 6 0 0 1-6-6z" fill="none"/><g><use xlink:href="#C" transform="matrix(1,0,0,1,1720,665.6088235294117) translate(39.28888888888889 33.31111111111111)"/></g><path d="M1843.95 672a6 6 0 0 1 6-6h207.22a6 6 0 0 1 6 6v35a6 6 0 0 1-6 6h-207.22a6 6 0 0 1-6-6z" stroke="#000" stroke-opacity="0" fill="#fff" fill-opacity="0"/><g><use xlink:href="#D" transform="matrix(1,0,0,1,1848.945887445887,671) translate(91.66666666666667 24.779166666666665)"/></g><defs><path fill="#0808f9" d="M310-401c-73-1-120 52-120 126v219c0 43-21 64-63 64-40 0-62-23-62-64v-378c0-40 22-63 61-63 67-4 64 65 61 131l-11-25c25-65 89-107 174-108 125 0 173 75 173 201v242c0 41-22 64-62 64s-63-23-63-64v-236c0-71-22-108-88-109" id="E"/><path fill="#0808f9" d="M376-104C360-34 310 9 226 10 123 7 43-45 43-145c0-156 171-141 338-145v72c-97 6-209-18-216 67 0 47 37 76 87 75 71-3 114-49 114-120v-115c14-127-153-103-229-63-63 33-90-68-29-90 51-19 104-34 166-35 140 0 212 63 211 203v240c0 40-19 64-58 64-58 2-63-52-59-112h8" id="F"/><path fill="#0808f9" d="M297-401c-70 0-105 55-105 130v215c0 43-21 64-63 64-40 0-62-23-62-64v-378c0-40 22-63 61-63 69-4 63 69 61 136l-11-30c24-62 80-108 162-108 85 1 132 42 150 114h-14c23-65 87-114 172-114 121 0 165 77 165 201v242c0 41-23 64-63 64s-62-23-62-64v-237c-1-69-16-107-81-108-70 0-105 55-105 130v215c0 41-22 64-62 64s-63-23-63-64v-237c-1-68-16-107-80-108" id="G"/><path fill="#0808f9" d="M156-255c-6 133 79 185 210 163 40-7 87-54 124-21 24 25 7 69-19 80C432-7 366 9 306 10 140 7 38-80 38-244c0-154 93-255 245-255 149 0 222 95 225 246 0 26-20 37-48 37H139v-72h281l-16 15c-1-85-34-139-116-141-91 2-128 66-132 159" id="H"/><path fill="#0808f9" d="M199-70c0 44-29 76-74 75-44 1-76-31-75-75-1-43 31-74 75-73 45-1 74 30 74 73zm0-350c0 43-29 75-74 74-44 1-76-31-75-74-1-44 31-75 75-74 45-1 74 30 74 74" id="I"/><path fill="#0808f9" d="M636-197C636-64 536 0 396 0H145c-44 0-68-24-68-68v-569c0-44 24-68 68-68h240c135 1 229 53 233 183 0 91-60 150-138 167v-15c92 13 156 72 156 173zm-124-6c0-144-181-98-312-106v212c131-7 312 37 312-106zm-18-304c0-132-169-96-294-101v202c125-5 294 31 294-101" id="J"/><path fill="#0808f9" d="M538-245c0 161-90 255-250 255C130 10 38-86 38-245c0-160 90-254 250-254 158 0 250 95 250 254zm-374 0c-2 94 40 160 124 160 88 0 123-67 124-160 2-95-40-159-124-159-88 0-124 66-124 159" id="K"/><path fill="#0808f9" d="M562-245C562-96 491 5 347 10c-83 1-153-48-170-114l11-25c2 67 8 141-61 137-40 0-62-23-62-64v-594c0-41 22-63 62-63s63 22 63 63v260h-12c19-63 87-110 169-109 144 5 215 105 215 254zm-374 0c-2 94 40 160 124 160 88 0 123-67 124-160 2-95-40-159-124-159-88 0-124 66-124 159" id="L"/><path fill="#0808f9" d="M124-143c91-4 87 128 54 193-16 26-43 94-90 70-37-35 29-75 28-104 5-17 7-32 7-45l5 34C83 6 49-25 50-70c0-43 30-74 74-73" id="M"/><g id="a"><use transform="matrix(0.02222222222222222,0,0,0.02222222222222222,0,0)" xlink:href="#E"/><use transform="matrix(0.02222222222222222,0,0,0.02222222222222222,12.999999999999998,0)" xlink:href="#F"/><use transform="matrix(0.02222222222222222,0,0,0.02222222222222222,25.15555555555555,0)" xlink:href="#G"/><use transform="matrix(0.02222222222222222,0,0,0.02222222222222222,44.64444444444444,0)" xlink:href="#H"/><use transform="matrix(0.02222222222222222,0,0,0.02222222222222222,56.68888888888888,0)" xlink:href="#I"/><use transform="matrix(0.02222222222222222,0,0,0.02222222222222222,62.199999999999996,0)" xlink:href="#J"/><use transform="matrix(0.02222222222222222,0,0,0.02222222222222222,77.48888888888888,0)" xlink:href="#K"/><use transform="matrix(0.02222222222222222,0,0,0.02222222222222222,90.28888888888888,0)" xlink:href="#L"/><use transform="matrix(0.02222222222222222,0,0,0.02222222222222222,103.22222222222221,0)" xlink:href="#M"/></g><path fill="#0808f9" d="M539-49c1 159-87 239-246 239-75 0-143-19-196-41-56-24-20-121 35-89 45 24 94 33 151 35 88 0 134-42 134-129v-90h9C409-59 337-11 256-12 114-16 38-111 38-256c0-146 74-237 218-243 82-1 152 46 169 111l-10 25c-3-67-7-138 62-134 40 0 62 22 62 63v385zM164-256c-2 85 45 149 126 149 86-2 124-61 126-149 2-86-45-148-126-148-85 3-125 60-126 148" id="N"/><path fill="#0808f9" d="M490-705c72-6 65 79 39 128L245-34c-12 49-119 61-129 2-2-12 1-27 9-42l302-568v44H103c-35 0-56-19-56-53 0-35 21-54 56-54h387" id="O"/><path fill="#0808f9" d="M556-54c0 35-20 54-55 54H133C78 6 59-48 81-90c6-11 15-22 26-34l201-214c48-53 81-89 86-167 7-129-186-119-260-60-58 44-110-54-51-91 52-33 124-58 204-59 142 1 234 59 234 197 0 119-61 182-126 250L207-72v-34h294c35 0 55 17 55 52" id="P"/><g id="b"><use transform="matrix(0.02222222222222222,0,0,0.02222222222222222,0,0)" xlink:href="#F"/><use transform="matrix(0.02222222222222222,0,0,0.02222222222222222,12.155555555555555,0)" xlink:href="#N"/><use transform="matrix(0.02222222222222222,0,0,0.02222222222222222,25.577777777777776,0)" xlink:href="#H"/><use transform="matrix(0.02222222222222222,0,0,0.02222222222222222,37.62222222222222,0)" xlink:href="#I"/><use transform="matrix(0.02222222222222222,0,0,0.02222222222222222,43.13333333333333,0)" xlink:href="#O"/><use transform="matrix(0.02222222222222222,0,0,0.02222222222222222,56.46666666666667,0)" xlink:href="#P"/></g><path fill="#ff4f00" d="M205-58c0 41-22 66-64 66-41 0-64-25-64-66v-589c0-42 22-66 64-66s64 24 64 66v589" id="Q"/><path fill="#ff4f00" d="M310-401c-73-1-120 52-120 126v219c0 43-21 64-63 64-40 0-62-23-62-64v-378c0-40 22-63 61-63 67-4 64 65 61 131l-11-25c25-65 89-107 174-108 125 0 173 75 173 201v242c0 41-22 64-62 64s-63-23-63-64v-236c0-71-22-108-88-109" id="R"/><path fill="#ff4f00" d="M190 125c0 41-23 63-63 63s-62-22-62-63v-559c0-40 22-63 61-63 72-5 63 73 62 141l-11-30c18-65 87-114 170-113 143 6 215 105 215 254S492 5 347 10c-82 1-150-47-169-110h12v225zm-2-370c-2 94 40 160 124 160 88 0 123-67 124-160 2-95-40-159-124-159-88 0-124 66-124 159" id="S"/><path fill="#ff4f00" d="M406-102C381-36 327 9 242 10 115 10 62-64 62-192v-242c0-42 21-63 62-63s63 21 63 63v244c0 67 23 101 88 102 68 1 114-55 114-126v-220c0-42 21-63 62-63s63 21 63 63v378c0 43-20 64-61 64-70 4-62-72-61-140" id="T"/><path fill="#ff4f00" d="M390-58c0 61-48 65-101 68C161 10 95-54 95-182v-213c-51 2-102 4-102-47 0-52 51-49 102-47 0-72-15-154 63-154 77 0 61 83 62 154 62 6 156-23 156 47 0 69-94 41-156 47v206c1 64 25 96 89 96 40-3 81-24 81 35" id="U"/><g id="c"><use transform="matrix(0.022222222222222223,0,0,0.022222222222222223,0,0)" xlink:href="#Q"/><use transform="matrix(0.022222222222222223,0,0,0.022222222222222223,6.266666666666667,0)" xlink:href="#R"/><use transform="matrix(0.022222222222222223,0,0,0.022222222222222223,19.266666666666666,0)" xlink:href="#S"/><use transform="matrix(0.022222222222222223,0,0,0.022222222222222223,32.6,0)" xlink:href="#T"/><use transform="matrix(0.022222222222222223,0,0,0.022222222222222223,45.46666666666667,0)" xlink:href="#U"/></g><path fill="#ff4f00" d="M554-51c0 33-19 51-52 51H145c-44 0-68-24-68-68v-569c0-44 24-68 68-68h357c33 0 52 18 52 50 0 33-19 52-52 52H200v194h280c34 0 52 17 52 51s-18 51-52 51H200v205h302c33 0 52 18 52 51" id="V"/><path fill="#ff4f00" d="M337-45c-9 42-70 71-117 40-12-9-23-22-31-40L30-414c-33-61 38-104 91-72 9 7 18 20 25 39l135 337h-30l139-338c5-57 106-69 116-8 2 12 0 26-7 41" id="W"/><path fill="#ff4f00" d="M156-255c-6 133 79 185 210 163 40-7 87-54 124-21 24 25 7 69-19 80C432-7 366 9 306 10 140 7 38-80 38-244c0-154 93-255 245-255 149 0 222 95 225 246 0 26-20 37-48 37H139v-72h281l-16 15c-1-85-34-139-116-141-91 2-128 66-132 159" id="X"/><g id="d"><use transform="matrix(0.022222222222222223,0,0,0.022222222222222223,0,0)" xlink:href="#V"/><use transform="matrix(0.022222222222222223,0,0,0.022222222222222223,13.088888888888889,0)" xlink:href="#W"/><use transform="matrix(0.022222222222222223,0,0,0.022222222222222223,24.577777777777783,0)" xlink:href="#X"/><use transform="matrix(0.022222222222222223,0,0,0.022222222222222223,36.62222222222223,0)" xlink:href="#R"/><use transform="matrix(0.022222222222222223,0,0,0.022222222222222223,49.62222222222223,0)" xlink:href="#U"/></g><path fill="#ff4f00" d="M598-202C604 37 248 47 79-50 39-73 40-151 89-157c11-2 22 1 35 9 80 56 347 94 347-45 0-96-139-89-223-111-110-29-188-72-188-193 0-187 202-251 389-203 46 12 101 29 119 71 21 49-32 91-77 61-83-54-304-68-304 66 0 99 132 92 215 114 112 29 191 66 196 186" id="Y"/><path fill="#ff4f00" d="M192-56c0 41-22 64-63 64S65-15 65-56v-378c0-40 22-63 61-63 65-4 64 61 61 126h-10c19-80 74-117 164-128 47-6 61 59 37 89-12 15-37 19-63 21-77 6-122 45-123 126v207" id="Z"/><path fill="#ff4f00" d="M376-104C360-34 310 9 226 10 123 7 43-45 43-145c0-156 171-141 338-145v72c-97 6-209-18-216 67 0 47 37 76 87 75 71-3 114-49 114-120v-115c14-127-153-103-229-63-63 33-90-68-29-90 51-19 104-34 166-35 140 0 212 63 211 203v240c0 40-19 64-58 64-58 2-63-52-59-112h8" id="aa"/><path fill="#ff4f00" d="M297-401c-70 0-105 55-105 130v215c0 43-21 64-63 64-40 0-62-23-62-64v-378c0-40 22-63 61-63 69-4 63 69 61 136l-11-30c24-62 80-108 162-108 85 1 132 42 150 114h-14c23-65 87-114 172-114 121 0 165 77 165 201v242c0 41-23 64-63 64s-62-23-62-64v-237c-1-69-16-107-81-108-70 0-105 55-105 130v215c0 41-22 64-62 64s-63-23-63-64v-237c-1-68-16-107-80-108" id="ab"/><g id="e"><use transform="matrix(0.022222222222222223,0,0,0.022222222222222223,0,0)" xlink:href="#Y"/><use transform="matrix(0.022222222222222223,0,0,0.022222222222222223,13.911111111111111,0)" xlink:href="#U"/><use transform="matrix(0.022222222222222223,0,0,0.022222222222222223,22.444444444444443,0)" xlink:href="#Z"/><use transform="matrix(0.022222222222222223,0,0,0.022222222222222223,30.977777777777778,0)" xlink:href="#X"/><use transform="matrix(0.022222222222222223,0,0,0.022222222222222223,43.022222222222226,0)" xlink:href="#aa"/><use transform="matrix(0.022222222222222223,0,0,0.022222222222222223,55.17777777777778,0)" xlink:href="#ab"/></g><g id="f"><use transform="matrix(0.031111111111111103,0,0,0.031111111111111103,0,0)" xlink:href="#E"/><use transform="matrix(0.031111111111111103,0,0,0.031111111111111103,18.199999999999996,0)" xlink:href="#F"/><use transform="matrix(0.031111111111111103,0,0,0.031111111111111103,35.21777777777777,0)" xlink:href="#G"/><use transform="matrix(0.031111111111111103,0,0,0.031111111111111103,62.50222222222221,0)" xlink:href="#H"/></g><g id="g"><use transform="matrix(0.031111111111111103,0,0,0.031111111111111103,0,0)" xlink:href="#F"/><use transform="matrix(0.031111111111111103,0,0,0.031111111111111103,17.017777777777773,0)" xlink:href="#N"/><use transform="matrix(0.031111111111111103,0,0,0.031111111111111103,35.80888888888888,0)" xlink:href="#H"/></g><g id="h"><use transform="matrix(0.022222222222222223,0,0,0.022222222222222223,0,0)" xlink:href="#V"/><use transform="matrix(0.022222222222222223,0,0,0.022222222222222223,13.088888888888889,0)" xlink:href="#W"/><use transform="matrix(0.022222222222222223,0,0,0.022222222222222223,24.577777777777783,0)" xlink:href="#X"/><use transform="matrix(0.022222222222222223,0,0,0.022222222222222223,36.62222222222223,0)" xlink:href="#R"/><use transform="matrix(0.022222222222222223,0,0,0.022222222222222223,49.62222222222223,0)" xlink:href="#U"/></g><g id="i"><use transform="matrix(0.022222222222222223,0,0,0.022222222222222223,0,0)" xlink:href="#aa"/><use transform="matrix(0.022222222222222223,0,0,0.022222222222222223,12.155555555555557,0)" xlink:href="#U"/></g><path fill="#ff4f00" d="M553-54c0 34-21 54-55 54H156c-34 0-55-21-55-54-3-76 100-46 167-52v-491h62l-147 89c-61 41-114-58-51-93 60-33 115-73 178-103 39-18 86-8 86 40v558c65 5 161-21 157 52" id="ac"/><g id="j"><use transform="matrix(0.022222222222222223,0,0,0.022222222222222223,0,0)" xlink:href="#U"/><use transform="matrix(0.013333333333333329,0,0,0.013333333333333329,8.533333333333333,0)" xlink:href="#ac"/></g><path fill="#ff4f00" d="M556-54c0 35-20 54-55 54H133C78 6 59-48 81-90c6-11 15-22 26-34l201-214c48-53 81-89 86-167 7-129-186-119-260-60-58 44-110-54-51-91 52-33 124-58 204-59 142 1 234 59 234 197 0 119-61 182-126 250L207-72v-34h294c35 0 55 17 55 52" id="ad"/><g id="k"><use transform="matrix(0.022222222222222223,0,0,0.022222222222222223,0,0)" xlink:href="#U"/><use transform="matrix(0.013333333333333329,0,0,0.013333333333333329,8.533333333333333,0)" xlink:href="#ad"/></g><path fill="#ff4f00" d="M541-193C541-14 352 38 174-4 123-19 66-34 46-76c-23-49 32-91 79-63 81 53 292 76 292-65 0-96-93-103-195-99-36 1-57-19-57-53-3-55 53-53 109-53 73 0 120-33 122-104 4-123-187-107-260-54-60 43-110-55-50-91 53-32 121-56 202-57 135 2 232 56 232 187 0 93-54 149-131 169v-12c90 13 152 79 152 178" id="ae"/><g id="l"><use transform="matrix(0.022222222222222223,0,0,0.022222222222222223,0,0)" xlink:href="#U"/><use transform="matrix(0.013333333333333329,0,0,0.013333333333333329,8.533333333333333,0)" xlink:href="#ae"/></g><path fill="#0808f9" d="M124-5C98 24 27 6 28-32c-2-12 0-27 7-42l264-585c14-45 69-70 115-41 12 8 23 22 32 41L711-74c38 62-39 106-89 68-42-51-62-130-93-192l54 35H161l54-35c-30 62-48 145-91 193zm247-561L231-233l-26-32h334l-25 32c-48-111-93-225-143-333" id="af"/><path fill="#0808f9" d="M318-49c3 52-36 60-86 59C117 10 65-59 65-177v-473c0-41 22-63 62-63s63 22 63 63v467c-2 68 36 99 104 88 25-1 22 15 24 46" id="ag"/><path fill="#0808f9" d="M190-61c0 42-21 68-63 68-41 0-62-27-62-68v-367c0-42 21-68 62-68s63 26 63 68v367zm11-594c0 43-29 67-74 66-44 1-74-23-74-66 0-44 29-66 74-66 46 0 74 22 74 66" id="ah"/><path fill="#0808f9" d="M166-246c-8 131 115 199 225 134 54-34 91 55 40 84-37 23-87 37-140 38C131 7 40-87 38-247c-2-185 134-279 324-243 48 8 129 47 84 108-44 38-86-24-144-20-94 7-130 60-136 156" id="ai"/><g id="m"><use transform="matrix(0.022222222222222223,0,0,0.022222222222222223,0,0)" xlink:href="#af"/><use transform="matrix(0.022222222222222223,0,0,0.022222222222222223,16.533333333333335,0)" xlink:href="#ag"/><use transform="matrix(0.022222222222222223,0,0,0.022222222222222223,23.622222222222224,0)" xlink:href="#ah"/><use transform="matrix(0.022222222222222223,0,0,0.022222222222222223,29.28888888888889,0)" xlink:href="#ai"/><use transform="matrix(0.022222222222222223,0,0,0.022222222222222223,39.55555555555556,0)" xlink:href="#H"/></g><path fill="#0808f9" d="M553-54c0 34-21 54-55 54H156c-34 0-55-21-55-54-3-76 100-46 167-52v-491h62l-147 89c-61 41-114-58-51-93 60-33 115-73 178-103 39-18 86-8 86 40v558c65 5 161-21 157 52" id="aj"/><path fill="#0808f9" d="M562-223C565-35 388 44 198-4 151-18 92-34 72-76c-22-48 29-94 76-65 45 25 91 42 156 43 81-1 129-41 134-120 9-131-171-162-248-78-24 32-104 34-104-26v-327c0-36 20-56 56-56h329c35 0 56 18 56 53 0 34-21 53-56 53H211v224h-33c31-44 91-73 163-73 138 4 219 87 221 225" id="ak"/><g id="n"><use transform="matrix(0.022222222222222223,0,0,0.022222222222222223,0,0)" xlink:href="#aj"/><use transform="matrix(0.022222222222222223,0,0,0.022222222222222223,13.333333333333334,0)" xlink:href="#ak"/></g><g id="o"><use transform="matrix(0.022222222222222223,0,0,0.022222222222222223,0,0)" xlink:href="#J"/><use transform="matrix(0.022222222222222223,0,0,0.022222222222222223,15.28888888888889,0)" xlink:href="#K"/><use transform="matrix(0.022222222222222223,0,0,0.022222222222222223,28.08888888888889,0)" xlink:href="#L"/></g><g id="p"><use transform="matrix(0.022222222222222223,0,0,0.022222222222222223,0,0)" xlink:href="#O"/><use transform="matrix(0.022222222222222223,0,0,0.022222222222222223,13.333333333333334,0)" xlink:href="#P"/></g><path fill="#0808f9" d="M190-353c-4 180 111 280 294 239 49-11 129-80 155 0 7 74-66 86-121 108-37 10-75 16-113 16C179 6 57-127 54-353c-4-263 190-411 459-348 57 13 132 32 124 107-4 38-53 58-88 31-36-24-84-37-140-38-151 2-216 94-219 248" id="al"/><path fill="#0808f9" d="M192-56c0 41-22 64-63 64S65-15 65-56v-378c0-40 22-63 61-63 65-4 64 61 61 126h-10c19-80 74-117 164-128 47-6 61 59 37 89-12 15-37 19-63 21-77 6-122 45-123 126v207" id="am"/><g id="q"><use transform="matrix(0.022222222222222223,0,0,0.022222222222222223,0,0)" xlink:href="#al"/><use transform="matrix(0.022222222222222223,0,0,0.022222222222222223,14.711111111111112,0)" xlink:href="#F"/><use transform="matrix(0.022222222222222223,0,0,0.022222222222222223,26.866666666666667,0)" xlink:href="#am"/><use transform="matrix(0.022222222222222223,0,0,0.022222222222222223,35.400000000000006,0)" xlink:href="#K"/><use transform="matrix(0.022222222222222223,0,0,0.022222222222222223,48.2,0)" xlink:href="#ag"/><use transform="matrix(0.022222222222222223,0,0,0.022222222222222223,55.17777777777778,0)" xlink:href="#H"/></g><path fill="#ff4f00" d="M375-58c0 41-22 66-64 66-41 0-64-25-64-66v-540H52c-34 0-55-21-55-54 0-35 21-53 55-53h518c34 0 55 18 55 53 0 33-21 54-55 54H375v540" id="an"/><path fill="#ff4f00" d="M562-245C562-96 491 5 347 10c-83 1-153-48-170-114l11-25c2 67 8 141-61 137-40 0-62-23-62-64v-594c0-41 22-63 62-63s63 22 63 63v260h-12c19-63 87-110 169-109 144 5 215 105 215 254zm-374 0c-2 94 40 160 124 160 88 0 123-67 124-160 2-95-40-159-124-159-88 0-124 66-124 159" id="ao"/><path fill="#ff4f00" d="M318-49c3 52-36 60-86 59C117 10 65-59 65-177v-473c0-41 22-63 62-63s63 22 63 63v467c-2 68 36 99 104 88 25-1 22 15 24 46" id="ap"/><g id="r"><use transform="matrix(0.022222222222222223,0,0,0.022222222222222223,0,0)" xlink:href="#an"/><use transform="matrix(0.022222222222222223,0,0,0.022222222222222223,12.066666666666666,0)" xlink:href="#aa"/><use transform="matrix(0.022222222222222223,0,0,0.022222222222222223,24.22222222222222,0)" xlink:href="#ao"/><use transform="matrix(0.022222222222222223,0,0,0.022222222222222223,37.55555555555556,0)" xlink:href="#ap"/><use transform="matrix(0.022222222222222223,0,0,0.022222222222222223,44.53333333333333,0)" xlink:href="#X"/></g><path fill="#ff4f00" d="M190-61c0 42-21 68-63 68-41 0-62-27-62-68v-367c0-42 21-68 62-68s63 26 63 68v367zm11-594c0 43-29 67-74 66-44 1-74-23-74-66 0-44 29-66 74-66 46 0 74 22 74 66" id="aq"/><g id="s"><use transform="matrix(0.022222222222222223,0,0,0.022222222222222223,0,0)" xlink:href="#U"/><use transform="matrix(0.022222222222222223,0,0,0.022222222222222223,8.822222222222223,0)" xlink:href="#aq"/><use transform="matrix(0.022222222222222223,0,0,0.022222222222222223,14.488888888888889,0)" xlink:href="#ab"/><use transform="matrix(0.022222222222222223,0,0,0.022222222222222223,33.97777777777778,0)" xlink:href="#X"/></g><g id="t"><use transform="matrix(0.022222222222222223,0,0,0.022222222222222223,0,0)" xlink:href="#U"/><use transform="matrix(0.015555555555555552,0,0,0.015555555555555552,8.533333333333333,0)" xlink:href="#ae"/></g><g id="u"><use transform="matrix(0.022222222222222223,0,0,0.022222222222222223,0,0)" xlink:href="#an"/><use transform="matrix(0.022222222222222223,0,0,0.022222222222222223,15.022222222222222,0)" xlink:href="#aq"/><use transform="matrix(0.022222222222222223,0,0,0.022222222222222223,20.68888888888889,0)" xlink:href="#ab"/><use transform="matrix(0.022222222222222223,0,0,0.022222222222222223,40.17777777777778,0)" xlink:href="#X"/></g><g id="v"><use transform="matrix(0.022222222222222223,0,0,0.022222222222222223,0,0)" xlink:href="#U"/><use transform="matrix(0.015555555555555552,0,0,0.015555555555555552,8.533333333333333,0)" xlink:href="#ae"/></g><g id="w"><use transform="matrix(0.02222222222222222,0,0,0.02222222222222222,0,0)" xlink:href="#E"/><use transform="matrix(0.02222222222222222,0,0,0.02222222222222222,12.999999999999998,0)" xlink:href="#F"/><use transform="matrix(0.02222222222222222,0,0,0.02222222222222222,25.15555555555555,0)" xlink:href="#G"/><use transform="matrix(0.02222222222222222,0,0,0.02222222222222222,44.64444444444444,0)" xlink:href="#H"/><use transform="matrix(0.02222222222222222,0,0,0.02222222222222222,56.68888888888888,0)" xlink:href="#I"/><use transform="matrix(0.02222222222222222,0,0,0.02222222222222222,62.199999999999996,0)" xlink:href="#al"/><use transform="matrix(0.02222222222222222,0,0,0.02222222222222222,76.91111111111111,0)" xlink:href="#F"/><use transform="matrix(0.02222222222222222,0,0,0.02222222222222222,89.06666666666666,0)" xlink:href="#am"/><use transform="matrix(0.02222222222222222,0,0,0.02222222222222222,97.6,0)" xlink:href="#K"/><use transform="matrix(0.02222222222222222,0,0,0.02222222222222222,110.39999999999999,0)" xlink:href="#ag"/><use transform="matrix(0.02222222222222222,0,0,0.02222222222222222,117.37777777777777,0)" xlink:href="#H"/><use transform="matrix(0.02222222222222222,0,0,0.02222222222222222,129.42222222222222,0)" xlink:href="#M"/></g><path fill="#0808f9" d="M541-193C541-14 352 38 174-4 123-19 66-34 46-76c-23-49 32-91 79-63 81 53 292 76 292-65 0-96-93-103-195-99-36 1-57-19-57-53-3-55 53-53 109-53 73 0 120-33 122-104 4-123-187-107-260-54-60 43-110-55-50-91 53-32 121-56 202-57 135 2 232 56 232 187 0 93-54 149-131 169v-12c90 13 152 79 152 178" id="ar"/><g id="x"><use transform="matrix(0.02222222222222222,0,0,0.02222222222222222,0,0)" xlink:href="#F"/><use transform="matrix(0.02222222222222222,0,0,0.02222222222222222,12.155555555555555,0)" xlink:href="#N"/><use transform="matrix(0.02222222222222222,0,0,0.02222222222222222,25.577777777777776,0)" xlink:href="#H"/><use transform="matrix(0.02222222222222222,0,0,0.02222222222222222,37.62222222222222,0)" xlink:href="#I"/><use transform="matrix(0.02222222222222222,0,0,0.02222222222222222,43.13333333333333,0)" xlink:href="#ar"/></g><g id="y"><use transform="matrix(0.02222222222222222,0,0,0.02222222222222222,0,0)" xlink:href="#F"/><use transform="matrix(0.02222222222222222,0,0,0.02222222222222222,12.155555555555555,0)" xlink:href="#N"/><use transform="matrix(0.02222222222222222,0,0,0.02222222222222222,25.577777777777776,0)" xlink:href="#H"/><use transform="matrix(0.02222222222222222,0,0,0.02222222222222222,37.62222222222222,0)" xlink:href="#I"/><use transform="matrix(0.02222222222222222,0,0,0.02222222222222222,43.13333333333333,0)" xlink:href="#P"/><use transform="matrix(0.02222222222222222,0,0,0.02222222222222222,56.46666666666667,0)" xlink:href="#P"/></g><use transform="matrix(0.022222222222222223,0,0,0.022222222222222223,0,0)" xlink:href="#ar" id="z"/><path fill="#ff4f00" d="M169-36c0 27-13 43-41 43-27 0-41-17-41-43v-633c0-27 14-43 41-43s41 16 41 43v633" id="as"/><path fill="#ff4f00" d="M303-429c-89-1-146 62-146 152v242c0 28-14 42-41 42S76-9 76-35v-417c0-26 13-41 39-41 58-3 36 76 40 127l-11-12c24-71 88-116 178-117 121 0 173 69 173 192v268c0 26-14 42-40 42-27 0-41-16-41-42v-263c0-86-29-130-111-131" id="at"/><path fill="#ff4f00" d="M157 146c0 26-16 41-41 41-27 0-40-14-40-41v-598c0-26 13-41 39-41 62-3 35 83 41 136l-11-14c19-72 87-125 177-124 144 5 215 103 215 252C537-95 466 5 322 9c-90 1-157-52-177-123h12v260zm-2-389c-2 109 51 187 150 187 105 0 149-78 150-187 2-110-49-187-150-187-104 0-149 77-150 187" id="au"/><path fill="#ff4f00" d="M419-112C396-41 336 8 248 9 126 9 73-61 73-184v-268c0-27 14-41 40-41 27 0 41 13 41 41v267c0 82 30 126 110 127 84 1 140-66 140-152v-242c0-28 14-41 41-41 26 0 40 14 40 41v417c0 28-13 42-39 42-59 2-35-80-40-133" id="av"/><path fill="#ff4f00" d="M282-60c33 1 76-28 76 22 0 45-48 47-87 47C156 9 99-53 99-168v-255C58-426-5-409-3-455c-1-45 61-27 102-31 8-58-25-157 41-156 65 0 32 99 40 156h126c22 0 35 10 35 31s-13 32-35 32H180v247c1 74 28 116 102 116" id="aw"/><g id="A"><use transform="matrix(0.022222222222222223,0,0,0.022222222222222223,0,0)" xlink:href="#as"/><use transform="matrix(0.022222222222222223,0,0,0.022222222222222223,5.711111111111111,0)" xlink:href="#at"/><use transform="matrix(0.022222222222222223,0,0,0.022222222222222223,18.333333333333336,0)" xlink:href="#au"/><use transform="matrix(0.022222222222222223,0,0,0.022222222222222223,31.28888888888889,0)" xlink:href="#av"/><use transform="matrix(0.022222222222222223,0,0,0.022222222222222223,43.75555555555556,0)" xlink:href="#aw"/></g><path fill="#ff4f00" d="M149-353c1 174 74 285 245 287 74-1 130-23 174-58 41-36 83 28 43 60C558-22 484 9 392 9 173 5 61-131 61-353c0-223 111-354 331-361 88 0 165 27 215 69 30 14 24 75-14 73-40-10-67-46-106-53-29-9-60-14-93-14-170 2-244 112-245 286" id="ax"/><path fill="#ff4f00" d="M510-243C510-88 430 9 278 9 127 9 46-90 46-243c0-155 80-252 232-252 151 0 232 99 232 252zm-382 0c-2 109 51 187 150 187 104 0 149-78 150-187 2-110-49-187-150-187-105 0-149 77-150 187" id="ay"/><path fill="#ff4f00" d="M124-250c-6 147 95 221 238 185 36-1 72-52 110-31 18 14 10 47-10 55C423-12 359 9 295 9 137 6 46-84 46-242c0-151 86-253 234-253 142 0 208 94 211 238 0 22-13 31-35 31H108v-53h329l-16 13c-1-101-40-167-139-169-108 2-153 76-158 185" id="az"/><path fill="#ff4f00" d="M129-245c-5 127 79 212 209 180 29-7 81-66 102-11 3 47-53 59-84 74C174 44 46-68 46-246c0-181 128-280 311-238 31 10 67 26 84 55 9 31-23 55-49 36-28-23-61-35-105-36-110 3-157 71-158 184" id="aA"/><path fill="#ff4f00" d="M158-35c0 26-14 42-41 42S76-9 76-35v-417c0-26 13-41 39-41 57-3 36 72 40 122h-10c19-76 82-118 172-125 34-3 43 39 26 59-8 10-27 12-44 14-86 7-141 56-141 146v242" id="aB"/><g id="B"><use transform="matrix(0.022222222222222223,0,0,0.022222222222222223,0,0)" xlink:href="#ax"/><use transform="matrix(0.022222222222222223,0,0,0.022222222222222223,14.177777777777779,0)" xlink:href="#ay"/><use transform="matrix(0.022222222222222223,0,0,0.022222222222222223,26.533333333333328,0)" xlink:href="#at"/><use transform="matrix(0.022222222222222223,0,0,0.022222222222222223,39.15555555555555,0)" xlink:href="#at"/><use transform="matrix(0.022222222222222223,0,0,0.022222222222222223,51.77777777777777,0)" xlink:href="#az"/><use transform="matrix(0.022222222222222223,0,0,0.022222222222222223,63.599999999999994,0)" xlink:href="#aA"/><use transform="matrix(0.022222222222222223,0,0,0.022222222222222223,73.88888888888889,0)" xlink:href="#aw"/><use transform="matrix(0.022222222222222223,0,0,0.022222222222222223,81.55555555555554,0)" xlink:href="#ay"/><use transform="matrix(0.022222222222222223,0,0,0.022222222222222223,93.9111111111111,0)" xlink:href="#aB"/></g><path fill="#ff4f00" d="M636-197C636-64 536 0 396 0H145c-44 0-68-24-68-68v-569c0-44 24-68 68-68h240c135 1 229 53 233 183 0 91-60 150-138 167v-15c92 13 156 72 156 173zm-124-6c0-144-181-98-312-106v212c131-7 312 37 312-106zm-18-304c0-132-169-96-294-101v202c125-5 294 31 294-101" id="aC"/><path fill="#ff4f00" d="M538-245c0 161-90 255-250 255C130 10 38-86 38-245c0-160 90-254 250-254 158 0 250 95 250 254zm-374 0c-2 94 40 160 124 160 88 0 123-67 124-160 2-95-40-159-124-159-88 0-124 66-124 159" id="aD"/><g id="C"><use transform="matrix(0.022222222222222223,0,0,0.022222222222222223,0,0)" xlink:href="#aC"/><use transform="matrix(0.022222222222222223,0,0,0.022222222222222223,15.28888888888889,0)" xlink:href="#aD"/><use transform="matrix(0.022222222222222223,0,0,0.022222222222222223,28.08888888888889,0)" xlink:href="#ao"/></g><g id="D"><use transform="matrix(0.022222222222222223,0,0,0.022222222222222223,0,0)" xlink:href="#ad"/><use transform="matrix(0.022222222222222223,0,0,0.022222222222222223,13.333333333333334,0)" xlink:href="#ad"/></g></defs></g></svg>