<svg xmlns="http://www.w3.org/2000/svg" xmlns:xlink="http://www.w3.org/1999/xlink" xmlns:lucid="lucid" width="1657.78" height="426.37"><g transform="translate(-359.7172373081459 -496)" lucid:page-tab-id="0_0"><path d="M0 500h2000v500H0z" fill="#fff"/><path d="M381.22 606a6 6 0 0 1 6-6h330.66a6 6 0 0 1 6 6v95a6 6 0 0 1-6 6H387.22a6 6 0 0 1-6-6zM1640 606a6 6 0 0 1 6-6h330.67a6 6 0 0 1 6 6v208a6 6 0 0 1-6 6H1646a6 6 0 0 1-6-6z" stroke="#000098" stroke-width="3" fill-opacity="0"/><path d="M1020 626a6 6 0 0 1 6-6h231.6a6 6 0 0 1 6 6v43.67a6 6 0 0 1-6 6H1026a6 6 0 0 1-6-6z" stroke="#000098" stroke-width="3" fill="#fff"/><use xlink:href="#a" transform="matrix(1,0,0,1,1032,632) translate(10.7777777777778 24.46666666666666)"/><use xlink:href="#b" transform="matrix(1,0,0,1,1032,632) translate(146.35555555555553 24.46666666666666)"/><path d="M1440 696.5a6 6 0 0 1 6-6h112a6 6 0 0 0 6-6v-8a2.3 2.3 0 0 1 4-1.54l28 31.08a6.67 6.67 0 0 1 0 8.92l-28 31.08a2.3 2.3 0 0 1-4-1.54v-8a6 6 0 0 0-6-6h-112a6 6 0 0 1-6-6z" stroke="#000098" stroke-width="3" fill="#fff"/><path d="M382.72 661.56h339.66" stroke="#000098" stroke-width="3" stroke-linecap="round" fill="none"/><path d="M440 606.5a6 6 0 0 1 6-6h207.22a6 6 0 0 1 6 6v40.44a6 6 0 0 1-6 6H446a6 6 0 0 1-6-6z" stroke="#000" stroke-opacity="0" fill="#fff" fill-opacity="0"/><use xlink:href="#c" transform="matrix(1,0,0,1,445,605.5) translate(40.69333333333334 34.14083333333332)"/><path d="M1265.9 626a6 6 0 0 1 6-6h108a6 6 0 0 1 6 6v48a6 6 0 0 1-6 6h-108a6 6 0 0 1-6-6z" stroke="#000" stroke-opacity="0" fill="#fff" fill-opacity="0"/><use xlink:href="#d" transform="matrix(1,0,0,1,1270.906666666667,625) translate(16.94444444444445 31.841666666666665)"/><use xlink:href="#e" transform="matrix(1,0,0,1,1270.906666666667,625) translate(75.1888888888889 31.841666666666665)"/><path d="M1265.9 732.83a6 6 0 0 1 6-6h108a6 6 0 0 1 6 6v48a6 6 0 0 1-6 6h-108a6 6 0 0 1-6-6z" stroke="#000" stroke-opacity="0" fill="#fff" fill-opacity="0"/><use xlink:href="#d" transform="matrix(1,0,0,1,1270.9066666666672,731.8333333333335) translate(16.94444444444445 31.841666666666665)"/><use xlink:href="#e" transform="matrix(1,0,0,1,1270.9066666666672,731.8333333333335) translate(75.1888888888889 31.841666666666665)"/><path d="M440 666a6 6 0 0 1 6-6h207.22a6 6 0 0 1 6 6v35a6 6 0 0 1-6 6H446a6 6 0 0 1-6-6z" stroke="#000" stroke-opacity="0" fill="#fff" fill-opacity="0"/><use xlink:href="#f" transform="matrix(1,0,0,1,445,665) translate(91.66666666666667 24.779166666666665)"/><path d="M431.33 706a6 6 0 0 1 6-6h228a6 6 0 0 1 6 6v88.93a6 6 0 0 1-6 6h-228a6 6 0 0 1-6-6z" stroke="#000" stroke-opacity="0" fill="#fff" fill-opacity="0"/><use xlink:href="#g" transform="matrix(1,0,0,1,436.33333333333303,705) translate(23.544444444444437 36.68541666666667)"/><use xlink:href="#h" transform="matrix(1,0,0,1,436.33333333333303,705) translate(153.4111111111111 36.68541666666667)"/><use xlink:href="#i" transform="matrix(1,0,0,1,436.33333333333303,705) translate(66.6888888888889 66.99652777777777)"/><use xlink:href="#j" transform="matrix(1,0,0,1,436.33333333333303,705) translate(93.4 66.99652777777777)"/><use xlink:href="#k" transform="matrix(1,0,0,1,436.33333333333303,705) translate(145.44444444444446 66.99652777777777)"/><path d="M1020 726a6 6 0 0 1 6-6h231.6a6 6 0 0 1 6 6v43.67a6 6 0 0 1-6 6H1026a6 6 0 0 1-6-6z" stroke="#000098" stroke-width="3" fill="#fff"/><use xlink:href="#l" transform="matrix(1,0,0,1,1032,732) translate(15.400000000000034 24.46666666666666)"/><use xlink:href="#m" transform="matrix(1,0,0,1,1032,732) translate(150.97777777777776 24.46666666666666)"/><path d="M1143.3 617c0 .83-.67 1.5-1.5 1.5-.82 0-1.5-.67-1.5-1.5s.68-1.5 1.5-1.5c.83 0 1.5.67 1.5 1.5zm0-6.08c0 .83-.67 1.5-1.5 1.5-.82 0-1.5-.67-1.5-1.5s.68-1.5 1.5-1.5c.83 0 1.5.67 1.5 1.5zm0-6.08c0 .83-.67 1.5-1.5 1.5-.82 0-1.5-.67-1.5-1.5s.68-1.5 1.5-1.5c.83 0 1.5.67 1.5 1.5zm0-6.08c0 .83-.67 1.5-1.5 1.5-.82 0-1.5-.67-1.5-1.5s.68-1.5 1.5-1.5c.83 0 1.5.67 1.5 1.5zm0-6.08c0 .83-.67 1.5-1.5 1.5-.82 0-1.5-.67-1.5-1.5 0-.82.68-1.5 1.5-1.5.83 0 1.5.68 1.5 1.5zm0-6.07c0 .83-.67 1.5-1.5 1.5-.82 0-1.5-.67-1.5-1.5 0-.82.68-1.5 1.5-1.5.83 0 1.5.68 1.5 1.5zm0-6.07c0 .83-.67 1.5-1.5 1.5-.82 0-1.5-.67-1.5-1.5s.68-1.5 1.5-1.5c.83 0 1.5.67 1.5 1.5zm0-6.08c0 .83-.67 1.5-1.5 1.5-.82 0-1.5-.67-1.5-1.5s.68-1.5 1.5-1.5c.83 0 1.5.67 1.5 1.5zm0-6.08c0 .83-.67 1.5-1.5 1.5-.82 0-1.5-.67-1.5-1.5s.68-1.5 1.5-1.5c.83 0 1.5.67 1.5 1.5zm0-6.08c0 .82-.67 1.5-1.5 1.5-.82 0-1.5-.68-1.5-1.5 0-.84.68-1.5 1.5-1.5.83 0 1.5.66 1.5 1.5zm0-6.1c0 .84-.67 1.5-1.5 1.5-.82 0-1.5-.66-1.5-1.5 0-.82.68-1.5 1.5-1.5.83 0 1.5.68 1.5 1.5zm0-6.07c0 .83-.67 1.5-1.5 1.5-.82 0-1.5-.67-1.5-1.5s.68-1.5 1.5-1.5c.83 0 1.5.67 1.5 1.5zm0-6.08c0 .83-.67 1.5-1.5 1.5-.82 0-1.5-.67-1.5-1.5s.68-1.5 1.5-1.5c.83 0 1.5.67 1.5 1.5zm0-6.08c0 .83-.67 1.5-1.5 1.5-.82 0-1.5-.67-1.5-1.5s.68-1.5 1.5-1.5c.83 0 1.5.67 1.5 1.5zm0-6.08c0 .82-.67 1.5-1.5 1.5-.82 0-1.5-.68-1.5-1.5 0-.83.68-1.5 1.5-1.5.83 0 1.5.67 1.5 1.5zm0-6.08c0 .82-.67 1.5-1.5 1.5-.82 0-1.5-.68-1.5-1.5 0-.83.68-1.5 1.5-1.5.83 0 1.5.67 1.5 1.5zm0-6.08c0 .83-.67 1.5-1.5 1.5-.82 0-1.5-.67-1.5-1.5s.68-1.5 1.5-1.5c.83 0 1.5.67 1.5 1.5zm0-6.08c0 .83-.67 1.5-1.5 1.5-.82 0-1.5-.67-1.5-1.5s.68-1.5 1.5-1.5c.83 0 1.5.67 1.5 1.5zm0-6.08c0 .83-.67 1.5-1.5 1.5-.82 0-1.5-.67-1.5-1.5s.68-1.5 1.5-1.5c.83 0 1.5.67 1.5 1.5zm0-6.08c0 .83-.67 1.5-1.5 1.5-.82 0-1.5-.67-1.5-1.5s.68-1.5 1.5-1.5c.83 0 1.5.67 1.5 1.5z" fill="#000098"/><path d="M1143.28 618.5h-2.95v-1.54h2.95z" stroke="#000098" stroke-width=".05" fill="#000098"/><path d="M1141.8 501.54V500" stroke="#000098" stroke-width="3" fill="none"/><path d="M1143.3 678.67c0 .83-.67 1.5-1.5 1.5-.82 0-1.5-.67-1.5-1.5s.68-1.5 1.5-1.5c.83 0 1.5.67 1.5 1.5zm0 6.4c0 .8-.67 1.5-1.5 1.5-.82 0-1.5-.7-1.5-1.5 0-.84.68-1.5 1.5-1.5.83 0 1.5.66 1.5 1.5zm0 6.37c0 .83-.67 1.5-1.5 1.5-.82 0-1.5-.67-1.5-1.5 0-.82.68-1.5 1.5-1.5.83 0 1.5.68 1.5 1.5zm0 6.4c0 .82-.67 1.5-1.5 1.5-.82 0-1.5-.68-1.5-1.5 0-.84.68-1.5 1.5-1.5.83 0 1.5.66 1.5 1.5zm0 6.38c0 .83-.67 1.5-1.5 1.5-.82 0-1.5-.67-1.5-1.5s.68-1.5 1.5-1.5c.83 0 1.5.67 1.5 1.5zm0 6.4c0 .82-.67 1.5-1.5 1.5-.82 0-1.5-.68-1.5-1.5 0-.84.68-1.5 1.5-1.5.83 0 1.5.66 1.5 1.5zm0 6.38c0 .83-.67 1.5-1.5 1.5-.82 0-1.5-.67-1.5-1.5s.68-1.5 1.5-1.5c.83 0 1.5.67 1.5 1.5z" fill="#000098"/><path d="M1143.28 678.7h-2.95v-1.53h2.95zM1143.28 718.5h-2.95v-1.54h2.95z" stroke="#000098" stroke-width=".05" fill="#000098"/><path d="M1143.3 778.67c0 .83-.67 1.5-1.5 1.5-.82 0-1.5-.67-1.5-1.5s.68-1.5 1.5-1.5c.83 0 1.5.67 1.5 1.5zm0 6.07c0 .83-.67 1.5-1.5 1.5-.82 0-1.5-.67-1.5-1.5s.68-1.5 1.5-1.5c.83 0 1.5.67 1.5 1.5zm0 6.07c0 .84-.67 1.5-1.5 1.5-.82 0-1.5-.66-1.5-1.5 0-.82.68-1.5 1.5-1.5.83 0 1.5.68 1.5 1.5zm0 6.08c0 .83-.67 1.5-1.5 1.5-.82 0-1.5-.67-1.5-1.5s.68-1.5 1.5-1.5c.83 0 1.5.67 1.5 1.5zm0 6.07c0 .83-.67 1.5-1.5 1.5-.82 0-1.5-.67-1.5-1.5s.68-1.5 1.5-1.5c.83 0 1.5.67 1.5 1.5zm0 6.07c0 .83-.67 1.5-1.5 1.5-.82 0-1.5-.67-1.5-1.5 0-.82.68-1.5 1.5-1.5.83 0 1.5.68 1.5 1.5zm0 6.08c0 .82-.67 1.5-1.5 1.5-.82 0-1.5-.68-1.5-1.5 0-.83.68-1.5 1.5-1.5.83 0 1.5.67 1.5 1.5zm0 6.07c0 .82-.67 1.5-1.5 1.5-.82 0-1.5-.68-1.5-1.5 0-.83.68-1.5 1.5-1.5.83 0 1.5.67 1.5 1.5zm0 6.07c0 .83-.67 1.5-1.5 1.5-.82 0-1.5-.67-1.5-1.5s.68-1.5 1.5-1.5c.83 0 1.5.67 1.5 1.5zm0 6.07c0 .84-.67 1.5-1.5 1.5-.82 0-1.5-.66-1.5-1.5 0-.82.68-1.5 1.5-1.5.83 0 1.5.68 1.5 1.5z" fill="#000098"/><path d="M1143.28 778.7h-2.95v-1.53h2.95z" stroke="#000098" stroke-width=".05" fill="#000098"/><path d="M1141.8 855.15l-4.63-14.27h9.27z" stroke="#000098" stroke-width="3" fill="#000098"/><path d="M960 724.5a6 6 0 0 1-6 6H842a6 6 0 0 0-6 6v8a2.3 2.3 0 0 1-4 1.54l-28-31.08a6.67 6.67 0 0 1 0-8.92l28-31.08a2.3 2.3 0 0 1 4 1.54v8a6 6 0 0 0 6 6h112a6 6 0 0 1 6 6z" stroke="#000098" stroke-width="3" fill="#fff"/><path d="M1641.5 661.56h339.67" stroke="#000098" stroke-width="3" stroke-linecap="round" fill="none"/><path d="M1620 606.5a6 6 0 0 1 6-6h207.22a6 6 0 0 1 6 6v40.44a6 6 0 0 1-6 6H1626a6 6 0 0 1-6-6z" stroke="#000" stroke-opacity="0" fill="#fff" fill-opacity="0"/><use xlink:href="#c" transform="matrix(1,0,0,1,1625,605.5) translate(40.69333333333334 34.14083333333332)"/><path d="M1691.33 806.93a6 6 0 0 1 6-6h228a6 6 0 0 1 6 6v88.94a6 6 0 0 1-6 6h-228a6 6 0 0 1-6-6z" stroke="#000" stroke-opacity="0" fill="#fff" fill-opacity="0"/><use xlink:href="#n" transform="matrix(1,0,0,1,1696.3333333333333,805.9333333333334) translate(22.099999999999994 53.74791666666667)"/><use xlink:href="#o" transform="matrix(1,0,0,1,1696.3333333333333,805.9333333333334) translate(72.47777777777777 53.74791666666667)"/><use xlink:href="#p" transform="matrix(1,0,0,1,1696.3333333333333,805.9333333333334) translate(111.27777777777777 53.74791666666667)"/><use xlink:href="#q" transform="matrix(1,0,0,1,1696.3333333333333,805.9333333333334) translate(137.98888888888888 53.74791666666667)"/><use xlink:href="#k" transform="matrix(1,0,0,1,1696.3333333333333,805.9333333333334) translate(190.03333333333333 53.74791666666667)"/><path d="M1820 606.5a6 6 0 0 1 6-6h56.28a6 6 0 0 1 6 6v40.44a6 6 0 0 1-6 6H1826a6 6 0 0 1-6-6z" stroke="#000" stroke-opacity="0" fill="#fff" fill-opacity="0"/><use xlink:href="#r" transform="matrix(1,0,0,1,1825,605.5) translate(5.233333333333341 34.14083333333332)"/><path d="M1914.4 606.5a6 6 0 0 1 6-6h56.27a6 6 0 0 1 6 6v40.44a6 6 0 0 1-6 6h-56.28a6 6 0 0 1-6-6z" stroke="#000" stroke-opacity="0" fill="#fff" fill-opacity="0"/><use xlink:href="#s" transform="matrix(1,0,0,1,1919.38961038961,605.5) translate(-2.7155555555555466 31.735555555555553)"/><path d="M1671 670.5a6 6 0 0 1 6-6h108a6 6 0 0 1 6 6v35a6 6 0 0 1-6 6h-108a6 6 0 0 1-6-6z" stroke="#000" stroke-opacity="0" fill="#fff" fill-opacity="0"/><use xlink:href="#t" transform="matrix(1,0,0,1,1676,669.5) translate(41.666666666666664 24.779166666666665)"/><path d="M1641.5 712.5h339.67M1641.5 768.5h339.67M1821.5 601.5v217M1901.5 601.5v217.83" stroke="#000098" stroke-width="3" stroke-linecap="round" fill="none"/><path d="M1671 726.33a6 6 0 0 1 6-6h108a6 6 0 0 1 6 6v35a6 6 0 0 1-6 6h-108a6 6 0 0 1-6-6z" stroke="#000" stroke-opacity="0" fill="#fff" fill-opacity="0"/><use xlink:href="#u" transform="matrix(1,0,0,1,1676,725.3333333333333) translate(41.666666666666664 24.779166666666665)"/><path d="M1671 779a6 6 0 0 1 6-6h108a6 6 0 0 1 6 6v35a6 6 0 0 1-6 6h-108a6 6 0 0 1-6-6z" stroke="#000" stroke-opacity="0" fill="#fff" fill-opacity="0"/><use xlink:href="#f" transform="matrix(1,0,0,1,1676,778) translate(41.666666666666664 24.779166666666665)"/><path d="M1800 672.5a6 6 0 0 1 6-6h108a6 6 0 0 1 6 6v35a6 6 0 0 1-6 6h-108a6 6 0 0 1-6-6z" stroke="#000" stroke-opacity="0" fill="#fff" fill-opacity="0"/><g><use xlink:href="#v" transform="matrix(1,0,0,1,1804.9999999999989,671.5) translate(48.333333333333336 24.779166666666665)"/></g><path d="M1800 725.17a6 6 0 0 1 6-6h108a6 6 0 0 1 6 6v35a6 6 0 0 1-6 6h-108a6 6 0 0 1-6-6z" stroke="#000" stroke-opacity="0" fill="#fff" fill-opacity="0"/><g><use xlink:href="#w" transform="matrix(1,0,0,1,1805,724.1666666666667) translate(43.51111111111111 24.779166666666665)"/></g><path d="M1800 779a6 6 0 0 1 6-6h108a6 6 0 0 1 6 6v35a6 6 0 0 1-6 6h-108a6 6 0 0 1-6-6z" stroke="#000" stroke-opacity="0" fill="#fff" fill-opacity="0"/><g><use xlink:href="#x" transform="matrix(1,0,0,1,1805,778) translate(48.333333333333336 24.779166666666665)"/></g><path d="M1877 671.83a6 6 0 0 1 6-6h108a6 6 0 0 1 6 6v35a6 6 0 0 1-6 6h-108a6 6 0 0 1-6-6z" stroke="#000" stroke-opacity="0" fill="#fff" fill-opacity="0"/><g><use xlink:href="#y" transform="matrix(1,0,0,1,1881.9999999999989,670.8333333333334) translate(46.06666666666667 24.779166666666665)"/></g><path d="M1876 726a6 6 0 0 1 6-6h108a6 6 0 0 1 6 6v35a6 6 0 0 1-6 6h-108a6 6 0 0 1-6-6z" stroke="#000" stroke-opacity="0" fill="#fff" fill-opacity="0"/><g><use xlink:href="#z" transform="matrix(1,0,0,1,1881.0000000000002,725) translate(46.06666666666667 24.779166666666665)"/></g><path d="M1877 781.67a6 6 0 0 1 6-6h108a6 6 0 0 1 6 6v35a6 6 0 0 1-6 6h-108a6 6 0 0 1-6-6z" stroke="#000" stroke-opacity="0" fill="#fff" fill-opacity="0"/><g><use xlink:href="#A" transform="matrix(1,0,0,1,1882,780.6666666666667) translate(46.06666666666667 24.779166666666665)"/></g><defs><path fill="#0808f9" d="M453-146C459 25 198 37 67-30c-50-26-21-113 34-82 44 25 86 29 144 34 69 5 121-47 79-96-66-38-195-24-240-82-22-22-33-52-33-87-3-166 239-184 365-117 49 26 9 113-42 79-54-36-210-56-210 32 0 69 100 59 157 73 75 19 130 48 132 130" id="B"/><path fill="#0808f9" d="M406-102C381-36 327 9 242 10 115 10 62-64 62-192v-242c0-42 21-63 62-63s63 21 63 63v244c0 67 23 101 88 102 68 1 114-55 114-126v-220c0-42 21-63 62-63s63 21 63 63v378c0 43-20 64-61 64-70 4-62-72-61-140" id="C"/><path fill="#0808f9" d="M297-401c-70 0-105 55-105 130v215c0 43-21 64-63 64-40 0-62-23-62-64v-378c0-40 22-63 61-63 69-4 63 69 61 136l-11-30c24-62 80-108 162-108 85 1 132 42 150 114h-14c23-65 87-114 172-114 121 0 165 77 165 201v242c0 41-23 64-63 64s-62-23-62-64v-237c-1-69-16-107-81-108-70 0-105 55-105 130v215c0 41-22 64-62 64s-63-23-63-64v-237c-1-68-16-107-80-108" id="D"/><path fill="#0808f9" d="M488 38c0 21-17 38-39 37H52c-22 1-41-16-40-37C11 17 30-1 52 0h397c22-1 39 17 39 38" id="E"/><path fill="#0808f9" d="M376-104C360-34 310 9 226 10 123 7 43-45 43-145c0-156 171-141 338-145v72c-97 6-209-18-216 67 0 47 37 76 87 75 71-3 114-49 114-120v-115c14-127-153-103-229-63-63 33-90-68-29-90 51-19 104-34 166-35 140 0 212 63 211 203v240c0 40-19 64-58 64-58 2-63-52-59-112h8" id="F"/><path fill="#0808f9" d="M539-49c1 159-87 239-246 239-75 0-143-19-196-41-56-24-20-121 35-89 45 24 94 33 151 35 88 0 134-42 134-129v-90h9C409-59 337-11 256-12 114-16 38-111 38-256c0-146 74-237 218-243 82-1 152 46 169 111l-10 25c-3-67-7-138 62-134 40 0 62 22 62 63v385zM164-256c-2 85 45 149 126 149 86-2 124-61 126-149 2-86-45-148-126-148-85 3-125 60-126 148" id="G"/><path fill="#0808f9" d="M156-255c-6 133 79 185 210 163 40-7 87-54 124-21 24 25 7 69-19 80C432-7 366 9 306 10 140 7 38-80 38-244c0-154 93-255 245-255 149 0 222 95 225 246 0 26-20 37-48 37H139v-72h281l-16 15c-1-85-34-139-116-141-91 2-128 66-132 159" id="H"/><path fill="#0808f9" d="M199-70c0 44-29 76-74 75-44 1-76-31-75-75-1-43 31-74 75-73 45-1 74 30 74 73zm0-350c0 43-29 75-74 74-44 1-76-31-75-74-1-44 31-75 75-74 45-1 74 30 74 74" id="I"/><path fill="#0808f9" d="M548-365c0 221-88 368-303 375-68-1-128-26-175-54-38-22-24-98 18-98 57 0 92 46 159 44 160-5 187-145 179-318h12c-15 97-79 163-188 163-131 0-209-93-209-226 0-144 90-236 233-236 197 0 274 146 274 350zM161-485c0 77 44 130 121 130s119-52 121-130c-1-78-44-129-121-129s-121 51-121 129" id="J"/><path fill="#0808f9" d="M557-355c-3 205-62 365-257 365C113 10 42-148 43-354c2-205 62-361 257-361 189 0 258 152 257 360zM200-158c43 81 158 81 200 0 37-71 38-322 0-392-42-77-158-78-200 0-38 70-37 321 0 392" id="K"/><path fill="#0808f9" d="M124-143c91-4 87 128 54 193-16 26-43 94-90 70-37-35 29-75 28-104 5-17 7-32 7-45l5 34C83 6 49-25 50-70c0-43 30-74 74-73" id="L"/><g id="a"><use transform="matrix(0.02222222222222222,0,0,0.02222222222222222,0,0)" xlink:href="#B"/><use transform="matrix(0.02222222222222222,0,0,0.02222222222222222,10.844444444444443,0)" xlink:href="#C"/><use transform="matrix(0.02222222222222222,0,0,0.02222222222222222,23.71111111111111,0)" xlink:href="#D"/><use transform="matrix(0.02222222222222222,0,0,0.02222222222222222,43.199999999999996,0)" xlink:href="#E"/><use transform="matrix(0.02222222222222222,0,0,0.02222222222222222,54.244444444444426,0)" xlink:href="#F"/><use transform="matrix(0.02222222222222222,0,0,0.02222222222222222,66.39999999999999,0)" xlink:href="#G"/><use transform="matrix(0.02222222222222222,0,0,0.02222222222222222,79.82222222222221,0)" xlink:href="#H"/><use transform="matrix(0.02222222222222222,0,0,0.02222222222222222,91.86666666666666,0)" xlink:href="#I"/><use transform="matrix(0.02222222222222222,0,0,0.02222222222222222,97.37777777777775,0)" xlink:href="#J"/><use transform="matrix(0.02222222222222222,0,0,0.02222222222222222,110.71111111111108,0)" xlink:href="#K"/><use transform="matrix(0.02222222222222222,0,0,0.02222222222222222,124.04444444444441,0)" xlink:href="#L"/></g><path fill="#0808f9" d="M422-104C404-38 336 11 253 10 109 5 38-96 38-245s72-248 215-254c82-1 149 46 168 109h-11v-260c0-41 22-63 62-63s63 22 63 63v594c0 41-22 64-62 64-72 5-63-73-62-142zM164-245c-2 94 40 160 124 160 88 0 123-67 124-160 2-95-40-159-124-159-88 0-124 66-124 159" id="M"/><path fill="#0808f9" d="M190-61c0 42-21 68-63 68-41 0-62-27-62-68v-367c0-42 21-68 62-68s63 26 63 68v367zm11-594c0 43-29 67-74 66-44 1-74-23-74-66 0-44 29-66 74-66 46 0 74 22 74 66" id="N"/><path fill="#0808f9" d="M358-442c0 63-77 44-135 47v339c0 43-21 64-62 64-40 0-63-23-63-64v-339c-50 3-96 2-96-47 0-63 75-44 132-47l-36 33c-12-173 75-238 236-252 60-5 68 89 12 92-93 4-132 42-123 143l-16-16c61 5 151-22 151 47" id="O"/><path fill="#0808f9" d="M374-268c1 27-23 51-50 50H111c-28 1-52-22-51-50-1-29 22-51 51-50h213c28-1 51 22 50 50" id="P"/><path fill="#0808f9" d="M553-54c0 34-21 54-55 54H156c-34 0-55-21-55-54-3-76 100-46 167-52v-491h62l-147 89c-61 41-114-58-51-93 60-33 115-73 178-103 39-18 86-8 86 40v558c65 5 161-21 157 52" id="Q"/><g id="b"><use transform="matrix(0.02222222222222222,0,0,0.02222222222222222,0,0)" xlink:href="#M"/><use transform="matrix(0.02222222222222222,0,0,0.02222222222222222,13.333333333333332,0)" xlink:href="#N"/><use transform="matrix(0.02222222222222222,0,0,0.02222222222222222,19,0)" xlink:href="#O"/><use transform="matrix(0.02222222222222222,0,0,0.02222222222222222,26.577777777777776,0)" xlink:href="#O"/><use transform="matrix(0.02222222222222222,0,0,0.02222222222222222,34.77777777777777,0)" xlink:href="#I"/><use transform="matrix(0.02222222222222222,0,0,0.02222222222222222,39.888888888888886,0)" xlink:href="#P"/><use transform="matrix(0.02222222222222222,0,0,0.02222222222222222,49.533333333333324,0)" xlink:href="#Q"/></g><g id="c"><use transform="matrix(0.031111111111111103,0,0,0.031111111111111103,0,0)" xlink:href="#B"/><use transform="matrix(0.031111111111111103,0,0,0.031111111111111103,15.182222222222219,0)" xlink:href="#C"/><use transform="matrix(0.031111111111111103,0,0,0.031111111111111103,33.19555555555554,0)" xlink:href="#D"/><use transform="matrix(0.031111111111111103,0,0,0.031111111111111103,60.47999999999998,0)" xlink:href="#E"/><use transform="matrix(0.031111111111111103,0,0,0.031111111111111103,75.9422222222222,0)" xlink:href="#F"/><use transform="matrix(0.031111111111111103,0,0,0.031111111111111103,92.95999999999998,0)" xlink:href="#G"/><use transform="matrix(0.031111111111111103,0,0,0.031111111111111103,111.75111111111109,0)" xlink:href="#H"/></g><path fill="#ff4f00" d="M375-58c0 41-22 66-64 66-41 0-64-25-64-66v-540H52c-34 0-55-21-55-54 0-35 21-53 55-53h518c34 0 55 18 55 53 0 33-21 54-55 54H375v540" id="R"/><path fill="#ff4f00" d="M190-61c0 42-21 68-63 68-41 0-62-27-62-68v-367c0-42 21-68 62-68s63 26 63 68v367zm11-594c0 43-29 67-74 66-44 1-74-23-74-66 0-44 29-66 74-66 46 0 74 22 74 66" id="S"/><path fill="#ff4f00" d="M297-401c-70 0-105 55-105 130v215c0 43-21 64-63 64-40 0-62-23-62-64v-378c0-40 22-63 61-63 69-4 63 69 61 136l-11-30c24-62 80-108 162-108 85 1 132 42 150 114h-14c23-65 87-114 172-114 121 0 165 77 165 201v242c0 41-23 64-63 64s-62-23-62-64v-237c-1-69-16-107-81-108-70 0-105 55-105 130v215c0 41-22 64-62 64s-63-23-63-64v-237c-1-68-16-107-80-108" id="T"/><path fill="#ff4f00" d="M156-255c-6 133 79 185 210 163 40-7 87-54 124-21 24 25 7 69-19 80C432-7 366 9 306 10 140 7 38-80 38-244c0-154 93-255 245-255 149 0 222 95 225 246 0 26-20 37-48 37H139v-72h281l-16 15c-1-85-34-139-116-141-91 2-128 66-132 159" id="U"/><g id="d"><use transform="matrix(0.022222222222222223,0,0,0.022222222222222223,0,0)" xlink:href="#R"/><use transform="matrix(0.022222222222222223,0,0,0.022222222222222223,15.022222222222222,0)" xlink:href="#S"/><use transform="matrix(0.022222222222222223,0,0,0.022222222222222223,20.68888888888889,0)" xlink:href="#T"/><use transform="matrix(0.022222222222222223,0,0,0.022222222222222223,40.17777777777778,0)" xlink:href="#U"/></g><path fill="#ff4f00" d="M390-58c0 61-48 65-101 68C161 10 95-54 95-182v-213c-51 2-102 4-102-47 0-52 51-49 102-47 0-72-15-154 63-154 77 0 61 83 62 154 62 6 156-23 156 47 0 69-94 41-156 47v206c1 64 25 96 89 96 40-3 81-24 81 35" id="V"/><path fill="#ff4f00" d="M541-193C541-14 352 38 174-4 123-19 66-34 46-76c-23-49 32-91 79-63 81 53 292 76 292-65 0-96-93-103-195-99-36 1-57-19-57-53-3-55 53-53 109-53 73 0 120-33 122-104 4-123-187-107-260-54-60 43-110-55-50-91 53-32 121-56 202-57 135 2 232 56 232 187 0 93-54 149-131 169v-12c90 13 152 79 152 178" id="W"/><g id="e"><use transform="matrix(0.022222222222222223,0,0,0.022222222222222223,0,0)" xlink:href="#V"/><use transform="matrix(0.015555555555555552,0,0,0.015555555555555552,8.533333333333333,0)" xlink:href="#W"/></g><path fill="#ff4f00" d="M477-134c2 70 9 142-64 142s-66-72-64-142H102c-55 5-85-41-60-89 6-13 16-29 31-50l274-397c16-24 35-42 70-43 37 1 60 23 60 64v409c56-3 107-3 107 53s-51 56-107 53zM349-240v-312h29L142-206v-34h207" id="X"/><path fill="#ff4f00" d="M557-355c-3 205-62 365-257 365C113 10 42-148 43-354c2-205 62-361 257-361 189 0 258 152 257 360zM200-158c43 81 158 81 200 0 37-71 38-322 0-392-42-77-158-78-200 0-38 70-37 321 0 392" id="Y"/><g id="f"><use transform="matrix(0.022222222222222223,0,0,0.022222222222222223,0,0)" xlink:href="#X"/><use transform="matrix(0.022222222222222223,0,0,0.022222222222222223,13.333333333333334,0)" xlink:href="#Y"/></g><path fill="#ff4f00" d="M205-58c0 41-22 66-64 66-41 0-64-25-64-66v-582c0-42 24-65 65-65h241c148-2 242 77 242 220s-94 221-242 221H205v206zm296-427c0-83-52-119-138-119H205v239h158c86 0 138-37 138-120" id="Z"/><path fill="#ff4f00" d="M538-245c0 161-90 255-250 255C130 10 38-86 38-245c0-160 90-254 250-254 158 0 250 95 250 254zm-374 0c-2 94 40 160 124 160 88 0 123-67 124-160 2-95-40-159-124-159-88 0-124 66-124 159" id="aa"/><path fill="#ff4f00" d="M453-146C459 25 198 37 67-30c-50-26-21-113 34-82 44 25 86 29 144 34 69 5 121-47 79-96-66-38-195-24-240-82-22-22-33-52-33-87-3-166 239-184 365-117 49 26 9 113-42 79-54-36-210-56-210 32 0 69 100 59 157 73 75 19 130 48 132 130" id="ab"/><path fill="#ff4f00" d="M539-49c1 159-87 239-246 239-75 0-143-19-196-41-56-24-20-121 35-89 45 24 94 33 151 35 88 0 134-42 134-129v-90h9C409-59 337-11 256-12 114-16 38-111 38-256c0-146 74-237 218-243 82-1 152 46 169 111l-10 25c-3-67-7-138 62-134 40 0 62 22 62 63v385zM164-256c-2 85 45 149 126 149 86-2 124-61 126-149 2-86-45-148-126-148-85 3-125 60-126 148" id="ac"/><path fill="#ff4f00" d="M192-56c0 41-22 64-63 64S65-15 65-56v-378c0-40 22-63 61-63 65-4 64 61 61 126h-10c19-80 74-117 164-128 47-6 61 59 37 89-12 15-37 19-63 21-77 6-122 45-123 126v207" id="ad"/><path fill="#ff4f00" d="M598-202C604 37 248 47 79-50 39-73 40-151 89-157c11-2 22 1 35 9 80 56 347 94 347-45 0-96-139-89-223-111-110-29-188-72-188-193 0-187 202-251 389-203 46 12 101 29 119 71 21 49-32 91-77 61-83-54-304-68-304 66 0 99 132 92 215 114 112 29 191 66 196 186" id="ae"/><path fill="#ff4f00" d="M620 45c22 37 81 93 38 139-27 29-82 15-102-17L487 56c-18-30-48-46-95-46l99-39c74 2 99 23 129 74zm112-399c0 223-117 364-339 364C176 10 54-133 54-353c0-223 118-362 339-362 218 0 339 141 339 361zm-544 1c-2 146 67 252 205 253 144-3 203-105 205-253s-65-252-205-252c-144 0-204 103-205 252" id="af"/><path fill="#ff4f00" d="M551-55c0 35-21 55-56 55H142c-41 0-65-25-65-66v-577c0-42 22-65 64-65s64 23 64 65v534h290c35 0 56 19 56 54" id="ag"/><g id="g"><use transform="matrix(0.022222222222222223,0,0,0.022222222222222223,0,0)" xlink:href="#Z"/><use transform="matrix(0.022222222222222223,0,0,0.022222222222222223,13.933333333333334,0)" xlink:href="#aa"/><use transform="matrix(0.022222222222222223,0,0,0.022222222222222223,26.733333333333334,0)" xlink:href="#ab"/><use transform="matrix(0.022222222222222223,0,0,0.022222222222222223,37.46666666666667,0)" xlink:href="#V"/><use transform="matrix(0.022222222222222223,0,0,0.022222222222222223,45.88888888888889,0)" xlink:href="#ac"/><use transform="matrix(0.022222222222222223,0,0,0.022222222222222223,59.31111111111111,0)" xlink:href="#ad"/><use transform="matrix(0.022222222222222223,0,0,0.022222222222222223,67.84444444444445,0)" xlink:href="#U"/><use transform="matrix(0.022222222222222223,0,0,0.022222222222222223,79.88888888888889,0)" xlink:href="#ae"/><use transform="matrix(0.022222222222222223,0,0,0.022222222222222223,93.91111111111111,0)" xlink:href="#af"/><use transform="matrix(0.022222222222222223,0,0,0.022222222222222223,111.35555555555555,0)" xlink:href="#ag"/></g><path fill="#ff4f00" d="M376-104C360-34 310 9 226 10 123 7 43-45 43-145c0-156 171-141 338-145v72c-97 6-209-18-216 67 0 47 37 76 87 75 71-3 114-49 114-120v-115c14-127-153-103-229-63-63 33-90-68-29-90 51-19 104-34 166-35 140 0 212 63 211 203v240c0 40-19 64-58 64-58 2-63-52-59-112h8" id="ah"/><path fill="#ff4f00" d="M562-245C562-96 491 5 347 10c-83 1-153-48-170-114l11-25c2 67 8 141-61 137-40 0-62-23-62-64v-594c0-41 22-63 62-63s63 22 63 63v260h-12c19-63 87-110 169-109 144 5 215 105 215 254zm-374 0c-2 94 40 160 124 160 88 0 123-67 124-160 2-95-40-159-124-159-88 0-124 66-124 159" id="ai"/><path fill="#ff4f00" d="M318-49c3 52-36 60-86 59C117 10 65-59 65-177v-473c0-41 22-63 62-63s63 22 63 63v467c-2 68 36 99 104 88 25-1 22 15 24 46" id="aj"/><g id="h"><use transform="matrix(0.022222222222222223,0,0,0.022222222222222223,0,0)" xlink:href="#V"/><use transform="matrix(0.022222222222222223,0,0,0.022222222222222223,8.533333333333333,0)" xlink:href="#ah"/><use transform="matrix(0.022222222222222223,0,0,0.022222222222222223,20.68888888888889,0)" xlink:href="#ai"/><use transform="matrix(0.022222222222222223,0,0,0.022222222222222223,34.022222222222226,0)" xlink:href="#aj"/><use transform="matrix(0.022222222222222223,0,0,0.022222222222222223,41,0)" xlink:href="#U"/></g><g id="i"><use transform="matrix(0.022222222222222223,0,0,0.022222222222222223,0,0)" xlink:href="#ah"/><use transform="matrix(0.022222222222222223,0,0,0.022222222222222223,12.155555555555557,0)" xlink:href="#V"/></g><g id="j"><use transform="matrix(0.022222222222222223,0,0,0.022222222222222223,0,0)" xlink:href="#V"/><use transform="matrix(0.022222222222222223,0,0,0.022222222222222223,8.822222222222223,0)" xlink:href="#S"/><use transform="matrix(0.022222222222222223,0,0,0.022222222222222223,14.488888888888889,0)" xlink:href="#T"/><use transform="matrix(0.022222222222222223,0,0,0.022222222222222223,33.97777777777778,0)" xlink:href="#U"/></g><g id="k"><use transform="matrix(0.022222222222222223,0,0,0.022222222222222223,0,0)" xlink:href="#V"/><use transform="matrix(0.015555555555555552,0,0,0.015555555555555552,8.533333333333333,0)" xlink:href="#W"/></g><path fill="#0808f9" d="M477-134c2 70 9 142-64 142s-66-72-64-142H102c-55 5-85-41-60-89 6-13 16-29 31-50l274-397c16-24 35-42 70-43 37 1 60 23 60 64v409c56-3 107-3 107 53s-51 56-107 53zM349-240v-312h29L142-206v-34h207" id="ak"/><g id="l"><use transform="matrix(0.02222222222222222,0,0,0.02222222222222222,0,0)" xlink:href="#B"/><use transform="matrix(0.02222222222222222,0,0,0.02222222222222222,10.844444444444443,0)" xlink:href="#C"/><use transform="matrix(0.02222222222222222,0,0,0.02222222222222222,23.71111111111111,0)" xlink:href="#D"/><use transform="matrix(0.02222222222222222,0,0,0.02222222222222222,43.199999999999996,0)" xlink:href="#E"/><use transform="matrix(0.02222222222222222,0,0,0.02222222222222222,54.244444444444426,0)" xlink:href="#F"/><use transform="matrix(0.02222222222222222,0,0,0.02222222222222222,66.39999999999999,0)" xlink:href="#G"/><use transform="matrix(0.02222222222222222,0,0,0.02222222222222222,79.82222222222221,0)" xlink:href="#H"/><use transform="matrix(0.02222222222222222,0,0,0.02222222222222222,91.86666666666666,0)" xlink:href="#I"/><use transform="matrix(0.02222222222222222,0,0,0.02222222222222222,97.37777777777775,0)" xlink:href="#ak"/><use transform="matrix(0.02222222222222222,0,0,0.02222222222222222,110.71111111111108,0)" xlink:href="#K"/><use transform="matrix(0.02222222222222222,0,0,0.02222222222222222,124.04444444444441,0)" xlink:href="#L"/></g><g id="m"><use transform="matrix(0.02222222222222222,0,0,0.02222222222222222,0,0)" xlink:href="#M"/><use transform="matrix(0.02222222222222222,0,0,0.02222222222222222,13.333333333333332,0)" xlink:href="#N"/><use transform="matrix(0.02222222222222222,0,0,0.02222222222222222,19,0)" xlink:href="#O"/><use transform="matrix(0.02222222222222222,0,0,0.02222222222222222,26.577777777777776,0)" xlink:href="#O"/><use transform="matrix(0.02222222222222222,0,0,0.02222222222222222,34.77777777777777,0)" xlink:href="#I"/><use transform="matrix(0.02222222222222222,0,0,0.02222222222222222,40.288888888888884,0)" xlink:href="#Q"/></g><path fill="#ff4f00" d="M190-353c-4 180 111 280 294 239 49-11 129-80 155 0 7 74-66 86-121 108-37 10-75 16-113 16C179 6 57-127 54-353c-4-263 190-411 459-348 57 13 132 32 124 107-4 38-53 58-88 31-36-24-84-37-140-38-151 2-216 94-219 248" id="al"/><path fill="#ff4f00" d="M402-4c-20 17-69 17-90 0-12-8-21-21-28-38L23-628c-35-64 46-107 97-72 10 8 17 20 24 37l237 549h-43l236-550c8-54 109-71 123-8 3 13 0 27-7 44L429-42c-7 17-16 30-27 38" id="am"/><g id="n"><use transform="matrix(0.022222222222222223,0,0,0.022222222222222223,0,0)" xlink:href="#al"/><use transform="matrix(0.022222222222222223,0,0,0.022222222222222223,14.777777777777779,0)" xlink:href="#ae"/><use transform="matrix(0.022222222222222223,0,0,0.022222222222222223,28.511111111111113,0)" xlink:href="#am"/></g><path fill="#ff4f00" d="M358-442c0 63-77 44-135 47v339c0 43-21 64-62 64-40 0-63-23-63-64v-339c-50 3-96 2-96-47 0-63 75-44 132-47l-36 33c-12-173 75-238 236-252 60-5 68 89 12 92-93 4-132 42-123 143l-16-16c61 5 151-22 151 47" id="an"/><g id="o"><use transform="matrix(0.022222222222222223,0,0,0.022222222222222223,0,0)" xlink:href="#an"/><use transform="matrix(0.022222222222222223,0,0,0.022222222222222223,8.088888888888889,0)" xlink:href="#S"/><use transform="matrix(0.022222222222222223,0,0,0.022222222222222223,13.755555555555556,0)" xlink:href="#aj"/><use transform="matrix(0.022222222222222223,0,0,0.022222222222222223,20.733333333333334,0)" xlink:href="#U"/></g><g id="p"><use transform="matrix(0.022222222222222223,0,0,0.022222222222222223,0,0)" xlink:href="#ah"/><use transform="matrix(0.022222222222222223,0,0,0.022222222222222223,12.155555555555557,0)" xlink:href="#V"/></g><g id="q"><use transform="matrix(0.022222222222222223,0,0,0.022222222222222223,0,0)" xlink:href="#V"/><use transform="matrix(0.022222222222222223,0,0,0.022222222222222223,8.822222222222223,0)" xlink:href="#S"/><use transform="matrix(0.022222222222222223,0,0,0.022222222222222223,14.488888888888889,0)" xlink:href="#T"/><use transform="matrix(0.022222222222222223,0,0,0.022222222222222223,33.97777777777778,0)" xlink:href="#U"/></g><g id="r"><use transform="matrix(0.031111111111111103,0,0,0.031111111111111103,0,0)" xlink:href="#M"/><use transform="matrix(0.031111111111111103,0,0,0.031111111111111103,18.66666666666666,0)" xlink:href="#N"/><use transform="matrix(0.031111111111111103,0,0,0.031111111111111103,26.59999999999999,0)" xlink:href="#O"/><use transform="matrix(0.031111111111111103,0,0,0.031111111111111103,37.20888888888888,0)" xlink:href="#O"/></g><path fill="#0808f9" d="M390-58c0 61-48 65-101 68C161 10 95-54 95-182v-213c-51 2-102 4-102-47 0-52 51-49 102-47 0-72-15-154 63-154 77 0 61 83 62 154 62 6 156-23 156 47 0 69-94 41-156 47v206c1 64 25 96 89 96 40-3 81-24 81 35" id="ao"/><g id="s"><use transform="matrix(0.031111111111111103,0,0,0.031111111111111103,0,0)" xlink:href="#ao"/><use transform="matrix(0.031111111111111103,0,0,0.031111111111111103,12.351111111111107,0)" xlink:href="#N"/><use transform="matrix(0.031111111111111103,0,0,0.031111111111111103,20.28444444444444,0)" xlink:href="#D"/><use transform="matrix(0.031111111111111103,0,0,0.031111111111111103,47.56888888888888,0)" xlink:href="#H"/></g><g id="t"><use transform="matrix(0.022222222222222223,0,0,0.022222222222222223,0,0)" xlink:href="#J"/><use transform="matrix(0.022222222222222223,0,0,0.022222222222222223,13.333333333333334,0)" xlink:href="#K"/></g><path fill="#ff4f00" d="M548-365c0 221-88 368-303 375-68-1-128-26-175-54-38-22-24-98 18-98 57 0 92 46 159 44 160-5 187-145 179-318h12c-15 97-79 163-188 163-131 0-209-93-209-226 0-144 90-236 233-236 197 0 274 146 274 350zM161-485c0 77 44 130 121 130s119-52 121-130c-1-78-44-129-121-129s-121 51-121 129" id="ap"/><g id="u"><use transform="matrix(0.022222222222222223,0,0,0.022222222222222223,0,0)" xlink:href="#ap"/><use transform="matrix(0.022222222222222223,0,0,0.022222222222222223,13.333333333333334,0)" xlink:href="#Y"/></g><use transform="matrix(0.022222222222222223,0,0,0.022222222222222223,0,0)" xlink:href="#Q" id="v"/><path fill="#ff4f00" d="M374-268c1 27-23 51-50 50H111c-28 1-52-22-51-50-1-29 22-51 51-50h213c28-1 51 22 50 50" id="aq"/><path fill="#ff4f00" d="M553-54c0 34-21 54-55 54H156c-34 0-55-21-55-54-3-76 100-46 167-52v-491h62l-147 89c-61 41-114-58-51-93 60-33 115-73 178-103 39-18 86-8 86 40v558c65 5 161-21 157 52" id="ar"/><g id="w"><use transform="matrix(0.022222222222222223,0,0,0.022222222222222223,0,0)" xlink:href="#aq"/><use transform="matrix(0.022222222222222223,0,0,0.022222222222222223,9.644444444444444,0)" xlink:href="#ar"/></g><use transform="matrix(0.022222222222222223,0,0,0.022222222222222223,0,0)" xlink:href="#ar" id="x"/><path fill="#0808f9" d="M556-54c0 35-20 54-55 54H133C78 6 59-48 81-90c6-11 15-22 26-34l201-214c48-53 81-89 86-167 7-129-186-119-260-60-58 44-110-54-51-91 52-33 124-58 204-59 142 1 234 59 234 197 0 119-61 182-126 250L207-72v-34h294c35 0 55 17 55 52" id="as"/><g id="y"><use transform="matrix(0.022222222222222223,0,0,0.022222222222222223,0,0)" xlink:href="#ao"/><use transform="matrix(0.015555555555555552,0,0,0.015555555555555552,8.533333333333333,0)" xlink:href="#as"/></g><g id="z"><use transform="matrix(0.022222222222222223,0,0,0.022222222222222223,0,0)" xlink:href="#V"/><use transform="matrix(0.015555555555555552,0,0,0.015555555555555552,8.533333333333333,0)" xlink:href="#W"/></g><g id="A"><use transform="matrix(0.022222222222222223,0,0,0.022222222222222223,0,0)" xlink:href="#V"/><use transform="matrix(0.01555555555555555,0,0,0.01555555555555555,8.533333333333333,0)" xlink:href="#W"/></g></defs></g></svg>