<svg xmlns="http://www.w3.org/2000/svg" xmlns:xlink="http://www.w3.org/1999/xlink" xmlns:lucid="lucid" width="1144.28" height="207.21"><g transform="translate(-938.5 -634.2185661173917)" lucid:page-tab-id="0_0"><path d="M500 500h2000v500H500z" fill="#fff"/><path d="M960 686.5a6 6 0 0 1 6-6h409.28a6 6 0 0 1 6 6v47.8a6 6 0 0 1-6 6H966a6 6 0 0 1-6-6zM1640 686.5a6 6 0 0 1 6-6h409.28a6 6 0 0 1 6 6v47.8a6 6 0 0 1-6 6H1646a6 6 0 0 1-6-6z" stroke="#000098" stroke-width="3" fill-opacity="0"/><path d="M1420.1 694a6 6 0 0 1 6-6.03l154.95-.48a6 6 0 0 0 5.98-6.03l-.02-5.5a2.3 2.3 0 0 1 4.02-1.56l23.56 26.03a6.67 6.67 0 0 1 .03 8.92l-23.4 26.16a2.3 2.3 0 0 1-4-1.52l-.02-5.5a6 6 0 0 0-6.02-5.98l-154.96.48a6 6 0 0 1-6.02-5.98z" stroke="#000098" stroke-width="3" fill="#fff"/><path d="M1122.78 682.08V739" stroke="#000098" stroke-width="3" stroke-linecap="round" fill="none"/><path d="M965.6 692.44a6 6 0 0 1 6-6h146.68a6 6 0 0 1 6 6v35.93a6 6 0 0 1-6 6h-146.7a6 6 0 0 1-6-6z" stroke="#000" stroke-opacity="0" fill="#fff" fill-opacity="0"/><use xlink:href="#a" transform="matrix(1,0,0,1,970.586383313656,691.4429894559448) translate(5.246666666666698 33.82833333333332)"/><use xlink:href="#b" transform="matrix(1,0,0,1,970.586383313656,691.4429894559448) translate(125.08666666666664 33.82833333333332)"/><path d="M1040 726a6 6 0 0 1 6-6h228a6 6 0 0 1 6 6v88.93a6 6 0 0 1-6 6h-228a6 6 0 0 1-6-6z" stroke="#000" stroke-opacity="0" fill="#fff" fill-opacity="0"/><use xlink:href="#c" transform="matrix(1,0,0,1,1045,725) translate(77.03333333333333 53.74791666666667)"/><use xlink:href="#d" transform="matrix(1,0,0,1,1045,725) translate(139.63333333333333 53.74791666666667)"/><path d="M1221.28 692.44a6 6 0 0 1 6-6h146.7a6 6 0 0 1 6 6v35.93a6 6 0 0 1-6 6h-146.7a6 6 0 0 1-6-6z" stroke="#000" stroke-opacity="0" fill="#fff" fill-opacity="0"/><use xlink:href="#a" transform="matrix(1,0,0,1,1226.2827626918538,691.4429894559448) translate(5.480000000000032 33.82833333333332)"/><use xlink:href="#e" transform="matrix(1,0,0,1,1226.2827626918538,691.4429894559448) translate(125.31999999999998 33.82833333333332)"/><path d="M1209.28 682v56.92" stroke="#000098" stroke-width="3" stroke-linecap="round" fill="none"/><path d="M1127.28 710.4c0 .84-.67 1.5-1.5 1.5s-1.5-.66-1.5-1.5c0-.82.67-1.5 1.5-1.5s1.5.68 1.5 1.5zm5.75 0c0 .84-.67 1.5-1.5 1.5s-1.5-.66-1.5-1.5c0-.82.67-1.5 1.5-1.5s1.5.68 1.5 1.5zm5.75 0c0 .84-.67 1.5-1.5 1.5s-1.5-.66-1.5-1.5c0-.82.67-1.5 1.5-1.5s1.5.68 1.5 1.5zm5.75 0c0 .84-.67 1.5-1.5 1.5s-1.5-.66-1.5-1.5c0-.82.67-1.5 1.5-1.5s1.5.68 1.5 1.5zm5.75 0c0 .84-.67 1.5-1.5 1.5s-1.5-.66-1.5-1.5c0-.82.67-1.5 1.5-1.5s1.5.68 1.5 1.5zm5.75 0c0 .84-.67 1.5-1.5 1.5s-1.5-.66-1.5-1.5c0-.82.67-1.5 1.5-1.5s1.5.68 1.5 1.5zm5.75 0c0 .84-.67 1.5-1.5 1.5s-1.5-.66-1.5-1.5c0-.82.67-1.5 1.5-1.5s1.5.68 1.5 1.5zm5.75 0c0 .84-.67 1.5-1.5 1.5s-1.5-.66-1.5-1.5c0-.82.67-1.5 1.5-1.5s1.5.68 1.5 1.5zm5.75 0c0 .84-.67 1.5-1.5 1.5s-1.5-.66-1.5-1.5c0-.82.67-1.5 1.5-1.5s1.5.68 1.5 1.5zm5.75 0c0 .84-.67 1.5-1.5 1.5s-1.5-.66-1.5-1.5c0-.82.67-1.5 1.5-1.5s1.5.68 1.5 1.5zm5.75 0c0 .84-.67 1.5-1.5 1.5s-1.5-.66-1.5-1.5c0-.82.67-1.5 1.5-1.5s1.5.68 1.5 1.5zm5.75 0c0 .84-.67 1.5-1.5 1.5s-1.5-.66-1.5-1.5c0-.82.67-1.5 1.5-1.5s1.5.68 1.5 1.5zm5.75 0c0 .84-.67 1.5-1.5 1.5s-1.5-.66-1.5-1.5c0-.82.67-1.5 1.5-1.5s1.5.68 1.5 1.5zm5.75 0c0 .84-.67 1.5-1.5 1.5s-1.5-.66-1.5-1.5c0-.82.67-1.5 1.5-1.5s1.5.68 1.5 1.5zm5.75 0c0 .84-.67 1.5-1.5 1.5s-1.5-.66-1.5-1.5c0-.82.67-1.5 1.5-1.5s1.5.68 1.5 1.5z" fill="#000098"/><path d="M1125.82 711.88h-1.54v-2.95h1.54zM1207.78 711.88h-1.54v-2.95h1.54z" stroke="#000098" stroke-width=".05" fill="#000098"/><path d="M1802.78 682.08V739" stroke="#000098" stroke-width="3" stroke-linecap="round" fill="none"/><path d="M1645.6 692.44a6 6 0 0 1 6-6h146.68a6 6 0 0 1 6 6v35.93a6 6 0 0 1-6 6h-146.7a6 6 0 0 1-6-6z" stroke="#000" stroke-opacity="0" fill="#fff" fill-opacity="0"/><use xlink:href="#f" transform="matrix(1,0,0,1,1650.586383313656,691.442989455945) translate(1.466666666666697 33.82833333333332)"/><use xlink:href="#b" transform="matrix(1,0,0,1,1650.586383313656,691.442989455945) translate(128.86666666666665 33.82833333333332)"/><path d="M1720 726a6 6 0 0 1 6-6h228a6 6 0 0 1 6 6v88.93a6 6 0 0 1-6 6h-228a6 6 0 0 1-6-6z" stroke="#000" stroke-opacity="0" fill="#fff" fill-opacity="0"/><use xlink:href="#c" transform="matrix(1,0,0,1,1725,725.0000000000001) translate(77.03333333333333 53.74791666666667)"/><use xlink:href="#g" transform="matrix(1,0,0,1,1725,725.0000000000001) translate(139.63333333333333 53.74791666666667)"/><path d="M1901.28 692.44a6 6 0 0 1 6-6h146.7a6 6 0 0 1 6 6v35.93a6 6 0 0 1-6 6h-146.7a6 6 0 0 1-6-6z" stroke="#000" stroke-opacity="0" fill="#fff" fill-opacity="0"/><use xlink:href="#f" transform="matrix(1,0,0,1,1906.2827626918538,691.442989455945) translate(2.462222222222252 33.82833333333332)"/><use xlink:href="#h" transform="matrix(1,0,0,1,1906.2827626918538,691.442989455945) translate(129.86222222222221 33.82833333333332)"/><path d="M1889.28 682v56.92" stroke="#000098" stroke-width="3" stroke-linecap="round" fill="none"/><path d="M1807.28 710.4c0 .84-.67 1.5-1.5 1.5s-1.5-.66-1.5-1.5c0-.82.67-1.5 1.5-1.5s1.5.68 1.5 1.5zm6.2 0c0 .84-.68 1.5-1.5 1.5-.83 0-1.5-.66-1.5-1.5 0-.82.67-1.5 1.5-1.5.82 0 1.5.68 1.5 1.5zm6.2 0c0 .84-.68 1.5-1.5 1.5-.84 0-1.5-.66-1.5-1.5 0-.82.66-1.5 1.5-1.5.82 0 1.5.68 1.5 1.5zm6.18 0c0 .84-.67 1.5-1.5 1.5s-1.5-.66-1.5-1.5c0-.82.67-1.5 1.5-1.5s1.5.68 1.5 1.5zm6.2 0c0 .84-.68 1.5-1.5 1.5-.84 0-1.5-.66-1.5-1.5 0-.82.66-1.5 1.5-1.5.82 0 1.5.68 1.5 1.5zm6.18 0c0 .84-.67 1.5-1.5 1.5-.82 0-1.5-.66-1.5-1.5 0-.82.68-1.5 1.5-1.5.83 0 1.5.68 1.5 1.5zm6.2 0c0 .84-.67 1.5-1.5 1.5s-1.5-.66-1.5-1.5c0-.82.67-1.5 1.5-1.5s1.5.68 1.5 1.5zm6.2 0c0 .84-.68 1.5-1.5 1.5-.84 0-1.5-.66-1.5-1.5 0-.82.66-1.5 1.5-1.5.82 0 1.5.68 1.5 1.5zm6.18 0c0 .84-.67 1.5-1.5 1.5s-1.5-.66-1.5-1.5c0-.82.67-1.5 1.5-1.5s1.5.68 1.5 1.5zm6.2 0c0 .84-.68 1.5-1.5 1.5-.84 0-1.5-.66-1.5-1.5 0-.82.66-1.5 1.5-1.5.82 0 1.5.68 1.5 1.5zm6.2 0c0 .84-.7 1.5-1.5 1.5-.84 0-1.5-.66-1.5-1.5 0-.82.66-1.5 1.5-1.5.8 0 1.5.68 1.5 1.5zm6.18 0c0 .84-.67 1.5-1.5 1.5s-1.5-.66-1.5-1.5c0-.82.67-1.5 1.5-1.5s1.5.68 1.5 1.5zm6.2 0c0 .84-.68 1.5-1.5 1.5-.84 0-1.5-.66-1.5-1.5 0-.82.66-1.5 1.5-1.5.82 0 1.5.68 1.5 1.5z" fill="#000098"/><path d="M1805.82 711.88h-1.54v-2.95h1.54zM1887.78 711.88h-1.54v-2.95h1.54z" stroke="#000098" stroke-width=".05" fill="#000098"/><path d="M1390.64 660.72a6 6 0 0 1 6-6h228a6 6 0 0 1 6 6v88.93a6 6 0 0 1-6 6h-228a6 6 0 0 1-6-6z" stroke="#000" stroke-opacity="0" fill="#fff" fill-opacity="0"/><g><use xlink:href="#i" transform="matrix(1,0,0,1,1395.6413813459271,659.7185661173917) translate(36.04444444444444 53.74791666666667)"/></g><defs><path fill="#0808f9" d="M190-353c-4 180 111 280 294 239 49-11 129-80 155 0 7 74-66 86-121 108-37 10-75 16-113 16C179 6 57-127 54-353c-4-263 190-411 459-348 57 13 132 32 124 107-4 38-53 58-88 31-36-24-84-37-140-38-151 2-216 94-219 248" id="j"/><path fill="#0808f9" d="M538-245c0 161-90 255-250 255C130 10 38-86 38-245c0-160 90-254 250-254 158 0 250 95 250 254zm-374 0c-2 94 40 160 124 160 88 0 123-67 124-160 2-95-40-159-124-159-88 0-124 66-124 159" id="k"/><path fill="#0808f9" d="M318-49c3 52-36 60-86 59C117 10 65-59 65-177v-473c0-41 22-63 62-63s63 22 63 63v467c-2 68 36 99 104 88 25-1 22 15 24 46" id="l"/><path fill="#0808f9" d="M406-102C381-36 327 9 242 10 115 10 62-64 62-192v-242c0-42 21-63 62-63s63 21 63 63v244c0 67 23 101 88 102 68 1 114-55 114-126v-220c0-42 21-63 62-63s63 21 63 63v378c0 43-20 64-61 64-70 4-62-72-61-140" id="m"/><path fill="#0808f9" d="M297-401c-70 0-105 55-105 130v215c0 43-21 64-63 64-40 0-62-23-62-64v-378c0-40 22-63 61-63 69-4 63 69 61 136l-11-30c24-62 80-108 162-108 85 1 132 42 150 114h-14c23-65 87-114 172-114 121 0 165 77 165 201v242c0 41-23 64-63 64s-62-23-62-64v-237c-1-69-16-107-81-108-70 0-105 55-105 130v215c0 41-22 64-62 64s-63-23-63-64v-237c-1-68-16-107-80-108" id="n"/><path fill="#0808f9" d="M310-401c-73-1-120 52-120 126v219c0 43-21 64-63 64-40 0-62-23-62-64v-378c0-40 22-63 61-63 67-4 64 65 61 131l-11-25c25-65 89-107 174-108 125 0 173 75 173 201v242c0 41-22 64-62 64s-63-23-63-64v-236c0-71-22-108-88-109" id="o"/><g id="a"><use transform="matrix(0.031111111111111103,0,0,0.031111111111111103,0,0)" xlink:href="#j"/><use transform="matrix(0.031111111111111103,0,0,0.031111111111111103,20.066666666666663,0)" xlink:href="#k"/><use transform="matrix(0.031111111111111103,0,0,0.031111111111111103,37.98666666666666,0)" xlink:href="#l"/><use transform="matrix(0.031111111111111103,0,0,0.031111111111111103,47.9111111111111,0)" xlink:href="#m"/><use transform="matrix(0.031111111111111103,0,0,0.031111111111111103,65.92444444444442,0)" xlink:href="#n"/><use transform="matrix(0.031111111111111103,0,0,0.031111111111111103,93.20888888888885,0)" xlink:href="#o"/></g><path fill="#0808f9" d="M553-54c0 34-21 54-55 54H156c-34 0-55-21-55-54-3-76 100-46 167-52v-491h62l-147 89c-61 41-114-58-51-93 60-33 115-73 178-103 39-18 86-8 86 40v558c65 5 161-21 157 52" id="p"/><use transform="matrix(0.031111111111111103,0,0,0.031111111111111103,0,0)" xlink:href="#p" id="b"/><path fill="#ff4f00" d="M375-58c0 41-22 66-64 66-41 0-64-25-64-66v-540H52c-34 0-55-21-55-54 0-35 21-53 55-53h518c34 0 55 18 55 53 0 33-21 54-55 54H375v540" id="q"/><path fill="#ff4f00" d="M376-104C360-34 310 9 226 10 123 7 43-45 43-145c0-156 171-141 338-145v72c-97 6-209-18-216 67 0 47 37 76 87 75 71-3 114-49 114-120v-115c14-127-153-103-229-63-63 33-90-68-29-90 51-19 104-34 166-35 140 0 212 63 211 203v240c0 40-19 64-58 64-58 2-63-52-59-112h8" id="r"/><path fill="#ff4f00" d="M562-245C562-96 491 5 347 10c-83 1-153-48-170-114l11-25c2 67 8 141-61 137-40 0-62-23-62-64v-594c0-41 22-63 62-63s63 22 63 63v260h-12c19-63 87-110 169-109 144 5 215 105 215 254zm-374 0c-2 94 40 160 124 160 88 0 123-67 124-160 2-95-40-159-124-159-88 0-124 66-124 159" id="s"/><path fill="#ff4f00" d="M318-49c3 52-36 60-86 59C117 10 65-59 65-177v-473c0-41 22-63 62-63s63 22 63 63v467c-2 68 36 99 104 88 25-1 22 15 24 46" id="t"/><path fill="#ff4f00" d="M156-255c-6 133 79 185 210 163 40-7 87-54 124-21 24 25 7 69-19 80C432-7 366 9 306 10 140 7 38-80 38-244c0-154 93-255 245-255 149 0 222 95 225 246 0 26-20 37-48 37H139v-72h281l-16 15c-1-85-34-139-116-141-91 2-128 66-132 159" id="u"/><g id="c"><use transform="matrix(0.022222222222222223,0,0,0.022222222222222223,0,0)" xlink:href="#q"/><use transform="matrix(0.022222222222222223,0,0,0.022222222222222223,12.066666666666666,0)" xlink:href="#r"/><use transform="matrix(0.022222222222222223,0,0,0.022222222222222223,24.22222222222222,0)" xlink:href="#s"/><use transform="matrix(0.022222222222222223,0,0,0.022222222222222223,37.55555555555556,0)" xlink:href="#t"/><use transform="matrix(0.022222222222222223,0,0,0.022222222222222223,44.53333333333333,0)" xlink:href="#u"/></g><path fill="#ff4f00" d="M553-54c0 34-21 54-55 54H156c-34 0-55-21-55-54-3-76 100-46 167-52v-491h62l-147 89c-61 41-114-58-51-93 60-33 115-73 178-103 39-18 86-8 86 40v558c65 5 161-21 157 52" id="v"/><use transform="matrix(0.022222222222222223,0,0,0.022222222222222223,0,0)" xlink:href="#v" id="d"/><use transform="matrix(0.031111111111111103,0,0,0.031111111111111103,0,0)" xlink:href="#o" id="e"/><path fill="#0808f9" d="M168-455c3 36-47 66-78 35-9-9-14-20-15-35L56-640c-14-71 96-102 125-38 5 11 7 24 6 38" id="w"/><g id="f"><use transform="matrix(0.031111111111111103,0,0,0.031111111111111103,0,0)" xlink:href="#j"/><use transform="matrix(0.031111111111111103,0,0,0.031111111111111103,20.066666666666663,0)" xlink:href="#k"/><use transform="matrix(0.031111111111111103,0,0,0.031111111111111103,37.98666666666666,0)" xlink:href="#l"/><use transform="matrix(0.031111111111111103,0,0,0.031111111111111103,47.9111111111111,0)" xlink:href="#m"/><use transform="matrix(0.031111111111111103,0,0,0.031111111111111103,65.92444444444442,0)" xlink:href="#n"/><use transform="matrix(0.031111111111111103,0,0,0.031111111111111103,93.20888888888885,0)" xlink:href="#o"/><use transform="matrix(0.031111111111111103,0,0,0.031111111111111103,111.40888888888884,0)" xlink:href="#w"/></g><path fill="#ff4f00" d="M556-54c0 35-20 54-55 54H133C78 6 59-48 81-90c6-11 15-22 26-34l201-214c48-53 81-89 86-167 7-129-186-119-260-60-58 44-110-54-51-91 52-33 124-58 204-59 142 1 234 59 234 197 0 119-61 182-126 250L207-72v-34h294c35 0 55 17 55 52" id="x"/><use transform="matrix(0.022222222222222223,0,0,0.022222222222222223,0,0)" xlink:href="#x" id="g"/><path fill="#0808f9" d="M392-486c32-23 98-10 94 35 0 13-6 25-18 38L294-229v-52L485-75c52 52-29 110-83 72-11-7-23-18-36-33-59-60-115-123-176-182-11 85 37 230-63 226-40 0-62-23-62-64v-594c0-41 22-63 62-63s63 22 63 63c1 122-3 250 2 369 67-68 129-142 200-205" id="y"/><use transform="matrix(0.031111111111111103,0,0,0.031111111111111103,0,0)" xlink:href="#y" id="h"/><path fill="#ff4f00" d="M192-56c0 41-22 64-63 64S65-15 65-56v-378c0-40 22-63 61-63 65-4 64 61 61 126h-10c19-80 74-117 164-128 47-6 61 59 37 89-12 15-37 19-63 21-77 6-122 45-123 126v207" id="z"/><path fill="#ff4f00" d="M310-401c-73-1-120 52-120 126v219c0 43-21 64-63 64-40 0-62-23-62-64v-378c0-40 22-63 61-63 67-4 64 65 61 131l-11-25c25-65 89-107 174-108 125 0 173 75 173 201v242c0 41-22 64-62 64s-63-23-63-64v-236c0-71-22-108-88-109" id="A"/><path fill="#ff4f00" d="M453-146C459 25 198 37 67-30c-50-26-21-113 34-82 44 25 86 29 144 34 69 5 121-47 79-96-66-38-195-24-240-82-22-22-33-52-33-87-3-166 239-184 365-117 49 26 9 113-42 79-54-36-210-56-210 32 0 69 100 59 157 73 75 19 130 48 132 130" id="B"/><path fill="#ff4f00" d="M358-442c0 63-77 44-135 47v339c0 43-21 64-62 64-40 0-63-23-63-64v-339c-50 3-96 2-96-47 0-63 75-44 132-47l-36 33c-12-173 75-238 236-252 60-5 68 89 12 92-93 4-132 42-123 143l-16-16c61 5 151-22 151 47" id="C"/><path fill="#ff4f00" d="M538-245c0 161-90 255-250 255C130 10 38-86 38-245c0-160 90-254 250-254 158 0 250 95 250 254zm-374 0c-2 94 40 160 124 160 88 0 123-67 124-160 2-95-40-159-124-159-88 0-124 66-124 159" id="D"/><path fill="#ff4f00" d="M297-401c-70 0-105 55-105 130v215c0 43-21 64-63 64-40 0-62-23-62-64v-378c0-40 22-63 61-63 69-4 63 69 61 136l-11-30c24-62 80-108 162-108 85 1 132 42 150 114h-14c23-65 87-114 172-114 121 0 165 77 165 201v242c0 41-23 64-63 64s-62-23-62-64v-237c-1-69-16-107-81-108-70 0-105 55-105 130v215c0 41-22 64-62 64s-63-23-63-64v-237c-1-68-16-107-80-108" id="E"/><path fill="#ff4f00" d="M390-58c0 61-48 65-101 68C161 10 95-54 95-182v-213c-51 2-102 4-102-47 0-52 51-49 102-47 0-72-15-154 63-154 77 0 61 83 62 154 62 6 156-23 156 47 0 69-94 41-156 47v206c1 64 25 96 89 96 40-3 81-24 81 35" id="F"/><path fill="#ff4f00" d="M190-61c0 42-21 68-63 68-41 0-62-27-62-68v-367c0-42 21-68 62-68s63 26 63 68v367zm11-594c0 43-29 67-74 66-44 1-74-23-74-66 0-44 29-66 74-66 46 0 74 22 74 66" id="G"/><g id="i"><use transform="matrix(0.022222222222222223,0,0,0.022222222222222223,0,0)" xlink:href="#q"/><use transform="matrix(0.022222222222222223,0,0,0.022222222222222223,12.066666666666666,0)" xlink:href="#z"/><use transform="matrix(0.022222222222222223,0,0,0.022222222222222223,20.666666666666668,0)" xlink:href="#r"/><use transform="matrix(0.022222222222222223,0,0,0.022222222222222223,32.82222222222222,0)" xlink:href="#A"/><use transform="matrix(0.022222222222222223,0,0,0.022222222222222223,45.82222222222222,0)" xlink:href="#B"/><use transform="matrix(0.022222222222222223,0,0,0.022222222222222223,56.66666666666667,0)" xlink:href="#C"/><use transform="matrix(0.022222222222222223,0,0,0.022222222222222223,64.46666666666667,0)" xlink:href="#D"/><use transform="matrix(0.022222222222222223,0,0,0.022222222222222223,77.26666666666667,0)" xlink:href="#z"/><use transform="matrix(0.022222222222222223,0,0,0.022222222222222223,85.97777777777777,0)" xlink:href="#E"/><use transform="matrix(0.022222222222222223,0,0,0.022222222222222223,105.46666666666667,0)" xlink:href="#r"/><use transform="matrix(0.022222222222222223,0,0,0.022222222222222223,117.62222222222222,0)" xlink:href="#F"/><use transform="matrix(0.022222222222222223,0,0,0.022222222222222223,126.44444444444444,0)" xlink:href="#G"/><use transform="matrix(0.022222222222222223,0,0,0.022222222222222223,132.11111111111111,0)" xlink:href="#D"/><use transform="matrix(0.022222222222222223,0,0,0.022222222222222223,144.91111111111113,0)" xlink:href="#A"/></g></defs></g></svg>